<?xml version="1.0" encoding="utf-8"?>
<!-- Generator: Adobe Illustrator 23.0.4, SVG Export Plug-In . SVG Version: 6.00 Build 0)  -->
<svg version="1.1" xmlns="http://www.w3.org/2000/svg" xmlns:xlink="http://www.w3.org/1999/xlink" x="0px" y="0px"
	 viewBox="0 0 200 200" style="enable-background:new 0 0 200 200;" xml:space="preserve">
<style type="text/css">
	.st0{fill:#A6C0E4;stroke:#FFFFFF;stroke-width:0.25;stroke-miterlimit:10;}
	.st1{fill:#A6C0E4;}
</style>
<g id="Layer_1">
	<g>
		<g>
			<circle class="st0" cx="100" cy="100.27" r="100"/>
		</g>
	</g>
	<circle cx="131" cy="75.27" r="48"/>
	<circle class="st1" cx="131" cy="75.27" r="34"/>
	<g>
		<rect x="25.37" y="129.69" transform="matrix(0.7284 -0.6851 0.6851 0.7284 -76.252 80.0621)" width="75" height="13.06"/>
	</g>
</g>
<g id="Layer_2">
	<g>
		<g>
			<path d="M124.73,75.68c-4.69-11.64,14.71-21.63,20.54-10.22c2.8,5.48,1.15,11.35-4.4,14.23c-4.27,2.21-14.09,1.25-16.26-4.06
				c-0.3-0.74-1.51-0.41-1.21,0.33c2.26,5.55,11.82,7.48,16.95,5.37c5.94-2.44,9.4-8.85,6.81-15.06
				c-5.86-14.08-29.25-4.17-23.64,9.75C123.82,76.75,125.03,76.43,124.73,75.68L124.73,75.68z"/>
		</g>
	</g>
	<g>
		<g>
			<path d="M132.13,72.86c0.62-1.94,1.47-5.71-1.55-6c-2.53-0.24-5.23,3.77-5.16,5.98c0.2,6,8.74-3.01,5.17-5.35
				c-4.24-2.77-6.58,11.14-0.89,6.49c1.38-1.12,2.95-5.55,0.66-6.49c-2.57-1.06-4.62,5.59-4.91,7.15c-0.07,0.35,0.17,0.85,0.6,0.79
				c5.14-0.65,4.92-10.05,1.19-6.38c-1.11,1.09-2.55,4.71-0.3,5.44c2.55,0.84,2.58-4.05,2.47-5.18c-0.06-0.57-0.85-0.91-1.16-0.32
				c-0.91,1.74-1.09,2.98-0.6,4.89c0.13,0.5,0.9,0.63,1.14,0.15c0.8-1.58,1.19-3.02,1.23-4.79c0.01-0.58-0.91-0.9-1.16-0.32
				c-0.61,1.41-1.23,2.82-1.84,4.23c0.38,0.16,0.76,0.32,1.14,0.48c0.06-0.97,0.29-1.89,0.72-2.76c-0.41-0.06-0.82-0.11-1.23-0.17
				c-0.15,0.84-0.31,1.67-0.46,2.51c0.4,0.11,0.8,0.22,1.21,0.33c0.11-1.29,0.54-2.47,1.31-3.55c-0.36,0-0.72,0-1.08,0
				c0.32,0.62,0.65,1.24,0.97,1.85c0.27,0.51,0.97,0.33,1.14-0.15c0.33-0.91,0.65-1.82,0.98-2.74c-0.4,0-0.8,0-1.21,0
				c0.1,0.5,0.21,1.01,0.31,1.51c0.05,0.68,1.03,0.88,1.23,0.17c0.16-0.55,0.31-1.1,0.47-1.66c-0.4-0.11-0.8-0.22-1.21-0.33
				c-0.4,1.42-0.74,2.82-1.03,4.27c0.41,0.06,0.82,0.11,1.23,0.17c0.01-0.4,0.02-0.81,0.04-1.21c0.02-0.69-1.09-0.87-1.23-0.17
				c-0.21,1.1-0.21,0.89-0.14,2.01c0.41-0.06,0.82-0.11,1.23-0.17c-0.75-1.78-1.92-2.37-3.8-2.55c-0.52-0.05-0.72,0.56-0.54,0.94
				c0.27,0.57,0.53,1.14,0.8,1.71c0.79,1.27-0.06,1.32-2.55,0.16c-0.52-0.63,0.14-3.47,0.22-4.13c-0.42,0-0.83,0-1.25,0
				c0,2.04,0.47,3.6,1.53,5.35c0.18-0.31,0.36-0.63,0.54-0.94c-0.37,0.02-0.74,0.04-1.11,0.06c-0.66,0.03-0.8,0.8-0.32,1.16
				c1.39,1.07,2.77,1.3,4-0.05c0.36-0.4,0.11-1.06-0.44-1.07c-1.21-0.02-1.67,0.85-3,0.98c-0.38,0.04-0.75,0.37-0.6,0.79
				c2.09,6.11,12.74,6.6,17.56,3.74c4.92-2.92,7.23-12.91,1.77-16.21c-0.32-0.2-0.84-0.02-0.92,0.37c-0.33,1.69-0.34,1.28,0.07,2.96
				c0.4-0.11,0.8-0.22,1.21-0.33c-0.14-0.35-0.27-0.71-0.41-1.06c-0.23-0.6-1.31-0.59-1.23,0.17c0.14,1.29,0.12,1.22,0.43,2.49
				c0.4-0.11,0.8-0.22,1.21-0.33c-0.11-0.37-0.23-0.75-0.34-1.12c-0.38,0.16-0.76,0.32-1.14,0.48c0.23,0.3,0.45,0.6,0.68,0.9
				c0.33,0.44,1.23,0.37,1.16-0.32c-0.04-0.46-0.08-0.91-0.12-1.37c-0.39,0.11-0.78,0.21-1.16,0.32c0.19,0.31,0.38,0.62,0.56,0.92
				c0.42,0.69,1.47,0.08,1.08-0.63c-0.29-0.53-0.58-1.06-0.87-1.58c-0.33,0.25-0.65,0.5-0.98,0.76c0.3,0.28,0.6,0.57,0.9,0.85
				c0.42,0.4,1.27,0.01,1.04-0.61c-0.12-0.34-0.25-0.69-0.37-1.03c-0.35,0.2-0.7,0.41-1.04,0.61c0.23,0.29,0.46,0.57,0.69,0.86
				c0.44,0.54,1.13-0.07,1.04-0.61c-0.04-0.22-0.07-0.44-0.11-0.65c-0.35,0.2-0.7,0.41-1.04,0.61c0.18,0.16,0.35,0.32,0.53,0.48
				c0.6,0.55,1.4-0.27,0.88-0.88c-0.18-0.22-0.37-0.43-0.55-0.65c-0.44-0.52-1.14,0.06-1.04,0.61c0.07,0.37,0.13,0.75,0.2,1.12
				c0.4-0.11,0.8-0.22,1.21-0.33c-0.1-0.23-0.19-0.46-0.29-0.68c-0.17-0.4-0.51-0.55-0.92-0.37c-1.48,0.64-2.95,1.29-4.43,1.93
				c0.21,0.36,0.42,0.72,0.63,1.08c0.34-0.26,0.68-0.52,1.01-0.77c0.51-0.39,0.25-1.39-0.48-1.14c-2.26,0.75-4.43,1.61-6.58,2.62
				c0.21,0.36,0.42,0.72,0.63,1.08c1.38-0.87,2.76-1.75,4.15-2.62c0.57-0.36,0.2-1.42-0.48-1.14c-1.64,0.66-3.23,1.39-4.8,2.22
				c0.21,0.36,0.42,0.72,0.63,1.08c1.65-0.95,3.2-1.97,4.72-3.12c0.64-0.48,0.11-1.41-0.63-1.08c-2.6,1.17-4.91,2.69-7.24,4.33
				c0.25,0.33,0.5,0.65,0.76,0.98c0.81-0.92,1.64-1.78,2.52-2.62c-0.33-0.25-0.65-0.5-0.98-0.76c-0.51,1.24-1.25,2.32-2.23,3.26
				c0.35,0.09,0.7,0.18,1.04,0.28c-0.06-0.74-0.12-1.48-0.18-2.22c-0.42,0-0.83,0-1.25,0c-0.11,1.06-0.23,2.13-0.34,3.19
				c0.42,0,0.83,0,1.25,0c0.05-0.84,0.1-1.67,0.15-2.51c-0.41-0.06-0.82-0.11-1.23-0.17c-0.14,1.34-0.29,2.67-0.43,4.01
				c-0.07,0.69,1.13,0.86,1.23,0.17c0.18-1.29,0.44-2.4,0.85-3.63c-0.41-0.06-0.82-0.11-1.23-0.17c0.16,1.39,0.33,2.78,0.49,4.17
				c0.08,0.65,1.04,0.91,1.23,0.17c0.32-1.3,0.65-2.6,0.97-3.9c-0.41-0.06-0.82-0.11-1.23-0.17c0.05,0.86,0.1,1.72,0.14,2.57
				c0.04,0.66,1.1,0.9,1.23,0.17c0.2-1.19,0.47-2.23,0.86-3.37c-0.4,0-0.8,0-1.21,0c0.53,1.33,0.79,2.71,0.76,4.16
				c0.03,0.81,1.18,0.79,1.25,0c0.31-1.2,0.62-2.41,0.94-3.61c-0.38-0.05-0.76-0.1-1.14-0.15c0.28,1.22,0.38,2.46,0.29,3.7
				c-0.02,0.81,1.19,0.79,1.25,0c0.29-0.98,0.58-1.95,0.88-2.93c-0.38-0.05-0.76-0.1-1.14-0.15c0.27,1.1,0.43,2.22,0.49,3.36
				c0.41-0.06,0.82-0.11,1.23-0.17c-0.38-1.28-0.63-2.58-0.76-3.92c-0.08-0.62-1.11-0.93-1.23-0.17c-0.31,1.97-0.79,2.81-1.7,0.73
				c-0.26-0.59-1.16-0.26-1.16,0.32c-0.01,0.86-0.01,1.72-0.02,2.57c0,0.68,1.12,0.88,1.23,0.17c0.16-1.08,0.31-2.16,0.47-3.24
				c-0.41-0.06-0.82-0.11-1.23-0.17c-0.01,1.55-0.17,3.08-0.48,4.6c0.38-0.05,0.76-0.1,1.14-0.15c-0.2-0.52-0.39-1.04-0.59-1.56
				c-0.04-0.72-0.99-0.83-1.23-0.17c-0.22,0.62-0.45,1.24-0.67,1.86c0.41,0.06,0.82,0.11,1.23,0.17c-0.12-0.57-0.12-1.13,0.03-1.69
				c-0.36,0.15-0.71,0.29-1.07,0.44c0.53,0.48,0.99,1.01,1.4,1.59c0.29,0.37,0.94,0.15,1.04-0.28c0.17-0.69,0.33-1.38,0.5-2.07
				c-0.35,0.09-0.7,0.18-1.04,0.28c0.58,0.65,1.16,1.29,1.74,1.94c0.4,0.44,1.02,0.05,1.07-0.44c0.16-0.99,0.21-1.99,0.16-2.99
				c-0.39,0.11-0.78,0.21-1.16,0.32c0.35,0.72,0.69,1.44,1.04,2.16c0.22,0.46,1.06,0.38,1.14-0.15c-0.2-1.03,0.2-1.58,1.19-1.67
				c0.32,0.37,0.92,0.15,1.04-0.28c0.22-0.5,0.44-1,0.66-1.5c-0.36,0-0.72,0-1.08,0c0.28,0.47,0.55,0.95,0.83,1.42
				c0.19,0.33,0.71,0.43,0.98,0.13c0.15-0.17,0.76-0.87,0.71-1.14c0.16,0.79,1.36,0.45,1.21-0.33c-0.14-0.71-0.55-1.17-1.34-1.12
				c-1.55,0.1-0.62,1.59-1.31,0.41c-0.24-0.41-0.84-0.4-1.08,0c-0.56,0.94-0.48,0.76-0.79,1.8c0.35-0.09,0.7-0.18,1.04-0.28
				c-0.34-0.39-0.68-0.79-1.02-1.18c-0.2-0.23-0.51-0.2-0.76-0.1c-1.31,0.58-1.3,2.23-1.5,3.5c0.38-0.05,0.76-0.1,1.14-0.15
				c-0.35-0.72-0.69-1.44-1.04-2.16c-0.28-0.58-1.16-0.27-1.16,0.32c0.05,1,0,2-0.16,2.99c0.36-0.15,0.71-0.29,1.07-0.44
				c-0.58-0.65-1.16-1.29-1.74-1.94c-0.31-0.35-0.94-0.17-1.04,0.28c-0.17,0.69-0.33,1.38-0.5,2.07c0.35-0.09,0.7-0.18,1.04-0.28
				c-0.41-0.58-0.87-1.11-1.4-1.59c-0.42-0.43-1-0.06-1.07,0.44c-0.14,0.56-0.15,1.12-0.03,1.69c0.07,0.7,0.98,0.85,1.23,0.17
				c0.22-0.62,0.45-1.24,0.67-1.86c-0.41-0.06-0.82-0.11-1.23-0.17c0.07,1.34-0.03,1.08,0.76,2.19c0.28,0.39,1.04,0.43,1.14-0.15
				c0.28-1.66,0.46-3.25,0.53-4.93c0.03-0.69-1.13-0.87-1.23-0.17c-0.16,1.08-0.31,2.16-0.47,3.24c0.41,0.06,0.82,0.11,1.23,0.17
				c0.01-0.86,0.01-1.72,0.02-2.57c-0.39,0.11-0.78,0.21-1.16,0.32c0.71,1.62,0.64,2.25,2.25,2.82c0.35,0.12,0.65-0.14,0.77-0.44
				c0.49-1.17,0.77-2.16,0.97-3.41c-0.41-0.06-0.82-0.11-1.23-0.17c0.18,1.45,0.44,2.83,0.81,4.25c0.17,0.66,1.29,0.55,1.23-0.17
				c-0.1-1.26-0.27-2.45-0.53-3.69c-0.11-0.52-0.9-0.61-1.14-0.15c-0.65,1.22-0.94,2.19-1.05,3.56c0.42,0,0.83,0,1.25,0
				c0.03-1.41-0.08-2.66-0.34-4.03c-0.09-0.5-0.93-0.63-1.14-0.15c-0.64,1.45-0.96,2.67-1.11,4.24c0.42,0,0.83,0,1.25,0
				c-0.07-1.61-0.3-2.94-0.81-4.49c-0.19-0.6-1-0.59-1.21,0c-0.39,1.14-0.66,2.18-0.86,3.37c0.41,0.06,0.82,0.11,1.23,0.17
				c-0.05-0.86-0.1-1.72-0.14-2.57c-0.04-0.68-1.05-0.88-1.23-0.17c-0.32,1.3-0.65,2.6-0.97,3.9c0.41,0.06,0.82,0.11,1.23,0.17
				c-0.16-1.39-0.33-2.78-0.49-4.17c-0.08-0.68-0.99-0.87-1.23-0.17c-0.42,1.24-0.68,2.34-0.85,3.63c0.41,0.06,0.82,0.11,1.23,0.17
				c0.14-1.34,0.29-2.67,0.43-4.01c0.07-0.69-1.12-0.86-1.23-0.17c-0.25,1.6-0.24,1.22-0.19,2.84c0.02,0.82,1.17,0.79,1.25,0
				c0.11-1.06,0.23-2.13,0.34-3.19c0.09-0.8-1.15-0.79-1.25,0c-0.19,1.57-0.23,1.03,0.22,2.56c0.13,0.43,0.72,0.63,1.04,0.28
				c1.02-1.12,1.74-2.14,2.42-3.52c0.31-0.62-0.45-1.27-0.98-0.76c-0.88,0.85-1.71,1.71-2.52,2.62c-0.44,0.5,0.14,1.41,0.76,0.98
				c2.33-1.64,4.64-3.15,7.24-4.33c-0.21-0.36-0.42-0.72-0.63-1.08c-1.52,1.15-3.07,2.17-4.72,3.12c-0.7,0.4-0.08,1.45,0.63,1.08
				c1.48-0.78,2.94-1.46,4.5-2.09c-0.16-0.38-0.32-0.76-0.48-1.14c-1.38,0.87-2.76,1.75-4.15,2.62c-0.69,0.44-0.09,1.42,0.63,1.08
				c2.05-0.96,4.13-1.78,6.28-2.49c-0.16-0.38-0.32-0.76-0.48-1.14c-0.34,0.26-0.68,0.52-1.01,0.77c-0.64,0.49-0.11,1.4,0.63,1.08
				c-0.01,0,3.78-1.67,3.8-1.62c0.31,0.73,1.35,0.48,1.21-0.33c-0.07-0.37-0.13-0.75-0.2-1.12c-0.35,0.2-0.7,0.41-1.04,0.61
				c0.18,0.22,0.37,0.43,0.55,0.65c0.29-0.29,0.59-0.59,0.88-0.88c-0.18-0.16-0.35-0.32-0.53-0.48c-0.49-0.44-1.14,0-1.04,0.61
				c0.04,0.22,0.07,0.44,0.11,0.65c0.35-0.2,0.7-0.41,1.04-0.61c-0.23-0.29-0.46-0.57-0.69-0.86c-0.39-0.48-1.25,0.04-1.04,0.61
				c0.12,0.34,0.25,0.69,0.37,1.03c0.35-0.2,0.7-0.41,1.04-0.61c-0.3-0.28-0.6-0.57-0.9-0.85c-0.52-0.49-1.33,0.13-0.98,0.76
				c0.29,0.53,0.58,1.06,0.87,1.58c0.36-0.21,0.72-0.42,1.08-0.63c-0.19-0.31-0.38-0.62-0.56-0.92c-0.3-0.49-1.22-0.33-1.16,0.32
				c0.04,0.46,0.08,0.91,0.12,1.37c0.39-0.11,0.78-0.21,1.16-0.32c-0.23-0.3-0.45-0.6-0.68-0.9c-0.39-0.53-1.36-0.25-1.14,0.48
				c0.11,0.37,0.23,0.75,0.34,1.12c0.23,0.77,1.4,0.45,1.21-0.33c-0.13-0.72-0.26-1.44-0.39-2.15c-0.41,0.06-0.82,0.11-1.23,0.17
				c0.14,0.35,0.27,0.71,0.41,1.06c0.28,0.74,1.4,0.46,1.21-0.33c0.48,1.98,1.6,2.26,1.32,4.56c-0.15,1.22-0.38,2.16-0.87,3.3
				c-1.51,3.48-3.44,4.38-6.99,5.21c-2.34,0.54-5.56,0.78-7.77-0.33c-1-0.5-6-3.85-1.77-3.79c-0.15-0.36-0.29-0.71-0.44-1.07
				c-0.83-0.05-1.66-0.1-2.49-0.14c-0.11,0.39-0.21,0.78-0.32,1.16c0.37-0.02,0.74-0.04,1.11-0.06c0.46-0.02,0.8-0.52,0.54-0.94
				c-1.04-1.41-1.49-2.98-1.36-4.72c0-0.83-1.15-0.78-1.25,0c-0.22,1.72-1.08,5.37,0.54,6.6c1.25,0.95,3.82,0.63,4.91-0.35
				c0.17-0.15,0.21-0.4,0.16-0.61c-0.3-1.38-1.16-2.74-1.75-4.02c-0.18,0.31-0.36,0.63-0.54,0.94c0.86,0.54,1.73,1.09,2.59,1.63
				c0.25,0.59,1.28,0.61,1.23-0.17c0.03-0.56,0.06-1.12,0.09-1.68c-0.41-0.06-0.82-0.11-1.23-0.17c-0.01,0.4-0.02,0.81-0.04,1.21
				c-0.02,0.69,1.09,0.87,1.23,0.17c0.29-1.45,0.63-2.85,1.03-4.27c0.22-0.78-0.99-1.11-1.21-0.33c-0.16,0.55-0.31,1.1-0.47,1.66
				c0.41,0.06,0.82,0.11,1.23,0.17c-0.08-1.01-0.04-0.88-0.36-1.85c-0.2-0.6-1-0.58-1.21,0c-0.33,0.91-0.65,1.82-0.98,2.74
				c0.38-0.05,0.76-0.1,1.14-0.15c-0.32-0.62-0.65-1.24-0.97-1.85c-0.22-0.42-0.85-0.39-1.08,0c-0.76,1.3-1.18,2.34-1.44,3.85
				c-0.14,0.78,1.02,1.13,1.21,0.33c0.32-1.37,0.32-1.45,0.5-2.84c0.1-0.74-1-0.78-1.23-0.17c-0.42,0.87-0.66,1.79-0.72,2.76
				c-0.1,0.63,0.83,1.19,1.14,0.48c0.61-1.41,1.23-2.82,1.84-4.23c-0.39-0.11-0.78-0.21-1.16-0.32c0.07,1.49-0.28,2.88-1.06,4.16
				c0.38,0.05,0.76,0.1,1.14,0.15c0.16-1.31,0.31-2.62,0.47-3.92c-0.39-0.11-0.78-0.21-1.16-0.32c0.19,1.89-2.8,6.79-0.48,2.34
				c0.58-1.11,0.11-1.19,1.21-1.5c2.46-0.68-0.71,3.26-1.56,0.79c-0.78-2.29,4.78-2.18,3.58,1.57
				C130.67,73.29,131.88,73.62,132.13,72.86L132.13,72.86z"/>
		</g>
	</g>
	<g>
		<g>
			<path d="M138.2,69.65c-0.06-0.14-0.12-0.28-0.18-0.41c-0.24-0.55-1.24-0.29-1.16,0.32c0.12,0.94,0.35,1.77,0.72,2.65
				c0.25,0.58,1.19,0.27,1.16-0.32c-0.05-1.31-0.02-2.62,0.07-3.93c-0.41,0.06-0.82,0.11-1.23,0.17c0.32,1.02,0.55,2.05,0.7,3.11
				c0.1,0.72,1.21,0.51,1.23-0.17c0.02-0.93,0.04-1.86,0.07-2.79c-0.39,0.11-0.78,0.21-1.16,0.32c0.47,1.06,0.73,2.05,0.83,3.2
				c0.07,0.8,1.19,0.81,1.25,0c0.09-1.3,0.23-2.55,0.67-3.79c-0.35,0.09-0.7,0.18-1.04,0.28c0.72,0.56,0.73,2.24,0.82,3.02
				c0.09,0.79,1.2,0.82,1.25,0c0.06-0.95,0.25-1.83,0.56-2.73c-0.31,0.12-0.61,0.25-0.92,0.37c0.45,0.27,0.54,1.67,0.66,2.16
				c0.16,0.68,1.28,0.54,1.23-0.17c-0.07-0.98-0.03-1.88,0.15-2.85c-0.38,0.05-0.76,0.1-1.14,0.15c0.27,0.55,0.41,0.99,0.52,1.57
				c0.14,0.7,1.24,0.53,1.23-0.17c-0.01-0.73,0.02-1.37,0.14-2.1c-0.4,0-0.8,0-1.21,0c0.27,0.67,0.44,1.32,0.54,2.04
				c0.09,0.61,1.09,0.58,1.21,0c0.12-0.61,0.2-1.19,0.23-1.82c-0.41,0.06-0.82,0.11-1.23,0.17c0.03,0.44,0.06,0.87,0.1,1.31
				c0.35-0.09,0.7-0.18,1.04-0.28c-0.63-0.5-1.2-1.02-1.72-1.63c-0.21-0.24-0.68-0.25-0.88,0c-0.33,0.4-0.47,0.58-0.74,1.02
				c0.38,0.05,0.76,0.1,1.14,0.15c-0.13-0.65-0.14-1.13-0.07-1.77c-0.41,0.06-0.82,0.11-1.23,0.17c0.28,0.78,0.42,1.4,0.47,2.25
				c0.41-0.06,0.82-0.11,1.23-0.17c-0.15-0.73-0.29-1.46-0.44-2.19c-0.4,0.11-0.8,0.22-1.21,0.33c0.19,0.76,0.46,1.37,0.88,2.03
				c0.26,0.41,0.81,0.4,1.08,0c0.36-0.54,0.38-0.84,0.78-0.34c0.28,0.35,0.98,0.17,1.04-0.28c0.06-0.42,0.13-0.85,0.19-1.27
				c-0.4,0-0.8,0-1.21,0c0.06,0.17,0.11,0.35,0.17,0.52c0.2,0.63,0.98,0.56,1.21,0c0.05-0.13,0.1-0.25,0.16-0.38
				c-0.4,0-0.8,0-1.21,0c0.06,0.27,0.12,0.55,0.18,0.82c0.4-0.11,0.8-0.22,1.21-0.33c-0.07-0.2-0.14-0.4-0.21-0.6
				c-0.27-0.76-1.36-0.46-1.21,0.33c0.5,2.61-1.53,4.63-3.18,6.35c-0.56,0.58,0.33,1.47,0.88,0.88c2.02-2.11,4.11-4.44,3.51-7.56
				c-0.4,0.11-0.8,0.22-1.21,0.33c0.07,0.2,0.14,0.4,0.21,0.6c0.26,0.76,1.38,0.46,1.21-0.33c-0.06-0.27-0.12-0.55-0.18-0.82
				c-0.15-0.67-0.99-0.52-1.21,0c-0.05,0.13-0.1,0.25-0.16,0.38c0.4,0,0.8,0,1.21,0c-0.06-0.17-0.11-0.35-0.17-0.52
				c-0.17-0.53-1.11-0.66-1.21,0c-0.06,0.42-0.13,0.85-0.19,1.27c0.35-0.09,0.7-0.18,1.04-0.28c-0.3-0.37-0.51-0.64-0.91-0.89
				c-0.17-0.11-0.46-0.13-0.63,0c-0.54,0.4-0.82,0.91-1.2,1.48c0.36,0,0.72,0,1.08,0c-0.36-0.55-0.6-1.09-0.76-1.73
				c-0.2-0.79-1.36-0.45-1.21,0.33c0.15,0.73,0.29,1.46,0.44,2.19c0.14,0.69,1.27,0.54,1.23-0.17c-0.06-0.91-0.21-1.73-0.52-2.58
				c-0.24-0.69-1.15-0.53-1.23,0.17c-0.08,0.73-0.03,1.39,0.12,2.11c0.11,0.55,0.88,0.58,1.14,0.15c0.18-0.26,0.36-0.51,0.55-0.77
				c-0.29,0-0.59,0-0.88,0c0.53,0.61,1.09,1.14,1.72,1.63c0.34,0.27,0.93,0.23,1.04-0.28c0.17-0.74,0.15-1.26-0.1-1.97
				c-0.23-0.66-1.19-0.55-1.23,0.17c0,0.5-0.06,0.99-0.18,1.48c0.4,0,0.8,0,1.21,0c-0.1-0.72-0.27-1.36-0.54-2.04
				c-0.2-0.5-1.09-0.68-1.21,0c-0.14,0.82-0.2,1.61-0.19,2.43c0.41-0.06,0.82-0.11,1.23-0.17c-0.13-0.67-0.35-1.26-0.65-1.87
				c-0.23-0.47-1.05-0.37-1.14,0.15c-0.2,1.07-0.27,2.1-0.2,3.19c0.41-0.06,0.82-0.11,1.23-0.17c-0.25-1.06-0.24-2.31-1.23-2.91
				c-0.36-0.22-0.79,0-0.92,0.37c-0.35,1.01-0.53,1.99-0.6,3.06c0.42,0,0.83,0,1.25,0c-0.15-1.26-0.1-3.06-1.19-3.91
				c-0.38-0.3-0.88-0.2-1.04,0.28c-0.48,1.34-0.62,2.7-0.71,4.12c0.42,0,0.83,0,1.25,0c-0.12-1.36-0.45-2.59-1-3.83
				c-0.27-0.6-1.15-0.26-1.16,0.32c-0.02,0.93-0.04,1.86-0.07,2.79c0.41-0.06,0.82-0.11,1.23-0.17c-0.15-1.06-0.38-2.09-0.7-3.11
				c-0.21-0.69-1.18-0.53-1.23,0.17c-0.09,1.31-0.12,2.61-0.07,3.93c0.39-0.11,0.78-0.21,1.16-0.32c-0.3-0.64-0.48-1.31-0.55-2.02
				c-0.39,0.11-0.78,0.21-1.16,0.32c0.06,0.14,0.12,0.28,0.18,0.41C137.45,71.01,138.52,70.38,138.2,69.65L138.2,69.65z"/>
		</g>
	</g>
	<g>
		<g>
			<path d="M139.29,75.54c1.46-1.26,2.98-2.39,4.6-3.43c-0.25-0.33-0.5-0.65-0.76-0.98c-1.23,1.06-2.32,2.17-3.35,3.42
				c-0.5,0.61,0.34,1.49,0.88,0.88c1.15-1.27,2.29-2.54,3.44-3.81c0.54-0.59-0.3-1.45-0.88-0.88c-1.43,1.38-2.86,2.76-4.29,4.14
				c0.29,0.29,0.59,0.59,0.88,0.88c1.41-1.69,2.93-3.19,4.61-4.61c-0.33-0.25-0.65-0.5-0.98-0.76c-1.1,1.43-2.29,2.6-3.69,3.72
				c0.33,0.25,0.65,0.5,0.98,0.76c1.04-1.39,2.08-2.54,3.31-3.74c-0.33-0.25-0.65-0.5-0.98-0.76c-0.82,1.26-1.75,2.38-2.81,3.44
				c0.33,0.25,0.65,0.5,0.98,0.76c0.8-1.39,1.72-2.63,2.81-3.81c-0.35-0.2-0.7-0.41-1.04-0.61c-0.08,0.31-0.16,0.62-0.23,0.93
				c-0.18,0.71,0.75,1.05,1.14,0.48c0.43-0.62,0.86-1.24,1.28-1.86c-0.39-0.11-0.78-0.21-1.16-0.32c0,0.33,0.01,0.65,0.01,0.98
				c0.01,0.69,1.07,0.87,1.23,0.17c0.1-0.45,0.2-0.9,0.29-1.34c-0.41-0.06-0.82-0.11-1.23-0.17c0.02,0.44,0.04,0.88,0.06,1.32
				c0.39-0.11,0.78-0.21,1.16-0.32c-0.15-0.28-0.3-0.56-0.45-0.84c-0.23-0.43-0.83-0.38-1.08,0c-0.52,1.85-1.31,2.18-2.36,1
				c-0.08-0.79-1.3-0.81-1.25,0c0.1,0.85,0.11,1.71,0.03,2.56c0.39-0.11,0.78-0.21,1.16-0.32c-0.58-0.68-1.04-1.43-1.37-2.26
				c-0.26-0.53-1.24-0.3-1.16,0.32c0.13,1.03,0.21,1.54,0.4,2.56c0.15,0.8,1.32,0.45,1.21-0.33c-0.12-0.83-0.24-1.65-0.35-2.48
				c-0.4,0.11-0.8,0.22-1.21,0.33c0.18,0.8,0.35,1.6,0.53,2.4c0.36-0.15,0.71-0.29,1.07-0.44c-0.35-0.48-0.69-0.96-1.04-1.45
				c-0.31-0.49-1.21-0.34-1.16,0.32c0.08,1.27,0.09,1.29,0.32,2.55c0.4-0.11,0.8-0.22,1.21-0.33c-0.38-1.04-0.76-2.08-1.14-3.12
				c-0.22-0.61-1.29-0.59-1.23,0.17c0.12,1.41,0.24,2.81,0.36,4.22c0.41-0.06,0.82-0.11,1.23-0.17c-0.3-0.93-0.6-1.87-0.91-2.8
				c-0.25-0.77-1.38-0.45-1.21,0.33c0.25,0.98,0.42,1.98,0.51,2.99c0.41-0.06,0.82-0.11,1.23-0.17c-0.36-1.05-0.73-2.1-1.09-3.15
				c-0.27-0.77-1.34-0.46-1.21,0.33c0.23,1.12,0.33,2.26,0.31,3.4c0.39-0.11,0.78-0.21,1.16-0.32c-0.28-0.76-0.57-1.51-0.85-2.27
				c-0.19-0.64-1.33-0.56-1.23,0.17c0.12,0.89,0.24,1.79,0.36,2.68c0.41-0.06,0.82-0.11,1.23-0.17c-0.4-1.05-0.8-2.09-1.19-3.14
				c-0.24-0.62-1.24-0.58-1.23,0.17c0.02,1.06,0.03,2.12,0.05,3.18c0.41-0.06,0.82-0.11,1.23-0.17c-0.15-0.76-0.31-1.52-0.46-2.28
				c-0.4,0.11-0.8,0.22-1.21,0.33c0.05,0.84,0.1,1.69,0.15,2.53c0.39-0.11,0.78-0.21,1.16-0.32c-0.46-0.81-0.92-1.63-1.38-2.44
				c-0.31-0.55-1.15-0.29-1.16,0.32c-0.02,0.94-0.05,1.88-0.07,2.82c0.41-0.06,0.82-0.11,1.23-0.17c-0.36-1.16-0.6-2.34-0.72-3.55
				c-0.1-0.78-1.33-0.81-1.25,0c0.09,0.97,0.19,1.94,0.28,2.91c0.41-0.06,0.82-0.11,1.23-0.17c-0.35-0.87-0.71-1.74-1.06-2.6
				c-0.3-0.74-1.36-0.47-1.21,0.33c0.2,1.09,0.41,2.17,0.61,3.26c0.4-0.11,0.8-0.22,1.21-0.33c-0.3-0.98-0.61-1.97-0.91-2.95
				c-0.2-0.65-1.28-0.56-1.23,0.17c0.05,0.77,0.11,1.54,0.16,2.31c0.41-0.06,0.82-0.11,1.23-0.17c-0.31-0.98-0.61-1.96-0.92-2.94
				c-0.24-0.77-1.39-0.45-1.21,0.33c0.22,0.97,0.44,1.93,0.67,2.9c0.4-0.11,0.8-0.22,1.21-0.33c-0.27-0.9-0.53-1.81-0.8-2.71
				c-0.23-0.77-1.38-0.45-1.21,0.33c0.21,0.96,0.42,1.93,0.63,2.89c0.4-0.11,0.8-0.22,1.21-0.33c-0.27-1.11-0.54-2.22-0.81-3.33
				c-0.16-0.67-1.31-0.55-1.23,0.17c0.16,1.39,0.31,2.79,0.47,4.18c0.41-0.06,0.82-0.11,1.23-0.17c-0.42-1.1-0.83-2.19-1.25-3.29
				c-0.24-0.63-1.23-0.58-1.23,0.17c0,1.12,0,2.25-0.01,3.37c0.41-0.06,0.82-0.11,1.23-0.17c-0.29-1.27-0.58-2.54-0.87-3.81
				c-0.15-0.67-1.3-0.54-1.23,0.17c0.13,1.27,0.33,2.46,0.63,3.71c0.19,0.79,1.34,0.45,1.21-0.33c-0.21-1.17-0.48-2.2-0.87-3.31
				c-0.27-0.76-1.38-0.46-1.21,0.33c0.17,0.93,0.4,1.84,0.71,2.74c0.24,0.78,1.34,0.45,1.21-0.33c-0.07-0.89-0.31-1.74-0.71-2.53
				c-0.23-0.6-1.31-0.59-1.23,0.17c0.13,1.2,0.2,1.67,0.4,2.86c0.4-0.11,0.8-0.22,1.21-0.33c-0.11-0.56-0.22-1.11-0.33-1.67
				c-0.39,0.11-0.78,0.21-1.16,0.32c0.64,0.93,1.19,1.83,1.71,2.83c0.31,0.6,1.1,0.25,1.16-0.32c0.06-0.52,0.11-1.04,0.17-1.56
				c-0.39,0.11-0.78,0.21-1.16,0.32c0.45,0.7,0.84,1.42,1.17,2.19c0.27,0.57,1.17,0.28,1.16-0.32c-0.01-0.69-0.02-1.38-0.02-2.06
				c-0.39,0.11-0.78,0.21-1.16,0.32c0.52,0.62,0.96,1.29,1.32,2.01c0.35,0.6,1.37,0.2,1.14-0.48c-0.19-0.59-0.39-1.17-0.58-1.76
				c-0.38,0.16-0.76,0.32-1.14,0.48c0.39,0.65,0.78,1.3,1.17,1.95c0.31,0.52,1.18,0.32,1.16-0.32c-0.02-0.8-0.04-1.6-0.06-2.4
				c-0.39,0.11-0.78,0.21-1.16,0.32c0.51,0.68,1.01,1.36,1.52,2.03c0.32,0.43,1.24,0.38,1.16-0.32c-0.06-0.59-0.13-1.17-0.19-1.76
				c-0.36,0.15-0.71,0.29-1.07,0.44c0.48,0.62,0.96,1.24,1.45,1.87c0.34,0.55,1.11,0.29,1.16-0.32c0.08-0.66,0.15-1.32,0.23-1.98
				c-0.38,0.05-0.76,0.1-1.14,0.15c0.27,0.51,0.54,1.02,0.82,1.53c0.23,0.64,1.23,0.57,1.23-0.17c0-0.7,0-1.4,0-2.1
				c-0.36,0.15-0.71,0.29-1.07,0.44c0.41,0.59,0.82,1.18,1.22,1.77c0.29,0.54,1.19,0.3,1.16-0.32c-0.02-0.7-0.05-1.4-0.07-2.1
				c-0.39,0.11-0.78,0.21-1.16,0.32c0.47,0.58,0.85,1.21,1.12,1.91c0.3,0.61,1.11,0.24,1.16-0.32c0.08-0.55,0.16-1.1,0.24-1.64
				c-0.35,0.09-0.7,0.18-1.04,0.28c0.35,0.42,0.7,0.84,1.05,1.26c0.27,0.4,1.05,0.43,1.14-0.15c0.08-0.49,0.16-0.97,0.24-1.46
				c-0.35,0.09-0.7,0.18-1.04,0.28c0.21,0.25,0.43,0.49,0.64,0.74c0.32,0.37,0.92,0.15,1.04-0.28c0.64-2.13,2.07-3.87,2.66-6.07
				c-0.4,0-0.8,0-1.21,0c0.55,3.2-2.69,7.02-5.46,7.9c0.26,0.26,0.51,0.51,0.77,0.77c0.38-1.63,1.07-2.79,2.27-4
				c-0.36-0.15-0.71-0.29-1.07-0.44c0.17,0.98-0.01,1.91-0.53,2.78c-0.06,0.41-0.11,0.82-0.17,1.23c2.44-0.32,4.28-1.49,4.55-4.06
				c0.07-0.7-1.08-0.85-1.23-0.17c-0.53,2.54-3.63,2.96-5.36,4.48c-0.41,0.36-0.08,1.07,0.44,1.07c1.3-0.02,2.1-0.23,3.17-0.95
				c0.46-0.31,0.35-1.24-0.32-1.16c-2.27,0.24-4.46,1.24-6.75,0.94c0,0.42,0,0.83,0,1.25c1.35,0.13,2.59,0.17,3.94,0.1
				c-0.06-0.41-0.11-0.82-0.17-1.23c-0.41,0.12-0.83,0.24-1.24,0.36c0.2,0.35,0.41,0.7,0.61,1.04c1-0.9,0.76-0.58,1.38-1.73
				c0.17-0.32,0.04-0.85-0.37-0.92c-1-0.17-1.61,0.04-1.96,1.02c0.41,0.06,0.82,0.11,1.23,0.17c0.01-0.13,0.02-0.25,0.03-0.38
				c-0.42,0-0.83,0-1.25,0c0.02,0.36,0.03,0.72,0.05,1.07c0.36-0.15,0.71-0.29,1.07-0.44c-0.18-0.22-0.35-0.45-0.53-0.67
				c-0.22-0.28-0.65-0.19-0.88,0c-0.08,0-0.16,0.01-0.25,0.01c-0.54-0.5-1.28,0.12-0.98,0.76c0.12,0.26,0.24,0.51,0.36,0.77
				c0.33-0.25,0.65-0.5,0.98-0.76c-0.24-0.26-0.47-0.53-0.71-0.79c-0.42-0.47-1.22,0.02-1.04,0.61c0.08,0.27,0.16,0.53,0.24,0.8
				c0.35-0.2,0.7-0.41,1.04-0.61c-0.81-0.79-0.58-0.63-1.62-1.17c-0.44-0.23-1.12,0.16-0.92,0.71c0.1,0.28,0.2,0.56,0.31,0.84
				c0.35-0.2,0.7-0.41,1.04-0.61c-0.69-0.75-0.56-0.63-1.44-1.19c-0.5-0.32-1.23,0.34-0.86,0.86c0.43,0.59,0.48,0.65,1.01,1.16
				c0.25-0.33,0.5-0.65,0.76-0.98c-0.5-0.46-1.06-0.81-1.68-1.06c-0.4-0.2-0.97,0.04-0.94,0.54c0.01,0.17,0.02,0.35,0.03,0.52
				c0.36-0.15,0.71-0.29,1.07-0.44c-1.13-0.99-1.91-1.27-3.44-1.41c0.18,0.31,0.36,0.63,0.54,0.94c0.61-0.88-0.05-1.38-0.84-1.76
				c-0.63-0.3-1.25,0.44-0.76,0.98c0.2,0.21,0.39,0.43,0.59,0.64c0.2-0.35,0.41-0.7,0.61-1.04c-0.65-0.15-1.29-0.3-1.94-0.45
				c-0.65-0.15-0.99,0.57-0.61,1.04c0.17,0.21,0.34,0.42,0.5,0.63c0.29-0.29,0.59-0.59,0.88-0.88c-0.22-0.18-0.45-0.35-0.67-0.53
				c-0.62-0.48-1.45,0.28-0.88,0.88c0.22,0.23,0.43,0.46,0.65,0.68c0.25-0.33,0.5-0.65,0.76-0.98c-0.25-0.16-0.51-0.32-0.76-0.48
				c-0.44-0.28-1.11,0.19-0.92,0.71c0.08,0.22,0.16,0.43,0.25,0.65c0.31-0.24,0.61-0.47,0.92-0.71c-0.42-0.33-0.84-0.66-1.26-1
				c-0.54-0.53-1.26,0.14-0.98,0.76c1.69,3.8,6.64,4.13,10.28,3.79c0.59-0.05,0.88-0.83,0.32-1.16c-1.32-0.78-2.8-0.75-4.2-1.47
				c-1.21-0.63-2.12-1.31-3.49-1.55c-0.53-0.09-0.97,0.41-0.71,0.92c0.92,1.75,2.23,2.05,4.18,2.36c0.79,0.12,1.13-1.08,0.33-1.21
				c-1.38-0.03-2.52-0.63-3.43-1.79c-0.24,0.31-0.47,0.61-0.71,0.92c1.65,0.29,2.54,1.25,4.01,1.86c1.1,0.46,2.33,0.41,3.38,1.03
				c0.11-0.39,0.21-0.78,0.32-1.16c-2.93,0.27-7.94-0.35-9.2-3.17c-0.33,0.25-0.65,0.5-0.98,0.76c0.73,0.71,0.64,0.64,1.51,1.19
				c0.44,0.28,1.11-0.19,0.92-0.71c-0.08-0.22-0.16-0.43-0.25-0.65c-0.31,0.24-0.61,0.47-0.92,0.71c0.25,0.16,0.51,0.32,0.76,0.48
				c0.61,0.39,1.24-0.48,0.76-0.98c-0.22-0.23-0.43-0.46-0.65-0.68c-0.29,0.29-0.59,0.59-0.88,0.88c0.22,0.18,0.45,0.35,0.67,0.53
				c0.63,0.5,1.39-0.25,0.88-0.88c-0.17-0.21-0.34-0.42-0.5-0.63c-0.2,0.35-0.41,0.7-0.61,1.04c0.65,0.15,1.29,0.3,1.94,0.45
				c0.62,0.14,1.03-0.58,0.61-1.04c-0.2-0.21-0.39-0.43-0.59-0.64c-0.25,0.33-0.5,0.65-0.76,0.98c0.13,0.02,0.26,0.03,0.39,0.05
				c-0.29,0.42,0.11,0.9,0.54,0.94c0.85,0.35,1.71,0.7,2.56,1.05c0.38,0.33,1.1,0.14,1.07-0.44c-0.01-0.17-0.02-0.35-0.03-0.52
				c-0.31,0.18-0.63,0.36-0.94,0.54c0.63,0.25,1.19,0.6,1.68,1.06c0.57,0.44,1.26-0.5,0.76-0.98c-0.27-0.3-0.54-0.61-0.81-0.91
				c-0.29,0.29-0.57,0.57-0.86,0.86c0.39,0.33,0.79,0.66,1.18,1c0.41,0.45,1.26-0.02,1.04-0.61c-0.1-0.28-0.2-0.56-0.31-0.84
				c-0.31,0.24-0.61,0.47-0.92,0.71c0.45,0.32,0.91,0.65,1.36,0.97c0.44,0.43,1.23,0,1.04-0.61c-0.08-0.27-0.16-0.53-0.24-0.8
				c-0.35,0.2-0.7,0.41-1.04,0.61c0.24,0.26,0.47,0.53,0.71,0.79c0.5,0.56,1.27-0.15,0.98-0.76c-0.12-0.26-0.24-0.51-0.36-0.77
				c-0.33,0.25-0.65,0.5-0.98,0.76c0.18,0.16,0.35,0.33,0.53,0.49c0.27,0.25,0.61,0.22,0.88,0c0.08,0.06,0.17,0.12,0.25,0.18
				c0.34,0.43,1.09,0.07,1.07-0.44c-0.02-0.36-0.03-0.72-0.05-1.07c-0.04-0.81-1.18-0.8-1.25,0c-0.01,0.13-0.02,0.25-0.03,0.38
				c-0.06,0.74,1.01,0.79,1.23,0.17c0.14-0.05,0.28-0.1,0.42-0.15c-0.12-0.31-0.25-0.61-0.37-0.92c-0.39,0.49-0.79,0.99-1.18,1.48
				c-0.47,0.42,0.02,1.21,0.61,1.04c0.41-0.12,0.83-0.24,1.24-0.36c0.66-0.19,0.56-1.26-0.17-1.23c-1.35,0.06-2.6,0.03-3.94-0.1
				c-0.81-0.08-0.78,1.15,0,1.25c2.39,0.3,4.37-0.69,6.75-0.94c-0.11-0.39-0.21-0.78-0.32-1.16c-0.85,0.26-1.69,0.52-2.54,0.78
				c0.15,0.36,0.29,0.71,0.44,1.07c2.74-2.41,4.88-1.17,5.68-5.03c-0.41-0.06-0.82-0.11-1.23-0.17c-1.1,0.94-2.2,1.88-3.3,2.81
				c-0.66,0.09-0.89,1.01-0.17,1.23c2.1,0.63,2.15-2.78,2.11-3.99c-0.02-0.53-0.68-0.84-1.07-0.44c-1.34,1.36-2.15,2.68-2.59,4.55
				c-0.1,0.45,0.3,0.92,0.77,0.77c3.74-1.18,7.02-5.43,6.34-9.44c-0.11-0.63-1.06-0.56-1.21,0c-0.59,2.22-2.02,3.94-2.66,6.07
				c0.35-0.09,0.7-0.18,1.04-0.28c-0.21-0.25-0.43-0.49-0.64-0.74c-0.29-0.33-0.97-0.18-1.04,0.28c-0.08,0.49-0.16,0.97-0.24,1.46
				c0.38-0.05,0.76-0.1,1.14-0.15c-0.57-0.84-0.52-0.78-1.25-1.51c-0.31-0.31-0.96-0.2-1.04,0.28c-0.15,0.82-0.2,1.15-0.28,1.98
				c0.39-0.11,0.78-0.21,1.16-0.32c-0.27-0.7-0.65-1.33-1.12-1.91c-0.33-0.48-1.19-0.35-1.16,0.32c0.02,0.7,0.05,1.4,0.07,2.1
				c0.39-0.11,0.78-0.21,1.16-0.32c-0.67-1.24-0.48-0.94-1.42-2.03c-0.37-0.42-1.07-0.07-1.07,0.44c0,0.7,0,1.4,0,2.1
				c0.41-0.06,0.82-0.11,1.23-0.17c-0.39-1.1-0.26-0.86-0.94-1.83c-0.27-0.38-1.05-0.44-1.14,0.15c-0.14,0.94-0.2,1.37-0.27,2.32
				c0.39-0.11,0.78-0.21,1.16-0.32c-0.81-1.28-0.59-1-1.64-2.12c-0.35-0.37-1.13-0.11-1.07,0.44c0.06,0.59,0.13,1.17,0.19,1.76
				c0.39-0.11,0.78-0.21,1.16-0.32c-0.51-0.68-1.01-1.36-1.52-2.03c-0.34-0.46-1.18-0.36-1.16,0.32c0.02,0.8,0.04,1.6,0.06,2.4
				c0.39-0.11,0.78-0.21,1.16-0.32c-0.39-0.65-0.78-1.3-1.17-1.95c-0.36-0.59-1.37-0.21-1.14,0.48c0.19,0.59,0.39,1.17,0.58,1.76
				c0.38-0.16,0.76-0.32,1.14-0.48c-0.36-0.72-0.8-1.39-1.32-2.01c-0.35-0.47-1.17-0.36-1.16,0.32c0.01,0.69,0.02,1.38,0.02,2.06
				c0.39-0.11,0.78-0.21,1.16-0.32c-0.33-0.76-0.72-1.49-1.17-2.19c-0.34-0.57-1.1-0.27-1.16,0.32c-0.06,0.52-0.11,1.04-0.17,1.56
				c0.39-0.11,0.78-0.21,1.16-0.32c-0.52-1-1.07-1.9-1.71-2.83c-0.32-0.45-1.24-0.36-1.16,0.32c0.11,1.02,0.09,1,0.37,2
				c0.22,0.79,1.34,0.45,1.21-0.33c-0.12-0.84-0.24-1.69-0.36-2.53c-0.41,0.06-0.82,0.11-1.23,0.17c0.4,0.8,0.64,1.64,0.71,2.53
				c0.4-0.11,0.8-0.22,1.21-0.33c-0.31-0.89-0.55-1.81-0.71-2.74c-0.4,0.11-0.8,0.22-1.21,0.33c0.39,1.12,0.66,2.15,0.87,3.31
				c0.4-0.11,0.8-0.22,1.21-0.33c-0.31-1.1-0.5-2.23-0.58-3.37c-0.41,0.06-0.82,0.11-1.23,0.17c0.29,1.27,0.58,2.54,0.87,3.81
				c0.16,0.69,1.23,0.53,1.23-0.17c0-1.12,0-2.25,0.01-3.37c-0.41,0.06-0.82,0.11-1.23,0.17c0.42,1.1,0.83,2.19,1.25,3.29
				c0.23,0.6,1.31,0.59,1.23-0.17c-0.16-1.39-0.31-2.79-0.47-4.18c-0.41,0.06-0.82,0.11-1.23,0.17c0.27,1.11,0.54,2.22,0.81,3.33
				c0.19,0.78,1.38,0.45,1.21-0.33c-0.21-0.96-0.42-1.93-0.63-2.89c-0.4,0.11-0.8,0.22-1.21,0.33c0.27,0.9,0.53,1.81,0.8,2.71
				c0.23,0.77,1.39,0.45,1.21-0.33c-0.22-0.97-0.44-1.93-0.67-2.9c-0.4,0.11-0.8,0.22-1.21,0.33c0.31,0.98,0.61,1.96,0.92,2.94
				c0.2,0.64,1.28,0.57,1.23-0.17c-0.05-0.77-0.11-1.54-0.16-2.31c-0.41,0.06-0.82,0.11-1.23,0.17c0.3,0.98,0.61,1.97,0.91,2.95
				c0.24,0.78,1.35,0.45,1.21-0.33c-0.2-1.09-0.41-2.17-0.61-3.26c-0.4,0.11-0.8,0.22-1.21,0.33c0.35,0.87,0.71,1.74,1.06,2.6
				c0.24,0.59,1.3,0.6,1.23-0.17c-0.09-0.97-0.19-1.94-0.28-2.91c-0.42,0-0.83,0-1.25,0c0.18,1.33,0.42,2.58,0.77,3.88
				c0.19,0.69,1.21,0.54,1.23-0.17c0.02-0.94,0.05-1.88,0.07-2.82c-0.39,0.11-0.78,0.21-1.16,0.32c0.46,0.81,0.92,1.63,1.38,2.44
				c0.32,0.57,1.12,0.28,1.16-0.32c0.12-1.72,0.14-1.17-0.2-2.87c-0.16-0.79-1.36-0.45-1.21,0.33c0.15,0.76,0.31,1.52,0.46,2.28
				c0.14,0.7,1.24,0.53,1.23-0.17c-0.02-1.06-0.03-2.12-0.05-3.18c-0.41,0.06-0.82,0.11-1.23,0.17c0.4,1.05,0.8,2.09,1.19,3.14
				c0.23,0.6,1.33,0.59,1.23-0.17c-0.12-0.89-0.24-1.79-0.36-2.68c-0.41,0.06-0.82,0.11-1.23,0.17c0.42,1.39,0.37,1.24,0.98,2.57
				c0.26,0.58,1.18,0.27,1.16-0.32c-0.02-1.28-0.14-2.48-0.35-3.73c-0.4,0.11-0.8,0.22-1.21,0.33c0.36,1.05,0.73,2.1,1.09,3.15
				c0.21,0.62,1.32,0.58,1.23-0.17c-0.13-1.13-0.31-2.21-0.56-3.32c-0.4,0.11-0.8,0.22-1.21,0.33c0.3,0.93,0.6,1.87,0.91,2.8
				c0.21,0.64,1.29,0.57,1.23-0.17c-0.12-1.41-0.24-2.81-0.36-4.22c-0.41,0.06-0.82,0.11-1.23,0.17c0.38,1.04,0.76,2.08,1.14,3.12
				c0.28,0.76,1.35,0.46,1.21-0.33c-0.09-0.74-0.18-1.48-0.28-2.22c-0.39,0.11-0.78,0.21-1.16,0.32c0.53,0.84,0.6,0.93,1.24,1.7
				c0.33,0.4,1.12,0.08,1.07-0.44c-0.16-1.62-0.06-1.18-0.57-2.73c-0.26-0.78-1.32-0.45-1.21,0.33c0.12,0.83,0.24,1.65,0.35,2.48
				c0.4-0.11,0.8-0.22,1.21-0.33c-0.12-0.74-0.24-1.49-0.36-2.23c-0.39,0.11-0.78,0.21-1.16,0.32c0.34,0.83,0.79,1.58,1.37,2.26
				c0.36,0.5,1.14,0.33,1.16-0.32c0.09-0.86,0.08-1.71-0.03-2.56c-0.42,0-0.83,0-1.25,0c0.09,0.96,0.17,1.79,0.82,2.52
				c0.14,0.16,0.41,0.22,0.61,0.16c1.51-0.46,2.43-1.78,3.27-3.06c-0.36,0-0.72,0-1.08,0c0.15,0.28,0.3,0.56,0.45,0.84
				c0.29,0.54,1.19,0.3,1.16-0.32c-0.02-0.44-0.04-0.88-0.06-1.32c-0.03-0.67-1.07-0.89-1.23-0.17c-0.1,0.45-0.2,0.9-0.29,1.34
				c0.41,0.06,0.82,0.11,1.23,0.17c0-0.33-0.01-0.65-0.01-0.98c-0.01-0.65-0.82-0.81-1.16-0.32c-0.43,0.62-0.86,1.24-1.28,1.86
				c0.38,0.16,0.76,0.32,1.14,0.48c0.08-0.31,0.16-0.62,0.23-0.93c0.15-0.58-0.61-1.08-1.04-0.61c-1.18,1.28-2.14,2.55-3.01,4.06
				c-0.35,0.61,0.48,1.26,0.98,0.76c1.15-1.16,2.11-2.33,3-3.69c0.4-0.6-0.48-1.24-0.98-0.76c-1.28,1.25-2.43,2.56-3.5,3.99
				c-0.46,0.61,0.48,1.16,0.98,0.76c1.48-1.19,2.73-2.48,3.89-3.98c0.46-0.6-0.48-1.18-0.98-0.76c-1.69,1.42-3.2,2.92-4.61,4.61
				c-0.51,0.61,0.3,1.45,0.88,0.88c1.43-1.38,2.86-2.76,4.29-4.14c-0.29-0.29-0.59-0.59-0.88-0.88c-1.15,1.27-2.29,2.54-3.44,3.81
				c0.29,0.29,0.59,0.59,0.88,0.88c1.03-1.25,2.12-2.36,3.35-3.42c0.54-0.46-0.16-1.36-0.76-0.98c-1.72,1.1-3.31,2.29-4.85,3.63
				C137.8,75.19,138.68,76.07,139.29,75.54L139.29,75.54z"/>
		</g>
	</g>
	<g>
		<g>
			<path d="M124.7,69.84c-0.16,0.53-0.32,1.06-0.48,1.59c-0.23,0.78,0.94,1.08,1.21,0.33c0.25-0.5,0.49-0.99,0.74-1.49
				c-0.39-0.11-0.78-0.21-1.16-0.32c-0.03,0.44-0.06,0.88-0.08,1.32c-0.16,0.79,0.94,1.09,1.21,0.33c0.45-0.79,0.9-1.58,1.35-2.38
				c-0.33-0.25-0.65-0.5-0.98-0.76c-0.36,0.86-0.79,1.68-1.3,2.46c-0.41,0.69,0.67,1.32,1.08,0.63c0.59-1.13,1.35-2.16,2.26-3.07
				c-0.35-0.2-0.7-0.41-1.04-0.61c-0.4,0.58-0.8,1.16-1.2,1.75c0.33,0.25,0.65,0.5,0.98,0.76c0.68-1.47,1.59-2.6,2.81-3.66
				c-0.33-0.25-0.65-0.5-0.98-0.76c-0.42,0.76-2.81,3.28-3.05,2.34c-0.2-0.81,2.56-3.12,3.07-3.59c0.52-0.47-0.17-1.39-0.76-0.98
				c-0.6,0.46-1.25,0.86-1.93,1.19c0.29,0.29,0.57,0.57,0.86,0.86c1.02-1.38,3.31-2.34,4.75-3.26c0.68-0.43,0.08-1.47-0.63-1.08
				c-0.57,0.31-1.13,0.62-1.7,0.94c-0.71,0.39-0.08,1.45,0.63,1.08c0.86-0.51,1.78-0.83,2.76-0.96c0.47-0.1,0.6-0.73,0.28-1.04
				c-0.47-0.46-0.59-0.49-1.26-0.5c0.06,0.41,0.11,0.82,0.17,1.23c3.09-0.92,9.33-0.95,11.38,2.23c0.33-0.25,0.65-0.5,0.98-0.76
				c-0.27-0.24-0.54-0.49-0.81-0.73c-0.43-0.39-1-0.09-1.07,0.44c-0.11,0.49-0.22,0.99-0.33,1.48c0.35-0.09,0.7-0.18,1.04-0.28
				c-0.42-0.5-0.83-1-1.25-1.51c-0.4-0.49-1.22,0.04-1.04,0.61c0.21,0.68,0.42,1.37,0.63,2.05c0.35-0.2,0.7-0.41,1.04-0.61
				c-0.3-0.44-0.6-0.87-0.9-1.31c-0.36,0.21-0.72,0.42-1.08,0.63c0.59,0.9,0.49,0.79,1.27,1.55c0.48,0.48,1.13-0.03,1.04-0.61
				c-0.08-0.53-0.15-1.06-0.23-1.59c-0.4,0.11-0.8,0.22-1.21,0.33c0.24,0.58,0.48,1.16,0.72,1.74c0.3,0.72,1.5,0.43,1.21-0.33
				c-0.19-0.49-0.37-0.98-0.56-1.47c-0.38,0.16-0.76,0.32-1.14,0.48c0.18,0.35,0.35,0.69,0.53,1.04c0.33,0.64,1.32,0.19,1.14-0.48
				c-0.11-0.42-0.22-0.84-0.33-1.26c-0.17-0.66-1.31-0.55-1.23,0.17c0.07,0.62,0.14,1.23,0.21,1.85c0.41-0.06,0.82-0.11,1.23-0.17
				c-0.29-0.82-0.58-1.63-0.87-2.45c-0.27-0.75-1.39-0.46-1.21,0.33c0.28,1.19,0.24,1.03,0.73,2.16c0.31,0.71,1.24,0.15,1.14-0.48
				c-0.08-0.79-0.24-1.57-0.46-2.34c-0.4,0.11-0.8,0.22-1.21,0.33c0.21,0.51,0.43,1.03,0.64,1.54c0.38-0.16,0.76-0.32,1.14-0.48
				c-0.21-0.66-0.54-1.26-0.97-1.8c-0.32-0.49-1.19-0.34-1.16,0.32c0.05,1.62,0.03,1.37,0.31,2.97c0.38-0.16,0.76-0.32,1.14-0.48
				c-0.44-0.99-0.88-1.98-1.32-2.97c-0.31-0.7-1.25-0.16-1.14,0.48c0.22,1.32,0.5,2.56,0.86,3.85c0.38-0.16,0.76-0.32,1.14-0.48
				c-0.45-0.94-0.9-1.87-1.34-2.81c-0.32-0.67-1.27-0.17-1.14,0.48c0.15,0.92,0.36,1.83,0.62,2.72c0.4-0.11,0.8-0.22,1.21-0.33
				c-0.35-0.87-0.7-1.75-1.06-2.62c-0.25-0.63-1.2-0.58-1.23,0.17c-0.06,1.65-0.12,1.12,0.31,2.72c0.4-0.11,0.8-0.22,1.21-0.33
				c-0.34-0.99-0.73-1.91-1.21-2.85c-0.24-0.47-1.03-0.37-1.14,0.15c-0.27,1.27-0.25,2.17,0.08,3.41c0.2,0.78,1.39,0.45,1.21-0.33
				c-0.17-0.92-0.43-1.81-0.79-2.67c-0.22-0.63-1.28-0.58-1.23,0.17c0.11,1.73,0.02,1.24,0.5,2.92c0.19,0.67,1.25,0.55,1.23-0.17
				c0.01-0.74-0.05-1.48-0.18-2.21c-0.42,0-0.83,0-1.25,0c0.08,0.6,0.16,1.2,0.24,1.8c0.05,0.36,0.37,0.77,0.79,0.6
				c0.61-0.23,1.22-0.47,1.82-0.7c-0.24-0.31-0.47-0.61-0.71-0.92c-0.51,0.93-1.04,1.74-1.68,2.58c-0.43,0.56,0.51,1.28,0.98,0.76
				c0.29-0.32,0.57-0.63,0.86-0.95c-0.33-0.25-0.65-0.5-0.98-0.76c-0.2,0.26-0.4,0.53-0.6,0.79c0.36,0.21,0.72,0.42,1.08,0.63
				c0.32-0.67,0.64-1.34,0.97-2.02c0.3-0.64-0.44-1.25-0.98-0.76c-0.21,0.19-0.42,0.37-0.63,0.56c0.35,0.2,0.7,0.41,1.04,0.61
				c0.18-0.6,0.36-1.19,0.55-1.79c0.15-0.5-0.47-1.02-0.92-0.71c-1.26,0.87-2.51,1.75-3.77,2.62c0.21,0.36,0.42,0.72,0.63,1.08
				c0.64-0.45,1.28-0.89,1.91-1.34c0.65-0.45,0.08-1.49-0.63-1.08c-1.14,0.67-2.25,1.22-3.47,1.73c0.21,0.36,0.42,0.72,0.63,1.08
				c0.81-0.32,1.55-0.77,2.21-1.34c0.52-0.38,0.24-1.4-0.48-1.14c-1.49,0.54-2.98,1.07-4.47,1.61c0.16,0.38,0.32,0.76,0.48,1.14
				c1.55-0.92,3.1-1.84,4.65-2.75c0.69-0.41,0.07-1.48-0.63-1.08c-1.44,0.82-2.88,1.64-4.32,2.46c-0.6,0.34-0.2,1.38,0.48,1.14
				c1.86-0.64,3.61-1.37,5.37-2.24c-0.21-0.36-0.42-0.72-0.63-1.08c-1.91,1.16-3.82,2.33-5.73,3.49c-0.7,0.43-0.09,1.4,0.63,1.08
				c2.12-0.95,4.19-1.96,6.24-3.04c0.65-0.34,0.19-1.29-0.48-1.14c-1.41,0.31-2.76,0.67-4.14,1.11c0.2,0.35,0.41,0.7,0.61,1.04
				c1.36-1.07,2.73-2.13,4.09-3.2c0.59-0.46-0.16-1.27-0.76-0.98c-2.12,1.04-4.25,2.08-6.37,3.12c0.25,0.33,0.5,0.65,0.76,0.98
				c1.04-0.94,2.07-1.87,3.11-2.81c0.53-0.48-0.15-1.33-0.76-0.98c-1.23,0.72-2.47,1.44-3.7,2.16c0.21,0.36,0.42,0.72,0.63,1.08
				c1.09-0.82,2.18-1.63,3.28-2.45c-0.25-0.33-0.5-0.65-0.76-0.98c-0.79,0.92-1.71,1.7-2.75,2.34c0.25,0.33,0.5,0.65,0.76,0.98
				c0.8-0.84,1.59-1.56,2.5-2.28c-0.29-0.29-0.59-0.59-0.88-0.88c-0.86,1.08-1.71,1.96-2.75,2.88c0.29,0.29,0.59,0.59,0.88,0.88
				c0.81-0.86,1.63-1.66,2.52-2.44c-0.35-0.2-0.7-0.41-1.04-0.61c-0.36,0.65-0.72,1.3-1.08,1.94c-0.42,0.58,0.5,1.27,0.98,0.76
				c0.32-0.34,0.63-0.68,0.95-1.02c0.47-0.5-0.14-1.38-0.76-0.98c-0.64,0.49-1.34,0.87-2.1,1.14c0.21,0.36,0.42,0.72,0.63,1.08
				c0.36-0.26,0.71-0.52,1.07-0.78c0.64-0.47,0.04-1.54-0.63-1.08c-2.25,1.55-5.05,1.82-7.34,3.31c0.29,0.29,0.57,0.57,0.86,0.86
				c0.96-1.85,3.06-2.69,4.54-4.09c0.59-0.56-0.28-1.4-0.88-0.88c-1.04,0.88-2.09,1.76-3.13,2.65c0.29,0.29,0.59,0.59,0.88,0.88
				c1.08-1.21,2.17-2.43,3.25-3.64c0.54-0.6-0.28-1.41-0.88-0.88c-0.8,0.7-1.61,1.4-2.41,2.09c0.33,0.25,0.65,0.5,0.98,0.76
				c0.52-0.79,1.12-1.52,1.79-2.18c0.55-0.59-0.31-1.45-0.88-0.88c-0.68,0.67-1.36,1.33-2.03,2c0.33,0.25,0.65,0.5,0.98,0.76
				c0.45-0.53,0.9-1.06,1.36-1.59c-0.29-0.29-0.59-0.59-0.88-0.88c-0.71,0.76-1.42,1.42-2.23,2.08c0.29,0.29,0.59,0.59,0.88,0.88
				c0.6-0.62,1.22-1.21,1.88-1.77c-0.29-0.29-0.59-0.59-0.88-0.88c-0.84,0.87-1.67,1.75-2.51,2.62c-0.57,0.59,0.27,1.38,0.88,0.88
				c1.02-0.85,2.07-1.66,3.15-2.44c-0.29-0.29-0.57-0.57-0.86-0.86c-0.38,0.77-0.86,1.49-1.43,2.14c-0.41,0.54,0.36,1.1,0.86,0.86
				c1.36-0.68,2.74-1.27,4.18-1.77c-0.24-0.31-0.47-0.61-0.71-0.92c-0.3,0.62-0.6,1.24-0.9,1.86c-0.27,0.56,0.28,1.16,0.86,0.86
				c1.07-0.57,2.06-1.17,3.07-1.85c-0.25-0.33-0.5-0.65-0.76-0.98c-0.86,0.86-1.82,1.55-2.91,2.07c0.31,0.24,0.61,0.47,0.92,0.71
				c0.1-0.49,0.2-0.98,0.29-1.47c0.1-0.5-0.43-1.03-0.92-0.71c-0.77,0.51-1.53,1.01-2.3,1.52c0.25,0.33,0.5,0.65,0.76,0.98
				c0.65-0.55,1.3-1.09,1.95-1.64c-0.29-0.29-0.59-0.59-0.88-0.88c-0.61,0.56-1.22,1.12-1.83,1.69c0.29,0.29,0.59,0.59,0.88,0.88
				c0.68-0.61,1.3-1.27,1.87-1.99c-0.29-0.29-0.59-0.59-0.88-0.88c-0.18,0.23-0.36,0.46-0.54,0.7c0.33,0.25,0.65,0.5,0.98,0.76
				c0.53-1.02,1.21-1.93,2.03-2.75c0.54-0.6-0.29-1.42-0.88-0.88c-0.66,0.6-1.32,1.19-1.98,1.79c0.29,0.29,0.59,0.59,0.88,0.88
				c0.7-0.67,0.64-0.6,1.18-1.4c0.3-0.44-0.2-1.09-0.71-0.92c-1.11,0.38-1.05,0.35-2.08,0.88c0.25,0.33,0.5,0.65,0.76,0.98
				c0.69-0.6,1.39-1.21,2.08-1.81c0.53-0.46-0.17-1.38-0.76-0.98c-0.99,0.66-1.16,0.79-2.09,1.53c0.29,0.29,0.59,0.59,0.88,0.88
				c0.62-0.47,1.2-0.97,1.75-1.51c0.55-0.5-0.15-1.29-0.76-0.98c-0.78,0.33-1.5,0.75-2.17,1.27c0.25,0.33,0.5,0.65,0.76,0.98
				c0.44-0.36,0.88-0.72,1.32-1.08c0.47-0.38-0.04-1.28-0.61-1.04c-0.64,0.26-0.77,0.33-1.15,0.89c-0.37,0.55,0.34,1.13,0.86,0.86
				c0.69-0.28,1.37-0.57,2.06-0.85c-0.26-0.2-0.53-0.4-0.79-0.6c0.14,0.74,0.16,1.49,0.05,2.23c-0.02,0.41,0.42,0.71,0.79,0.6
				c1.04-0.3,1.82-0.64,2.72-1.26c0.66-0.45,0.03-1.54-0.63-1.08c-0.71,0.58-1.51,0.95-2.42,1.13c0.26,0.2,0.53,0.4,0.79,0.6
				c0.11-0.75,0.09-1.49-0.05-2.23c-0.04-0.38-0.37-0.73-0.79-0.6c-1.36,0.42-1.11,0.32-2.36,0.97c0.29,0.29,0.57,0.57,0.86,0.86
				c0.13-0.11,0.27-0.21,0.4-0.32c-0.2-0.35-0.41-0.7-0.61-1.04c-0.44,0.36-0.88,0.72-1.32,1.08c-0.55,0.45,0.17,1.38,0.76,0.98
				c0.66-0.52,1.39-0.95,2.17-1.27c-0.25-0.33-0.5-0.65-0.76-0.98c-0.55,0.54-1.14,1.04-1.75,1.51c-0.63,0.51,0.26,1.38,0.88,0.88
				c0.61-0.45,1.23-0.89,1.84-1.34c-0.25-0.33-0.5-0.65-0.76-0.98c-0.69,0.6-1.39,1.21-2.08,1.81c-0.56,0.48,0.15,1.3,0.76,0.98
				c0.6-0.25,1.19-0.5,1.79-0.76c-0.24-0.31-0.47-0.61-0.71-0.92c-0.33,0.38-0.65,0.76-0.98,1.14c-0.59,0.56,0.29,1.42,0.88,0.88
				c0.66-0.6,1.32-1.19,1.98-1.79c-0.29-0.29-0.59-0.59-0.88-0.88c-0.86,0.96-1.56,1.88-2.23,3c-0.35,0.59,0.54,1.33,0.98,0.76
				c0.18-0.23,0.36-0.46,0.54-0.7c0.48-0.62-0.35-1.5-0.88-0.88c-0.57,0.71-1.19,1.38-1.87,1.99c-0.58,0.57,0.29,1.43,0.88,0.88
				c0.61-0.56,1.22-1.12,1.83-1.69c0.6-0.55-0.28-1.4-0.88-0.88c-0.65,0.55-1.3,1.09-1.95,1.64c-0.54,0.46,0.17,1.37,0.76,0.98
				c0.77-0.51,1.53-1.01,2.3-1.52c-0.31-0.24-0.61-0.47-0.92-0.71c-0.1,0.49-0.2,0.98-0.29,1.47c-0.11,0.53,0.42,0.98,0.92,0.71
				c1.19-0.67,2.16-1.35,3.16-2.26c0.52-0.47-0.17-1.38-0.76-0.98c-1.01,0.68-2,1.28-3.07,1.85c0.29,0.29,0.57,0.57,0.86,0.86
				c0.3-0.62,0.6-1.24,0.9-1.86c0.22-0.45-0.15-1.11-0.71-0.92c-1.55,0.54-3.01,1.16-4.48,1.9c0.29,0.29,0.57,0.57,0.86,0.86
				c0.57-0.65,1.04-1.37,1.43-2.14c0.29-0.5-0.33-1.24-0.86-0.86c-1.15,0.86-2.28,1.73-3.4,2.64c0.29,0.29,0.59,0.59,0.88,0.88
				c0.84-0.87,1.67-1.75,2.51-2.62c0.56-0.58-0.29-1.42-0.88-0.88c-0.65,0.56-1.28,1.16-1.88,1.77c-0.58,0.58,0.27,1.38,0.88,0.88
				c0.81-0.66,1.52-1.32,2.23-2.08c0.55-0.59-0.33-1.47-0.88-0.88c-0.83,0.87-0.84,0.89-1.55,1.84c-0.43,0.58,0.49,1.24,0.98,0.76
				c0.68-0.67,1.36-1.33,2.03-2c-0.29-0.29-0.59-0.59-0.88-0.88c-0.73,0.78-1.37,1.56-1.99,2.43c-0.43,0.61,0.48,1.2,0.98,0.76
				c0.8-0.7,1.61-1.4,2.41-2.09c-0.29-0.29-0.59-0.59-0.88-0.88c-1.08,1.21-2.17,2.43-3.25,3.64c-0.54,0.61,0.27,1.4,0.88,0.88
				c1.04-0.88,2.09-1.76,3.13-2.65c-0.29-0.29-0.59-0.59-0.88-0.88c-1.6,1.51-3.7,2.32-4.74,4.34c-0.27,0.52,0.3,1.21,0.86,0.86
				c2.29-1.49,5.08-1.75,7.34-3.31c-0.21-0.36-0.42-0.72-0.63-1.08c-0.36,0.26-0.71,0.52-1.07,0.78c-0.65,0.48-0.11,1.41,0.63,1.08
				c0.76-0.27,1.46-0.65,2.1-1.14c-0.25-0.33-0.5-0.65-0.76-0.98c-0.32,0.34-0.63,0.68-0.95,1.02c0.33,0.25,0.65,0.5,0.98,0.76
				c0.89-1.23,0.67-0.85,1.21-2.24c0.24-0.63-0.62-0.98-1.04-0.61c-0.89,0.78-1.71,1.58-2.52,2.44c-0.56,0.59,0.28,1.41,0.88,0.88
				c1.04-0.91,1.89-1.8,2.75-2.88c0.51-0.63-0.25-1.39-0.88-0.88c-0.9,0.72-1.7,1.44-2.5,2.28c-0.47,0.49,0.15,1.4,0.76,0.98
				c1.12-0.77,2.05-1.55,3-2.53c0.47-0.49-0.17-1.42-0.76-0.98c-1.09,0.82-2.18,1.63-3.28,2.45c-0.63,0.47-0.08,1.5,0.63,1.08
				c1.23-0.72,2.47-1.44,3.7-2.16c-0.25-0.33-0.5-0.65-0.76-0.98c-1.04,0.94-2.07,1.87-3.11,2.81c-0.55,0.5,0.15,1.28,0.76,0.98
				c2.12-1.04,4.25-2.08,6.37-3.12c-0.25-0.33-0.5-0.65-0.76-0.98c-1.36,1.07-2.73,2.13-4.09,3.2c-0.5,0.39,0.04,1.22,0.61,1.04
				c1.38-0.44,2.73-0.8,4.14-1.11c-0.16-0.38-0.32-0.76-0.48-1.14c-2.05,1.08-4.13,2.09-6.24,3.04c0.21,0.36,0.42,0.72,0.63,1.08
				c1.91-1.16,3.82-2.33,5.73-3.49c0.69-0.42,0.09-1.43-0.63-1.08c-1.65,0.81-3.33,1.51-5.07,2.11c0.16,0.38,0.32,0.76,0.48,1.14
				c1.44-0.82,2.88-1.64,4.32-2.46c-0.21-0.36-0.42-0.72-0.63-1.08c-1.55,0.92-3.1,1.84-4.65,2.75c-0.59,0.35-0.2,1.39,0.48,1.14
				c1.49-0.54,2.98-1.07,4.47-1.61c-0.16-0.38-0.32-0.76-0.48-1.14c-0.66,0.58-1.39,1.03-2.21,1.34c-0.74,0.37-0.09,1.38,0.63,1.08
				c1.22-0.52,2.33-1.07,3.47-1.73c-0.21-0.36-0.42-0.72-0.63-1.08c-0.64,0.45-1.28,0.89-1.91,1.34c-0.65,0.46-0.03,1.54,0.63,1.08
				c1.26-0.87,2.51-1.75,3.77-2.62c-0.31-0.24-0.61-0.47-0.92-0.71c-0.18,0.6-0.36,1.19-0.55,1.79c-0.19,0.63,0.6,1.01,1.04,0.61
				c0.21-0.19,0.42-0.37,0.63-0.56c-0.33-0.25-0.65-0.5-0.98-0.76c-0.32,0.67-0.64,1.34-0.97,2.02c-0.35,0.74,0.6,1.26,1.08,0.63
				c0.2-0.26,0.4-0.53,0.6-0.79c0.43-0.56-0.51-1.28-0.98-0.76c-0.29,0.32-0.57,0.63-0.86,0.95c0.33,0.25,0.65,0.5,0.98,0.76
				c0.64-0.84,1.17-1.65,1.68-2.58c0.24-0.44-0.17-1.13-0.71-0.92c-0.61,0.23-1.22,0.47-1.82,0.7c0.26,0.2,0.53,0.4,0.79,0.6
				c-0.08-0.6-0.16-1.2-0.24-1.8c-0.11-0.78-1.35-0.8-1.25,0c0.13,0.73,0.19,1.47,0.18,2.21c0.41-0.06,0.82-0.11,1.23-0.17
				c-0.15-0.86-0.3-1.72-0.45-2.59c-0.41,0.06-0.82,0.11-1.23,0.17c0.36,0.86,0.62,1.75,0.79,2.67c0.4-0.11,0.8-0.22,1.21-0.33
				c-0.03-0.92-0.05-1.83-0.08-2.75c-0.38,0.05-0.76,0.1-1.14,0.15c0.46,0.81,0.82,1.66,1.09,2.55c0.26,0.75,1.41,0.45,1.21-0.33
				c-0.09-0.79-0.17-1.59-0.26-2.38c-0.41,0.06-0.82,0.11-1.23,0.17c0.35,0.87,0.7,1.75,1.06,2.62c0.29,0.73,1.41,0.47,1.21-0.33
				c-0.26-0.9-0.47-1.8-0.62-2.72c-0.38,0.16-0.76,0.32-1.14,0.48c0.45,0.94,0.9,1.87,1.34,2.81c0.31,0.65,1.33,0.19,1.14-0.48
				c-0.36-1.29-0.64-2.53-0.86-3.85c-0.38,0.16-0.76,0.32-1.14,0.48c0.44,0.99,0.88,1.98,1.32,2.97c0.31,0.69,1.26,0.16,1.14-0.48
				c-0.09-0.88-0.18-1.76-0.27-2.64c-0.39,0.11-0.78,0.21-1.16,0.32c0.43,0.54,0.76,1.14,0.97,1.8c0.27,0.64,1.42,0.17,1.14-0.48
				c-0.21-0.51-0.43-1.03-0.64-1.54c-0.3-0.72-1.4-0.47-1.21,0.33c0.22,0.76,0.38,1.54,0.46,2.34c0.38-0.16,0.76-0.32,1.14-0.48
				c-0.2-0.62-0.4-1.24-0.6-1.86c-0.4,0.11-0.8,0.22-1.21,0.33c0.29,0.82,0.58,1.63,0.87,2.45c0.22,0.61,1.31,0.58,1.23-0.17
				c-0.07-0.62-0.14-1.23-0.21-1.85c-0.41,0.06-0.82,0.11-1.23,0.17c0.11,0.42,0.22,0.84,0.33,1.26c0.38-0.16,0.76-0.32,1.14-0.48
				c-0.18-0.35-0.35-0.69-0.53-1.04c-0.32-0.62-1.4-0.19-1.14,0.48c0.19,0.49,0.37,0.98,0.56,1.47c0.4-0.11,0.8-0.22,1.21-0.33
				c-0.24-0.58-0.48-1.16-0.72-1.74c-0.31-0.75-1.32-0.47-1.21,0.33c0.08,0.53,0.15,1.06,0.23,1.59c0.35-0.2,0.7-0.41,1.04-0.61
				c-0.36-0.43-0.72-0.87-1.07-1.3c-0.44-0.67-1.48-0.08-1.08,0.63c0.48,0.85,0.46,0.8,1.09,1.56c0.41,0.49,1.22-0.03,1.04-0.61
				c-0.21-0.68-0.42-1.37-0.63-2.05c-0.35,0.2-0.7,0.41-1.04,0.61c0.42,0.5,0.83,1,1.25,1.51c0.31,0.38,0.92,0.14,1.04-0.28
				c0.26-0.87,0.26-0.91,0.37-1.81c-0.36,0.15-0.71,0.29-1.07,0.44c0.27,0.24,0.54,0.49,0.81,0.73c0.5,0.46,1.38-0.13,0.98-0.76
				c-2.4-3.72-8.99-3.94-12.79-2.81c-0.67,0.2-0.55,1.22,0.17,1.23c0.12,0.04,0.25,0.09,0.37,0.13c0.09-0.35,0.18-0.7,0.28-1.04
				c-1.14,0.23-2.04,0.56-3.06,1.09c0.21,0.36,0.42,0.72,0.63,1.08c0.57-0.31,1.13-0.62,1.7-0.94c-0.21-0.36-0.42-0.72-0.63-1.08
				c-1.73,1.1-3.96,2.03-5.19,3.71c-0.39,0.53,0.35,1.13,0.86,0.86c0.69-0.33,1.33-0.72,1.93-1.19c-0.25-0.33-0.5-0.65-0.76-0.98
				c-1.01,0.92-4.97,4.36-3.71,6.04c0.17,0.23,0.41,0.36,0.71,0.29c2.18-0.56,3.82-1.58,4.94-3.57c0.36-0.64-0.45-1.21-0.98-0.76
				c-1.37,1.18-2.25,2.28-3.01,3.91c-0.29,0.63,0.44,1.25,0.98,0.76c0.78-0.71,1.18-1.31,1.52-2.3c0.2-0.59-0.63-1.06-1.04-0.61
				c-0.95,1.06-1.72,2.09-2.45,3.32c0.36,0.21,0.72,0.42,1.08,0.63c0.51-0.78,0.94-1.6,1.3-2.46c0.28-0.59-0.5-1.35-0.98-0.76
				c-0.78,0.95-1.27,1.78-1.67,2.93c0.4,0.11,0.8,0.22,1.21,0.33c0.17-0.86,0.18-0.78,0.13-1.65c-0.04-0.62-0.82-0.85-1.16-0.32
				c-0.59,0.92-0.51,0.76-0.87,1.79c0.4,0.11,0.8,0.22,1.21,0.33c0.16-0.53,0.32-1.06,0.48-1.59
				C126.14,69.4,124.93,69.07,124.7,69.84L124.7,69.84z"/>
		</g>
	</g>
	<g>
		<g>
			<path d="M132.67,62.01c-0.14,0.32-0.18,0.5-0.09,0.84c0.13,0.47,0.92,0.66,1.14,0.15c0.08-0.18,0.15-0.36,0.23-0.54
				c-0.39-0.11-0.78-0.21-1.16-0.32c-0.02,0.58-0.01,0.6,0.15,1.16c0.18,0.62,1,0.57,1.21,0c0.1-0.28,0.2-0.56,0.3-0.84
				c-0.41-0.06-0.82-0.11-1.23-0.17c0.01,0.41,0,0.79-0.03,1.2c-0.06,0.73,1.02,0.81,1.23,0.17c0.18-0.56,0.3-1.07,0.39-1.64
				c-0.41-0.06-0.82-0.11-1.23-0.17c0.07,0.68,0.13,1.36,0.2,2.04c0.08,0.79,1.2,0.81,1.25,0c0.03-0.55,0.07-1.1,0.1-1.65
				c-0.41,0.06-0.82,0.11-1.23,0.17c0.14,0.45,0.19,0.92,0.14,1.38c-0.02,0.61,0.87,0.86,1.16,0.32c0.31-0.58,0.52-1.14,0.64-1.78
				c-0.4,0-0.8,0-1.21,0c0.11,0.63,0.22,1.26,0.33,1.88c0.11,0.65,1.03,0.53,1.21,0c0.16-0.48,0.33-0.96,0.49-1.45
				c-0.4,0-0.8,0-1.21,0c0.14,0.6,0.19,1.17,0.18,1.78c-0.02,0.7,1.05,0.85,1.23,0.17c0.17-0.68,0.35-1.35,0.52-2.03
				c-0.41-0.06-0.82-0.11-1.23-0.17c0.09,0.73,0.08,1.4-0.01,2.12c-0.1,0.8,1.15,0.79,1.25,0c0.09-0.7,0.18-1.4,0.27-2.1
				c-0.42,0-0.83,0-1.25,0c0.02,0.65,0,1.27-0.09,1.92c0.42,0,0.83,0,1.25,0c0.02-0.57,0.12-0.95,0.31-1.46
				c-0.38,0.05-0.76,0.1-1.14,0.15c0.28,0.5,0.47,0.94,0.93,1.27c0.21,0.15,0.58,0.09,0.76-0.1c0.36-0.4,0.44-0.89,0.6-1.41
				c-0.35,0.09-0.7,0.18-1.04,0.28c0.19,0.22,0.37,0.44,0.56,0.67c0.28,0.33,0.77,0.17,0.98-0.13c0.25-0.36,0.42-0.7,0.58-1.11
				c-0.38,0.05-0.76,0.1-1.14,0.15c0.21,0.24,0.37,0.5,0.48,0.8c0.2,0.41,0.88,0.4,1.08,0c0.08-0.16,0.16-0.33,0.25-0.49
				c-0.39-0.11-0.78-0.21-1.16-0.32c-0.03,0.28-0.02,0.57,0.03,0.85c0.06,0.55,0.86,0.93,1.16,0.32c0.21-0.43,0.26-0.61,0.31-1.09
				c-0.41,0.06-0.82,0.11-1.23,0.17c0.03,0.13,0.06,0.26,0.08,0.4c0.16,0.72,1.18,0.51,1.23-0.17c0.04-0.57-0.07-0.98-0.3-1.5
				c-0.28-0.64-1.1-0.21-1.16,0.32c-0.07,0.56-0.07,0.52,0.13,1.06c0.24,0.65,1.2,0.56,1.23-0.17c0.02-0.49-0.04-0.86-0.23-1.32
				c-0.24-0.59-0.96-0.59-1.21,0c-0.11,0.27-0.23,0.55-0.34,0.82c0.38-0.05,0.76-0.1,1.14-0.15c-0.75-1.19-2.01-1.94-2.88-0.39
				c0.39,0.11,0.78,0.21,1.16,0.32c0.02-0.18,0.03-0.35,0.05-0.53c0.06-0.73-1.02-0.81-1.23-0.17c-0.1,0.32-0.21,0.65-0.31,0.97
				c0.41,0.06,0.82,0.11,1.23,0.17c0.02-0.24,0.05-0.47,0.07-0.71c0.05-0.47-0.57-0.79-0.94-0.54c-0.14,0.09-0.26,0.25-0.38,0.33
				c0.17,0.02,0.33,0.05,0.5,0.07c-0.17-0.31-0.34-0.63-0.51-0.94c-0.18-0.32-0.73-0.44-0.98-0.13c-0.4,0.51-0.65,0.94-0.81,1.57
				c-0.17,0.66,0.82,1.14,1.14,0.48c0.18-0.37,0.24-0.57,0.28-0.98c0.07-0.65-0.86-0.8-1.16-0.32c-0.14,0.23-0.28,0.46-0.42,0.68
				c0.39,0.11,0.78,0.21,1.16,0.32c-0.04-1.59-1.44-1.15-2.22-0.34c-0.55,0.58,0.33,1.47,0.88,0.88c0.03-0.18,0.05-0.36,0.08-0.55
				c0.02,0.62,0.84,0.84,1.16,0.32c0.14-0.23,0.28-0.46,0.42-0.68c-0.39-0.11-0.78-0.21-1.16-0.32c-0.04,0.12-0.07,0.23-0.11,0.35
				c0.38,0.16,0.76,0.32,1.14,0.48c0.16-0.34,0.32-0.68,0.49-1.01c-0.33-0.04-0.65-0.08-0.98-0.13c0.27,0.5,0.52,1.34,1.19,1.45
				c0.47,0.07,0.57-0.24,0.91-0.46c-0.31-0.18-0.63-0.36-0.94-0.54c-0.02,0.24-0.05,0.47-0.07,0.71c-0.07,0.73,1.02,0.81,1.23,0.17
				c0.1-0.32,0.21-0.65,0.31-0.97c-0.41-0.06-0.82-0.11-1.23-0.17c-0.02,0.18-0.03,0.35-0.05,0.53c-0.06,0.63,0.88,0.83,1.16,0.32
				c0.38-0.09,0.62,0.03,0.73,0.39c0.31,0.49,0.94,0.33,1.14-0.15c0.11-0.27,0.23-0.55,0.34-0.82c-0.4,0-0.8,0-1.21,0
				c0.17,0.3,0.23,0.63,0.18,0.98c0.41-0.06,0.82-0.11,1.23-0.17c-0.03-0.24-0.05-0.48-0.08-0.73c-0.39,0.11-0.78,0.21-1.16,0.32
				c0.04,0.29,0.08,0.58,0.12,0.87c0.41-0.06,0.82-0.11,1.23-0.17c-0.03-0.13-0.06-0.26-0.08-0.4c-0.16-0.74-1.16-0.49-1.23,0.17
				c-0.05,0.15-0.09,0.3-0.14,0.46c0.39,0.11,0.78,0.21,1.16,0.32c-0.05-0.28-0.06-0.56-0.03-0.85c0.02-0.61-0.88-0.87-1.16-0.32
				c-0.08,0.16-0.16,0.33-0.25,0.49c0.36,0,0.72,0,1.08,0c-0.11-0.3-0.27-0.56-0.48-0.8c-0.33-0.45-0.94-0.37-1.14,0.15
				c-0.11,0.3-0.26,0.57-0.46,0.81c0.33-0.04,0.65-0.08,0.98-0.13c-0.19-0.22-0.37-0.44-0.56-0.67c-0.32-0.38-0.92-0.14-1.04,0.28
				c-0.08,0.29-0.17,0.57-0.28,0.85c0.25-0.03,0.5-0.07,0.76-0.1c-0.17-0.27-0.33-0.54-0.48-0.82c-0.28-0.51-0.96-0.33-1.14,0.15
				c-0.23,0.59-0.33,1.16-0.36,1.79c-0.03,0.83,1.15,0.77,1.25,0c0.08-0.65,0.11-1.27,0.09-1.92c-0.03-0.83-1.15-0.78-1.25,0
				c-0.09,0.7-0.18,1.4-0.27,2.1c0.42,0,0.83,0,1.25,0c0.09-0.73,0.09-1.4,0.01-2.12c-0.08-0.65-1.04-0.9-1.23-0.17
				c-0.17,0.68-0.35,1.35-0.52,2.03c0.41,0.06,0.82,0.11,1.23,0.17c0.02-0.73-0.06-1.4-0.22-2.12c-0.15-0.64-1.02-0.55-1.21,0
				c-0.16,0.48-0.33,0.96-0.49,1.45c0.4,0,0.8,0,1.21,0c-0.11-0.63-0.22-1.26-0.33-1.88c-0.1-0.6-1.09-0.59-1.21,0
				c-0.11,0.57-0.24,0.96-0.52,1.48c0.39,0.11,0.78,0.21,1.16,0.32c0.02-0.61-0.04-1.13-0.18-1.72c-0.17-0.71-1.19-0.51-1.23,0.17
				c-0.03,0.55-0.07,1.1-0.1,1.65c0.42,0,0.83,0,1.25,0c-0.07-0.68-0.13-1.36-0.2-2.04c-0.06-0.64-1.11-0.92-1.23-0.17
				c-0.09,0.58-0.21,1.09-0.39,1.64c0.41,0.06,0.82,0.11,1.23,0.17c0.03-0.41,0.05-0.79,0.03-1.2c-0.02-0.72-0.99-0.82-1.23-0.17
				c-0.1,0.28-0.2,0.56-0.3,0.84c0.4,0,0.8,0,1.21,0c-0.04-0.28-0.07-0.55-0.11-0.83c0.02-0.59-0.91-0.9-1.16-0.32
				c-0.08,0.18-0.15,0.36-0.23,0.54c0.38,0.05,0.76,0.1,1.14,0.15c-0.01,0.04-0.02,0.08-0.04,0.13
				C134.07,61.91,133,61.28,132.67,62.01L132.67,62.01z"/>
		</g>
	</g>
	<g>
		<g>
			<path d="M132.41,82.95c-0.21-0.92-0.25-2.19-1.31-2.51c-0.37-0.11-0.81,0.2-0.79,0.6c0.05,0.94,0.3,1.81,0.73,2.65
				c0.25,0.48,1.01,0.36,1.14-0.15c0.15-0.59,0.21-1.16,0.17-1.77c-0.36,0.15-0.71,0.29-1.07,0.44c0.22,0.29,0.13,1.07,0.2,1.42
				c0.1,0.5,0.31,0.97,0.55,1.41c0.29-0.29,0.57-0.57,0.86-0.86c-0.11-0.06-0.24-0.84-0.36-1c-0.38-0.51-1.42-0.24-1.14,0.48
				c0.25,0.66,0.68,1.13,1.33,1.43c0.45,0.21,0.89-0.05,0.94-0.54c0.04-0.36-0.07-0.68-0.25-0.98c-0.11-0.2-0.57-0.65-0.52-0.89
				c-0.41-0.06-0.82-0.11-1.23-0.17c0.01,0.72,0.02,1.43,0.03,2.15c0.39-0.11,0.78-0.21,1.16-0.32c-0.41-0.72-0.62-1.47-0.6-2.3
				c0.01-0.8-1.24-0.8-1.25,0c-0.02,1.05,0.25,2.02,0.77,2.93c0.31,0.54,1.17,0.3,1.16-0.32c-0.01-0.72-0.02-1.43-0.03-2.15
				c-0.01-0.69-1.07-0.87-1.23-0.17c-0.09,0.41-0.03,0.77,0.17,1.14c0.18,0.34,0.6,0.67,0.56,1.07c0.31-0.18,0.63-0.36,0.94-0.54
				c-0.33-0.15-0.62-0.33-0.76-0.68c-0.38,0.16-0.76,0.32-1.14,0.48c0.38,0.5,0.14,1.08,0.81,1.45c0.55,0.3,1.16-0.3,0.86-0.86
				c-0.34-0.61-0.43-1.15-0.49-1.84c-0.04-0.5-0.15-0.85-0.45-1.24c-0.33-0.43-1.1-0.07-1.07,0.44c0.03,0.5,0,0.95-0.13,1.43
				c0.38-0.05,0.76-0.1,1.14-0.15c-0.33-0.64-0.52-1.3-0.56-2.02c-0.26,0.2-0.53,0.4-0.79,0.6c0.22,0.07,0.38,1.4,0.43,1.64
				C131.39,84.06,132.59,83.73,132.41,82.95L132.41,82.95z"/>
		</g>
	</g>
	<g>
		<g>
			<path d="M134.3,88.27c0.73-0.09,1.23-0.71,0.78-1.4c-0.22-0.35-0.54-0.65-0.78-0.99c-0.27-0.38-0.5-0.78-0.72-1.19
				c-0.33-0.63-1.34-0.2-1.14,0.48c0.31,1.07,0.8,2.08,1.43,3c0.46,0.66,1.54,0.03,1.08-0.63c-0.58-0.84-1.02-1.72-1.31-2.7
				c-0.38,0.16-0.76,0.32-1.14,0.48c0.23,0.44,0.49,0.86,0.78,1.27c0.13,0.18,0.26,0.36,0.4,0.53c0.08,0.11,0.17,0.21,0.26,0.32
				c0.2,0.32,0.32,0.18,0.36-0.42C133.51,87.12,133.5,88.37,134.3,88.27L134.3,88.27z"/>
		</g>
	</g>
	<g>
		<g>
			<path d="M136.26,91.06c0.77-0.03,1.19-0.89,0.66-1.49c-0.21-0.24-0.55-0.31-0.75-0.55c-0.27-0.34-0.47-0.78-0.69-1.16
				c-0.35-0.58-1.4-0.2-1.14,0.48c0.36,0.94,0.9,1.76,1.63,2.46c0.29-0.29,0.59-0.59,0.88-0.88c-0.1-0.08-0.21-0.16-0.31-0.24
				c-0.15,0.36-0.29,0.71-0.44,1.07c0.16-0.01,0.32-0.02,0.49-0.03c0.44-0.02,0.83-0.53,0.54-0.94c-0.25-0.37-0.54-0.68-0.89-0.96
				c-0.63-0.49-1.52,0.39-0.88,0.88c0.27,0.21,0.51,0.43,0.7,0.71c0.18-0.31,0.36-0.63,0.54-0.94c-0.16,0.01-0.32,0.02-0.49,0.03
				c-0.48,0.03-0.9,0.71-0.44,1.07c0.1,0.08,0.21,0.16,0.31,0.24c0.62,0.48,1.48-0.31,0.88-0.88c-0.57-0.54-1.03-1.17-1.31-1.91
				c-0.38,0.16-0.76,0.32-1.14,0.48c0.24,0.4,0.47,0.82,0.73,1.21c0.11,0.16,0.24,0.31,0.4,0.43c0.08,0.06,0.16,0.11,0.24,0.16
				c0.04,0.02,0.08,0.04,0.12,0.07c0.22,0.15,0.35-0.04,0.37-0.54C135.46,89.84,135.45,91.09,136.26,91.06L136.26,91.06z"/>
		</g>
	</g>
	<g>
		<g>
			<path d="M137.99,91c-0.18-0.35-0.43-0.59-0.75-0.83c-0.53-0.39-1.14,0.35-0.86,0.86c0.66,1.19,1.87,1.9,2.62,3.02
				c0.45,0.66,1.53,0.04,1.08-0.63c-0.75-1.11-1.97-1.84-2.62-3.02c-0.29,0.29-0.57,0.57-0.86,0.86c0.14,0.11,0.22,0.23,0.3,0.38
				C137.29,92.34,138.36,91.71,137.99,91L137.99,91z"/>
		</g>
	</g>
	<g>
		<g>
			<path d="M131.88,59.31c-0.36,0.25-0.69,0.52-0.99,0.84c-0.55,0.59,0.34,1.48,0.88,0.88c0.23-0.24,0.46-0.46,0.74-0.64
				C133.17,59.93,132.54,58.85,131.88,59.31L131.88,59.31z"/>
		</g>
	</g>
	<g>
		<g>
			<path d="M132.05,60.17c0.01,0.01,0.02,0.01,0.03,0.02c-0.03-0.25-0.07-0.5-0.1-0.76c-0.01,0.01-0.02,0.02-0.03,0.04
				c0.18-0.1,0.36-0.21,0.54-0.31c-0.02,0-0.03,0-0.05,0c0.18,0.1,0.36,0.21,0.54,0.31c-0.01-0.02-0.02-0.04-0.03-0.06
				c0,0.21,0,0.42,0,0.63c0.19-0.45,0.87-0.24,1.1,0.04c0.25-0.33,0.5-0.65,0.76-0.98c-0.5-0.27-1.14-0.79-1.74-0.7
				c-0.56,0.08-0.94,0.7-0.6,1.2c0.44,0.67,1.53,0.04,1.08-0.63c-0.02-0.02-0.03-0.05-0.05-0.07c0.02,0.16,0.04,0.32,0.06,0.48
				c-0.36,0.17-0.41,0.3-0.15,0.38c0.08,0.04,0.15,0.08,0.23,0.13c0.18,0.1,0.36,0.2,0.53,0.29c0.65,0.35,1.2-0.45,0.76-0.98
				c-0.48-0.57-1.31-0.79-2.02-0.58c-0.66,0.19-1.33,0.75-1.02,1.49c0.08,0.19,0.34,0.32,0.54,0.31c0.28-0.02,0.45-0.12,0.61-0.35
				c0.15-0.2,0.1-0.6-0.1-0.76c-0.01-0.01-0.02-0.01-0.03-0.02C132.31,58.79,131.42,59.67,132.05,60.17L132.05,60.17z"/>
		</g>
	</g>
	<g>
		<g>
			<path d="M134.88,59c0.32-0.23,0.64-0.46,0.96-0.69c0.31-0.22,0.8-0.46,1.04-0.75c0.29-0.17,0.14-0.38-0.45-0.64
				c-0.09,0.05-0.17,0.1-0.26,0.15c-0.17,0.1-0.34,0.2-0.51,0.3c-0.37,0.22-0.74,0.43-1.11,0.65c0.31,0.24,0.61,0.47,0.92,0.71
				c0.13-0.75,0.96-1.15,1.57-1.49c0.7-0.39,0.07-1.47-0.63-1.08c-0.89,0.5-1.95,1.14-2.14,2.24c-0.09,0.52,0.41,1,0.92,0.71
				c0.63-0.37,1.27-0.71,1.89-1.1c0.48-0.31,0.91-0.87,0.47-1.42c-0.42-0.52-0.98-0.31-1.43,0.01c-0.61,0.44-1.23,0.88-1.84,1.32
				C133.6,58.38,134.23,59.47,134.88,59L134.88,59z"/>
		</g>
	</g>
	<g>
		<g>
			<path d="M138.37,56.65c0.3-0.46,0.76-0.75,1.28-0.91c-0.24-0.31-0.47-0.61-0.71-0.92c-0.26,0.41-0.6,0.76-1,1.05
				c0.31,0.24,0.61,0.47,0.92,0.71c0.07-0.17,0.21-0.28,0.36-0.37c0.69-0.42,0.06-1.5-0.63-1.08c-0.45,0.27-0.75,0.63-0.93,1.12
				c-0.19,0.5,0.49,1.01,0.92,0.71c0.58-0.41,1.07-0.89,1.45-1.49c0.29-0.45-0.19-1.08-0.71-0.92c-0.84,0.27-1.55,0.75-2.03,1.49
				C136.86,56.7,137.94,57.32,138.37,56.65L138.37,56.65z"/>
		</g>
	</g>
	<g>
		<g>
			<path d="M137.79,55.62c-0.21,0.12-0.41,0.24-0.62,0.36c-0.7,0.4-0.07,1.48,0.63,1.08c0.21-0.12,0.41-0.24,0.62-0.36
				C139.12,56.29,138.49,55.21,137.79,55.62L137.79,55.62z"/>
		</g>
	</g>
	<g>
		<g>
			<path d="M140.11,55.48c0.94-0.66,1.94-1.18,3.01-1.57c0.75-0.27,0.43-1.48-0.33-1.21c-1.18,0.42-2.29,0.97-3.31,1.69
				C138.83,54.86,139.45,55.94,140.11,55.48L140.11,55.48z"/>
		</g>
	</g>
	<g>
		<g>
			<path d="M139.11,56.02c0.43,0.12,0.84,0.03,1.16-0.29c0.36-0.36,0.11-1.11-0.44-1.07c-0.54,0.04-0.99,0.24-1.27,0.72
				c-0.34,0.58,0.31,1.11,0.86,0.86c0.24-0.11,0.39-0.27,0.54-0.48c0.3-0.42-0.12-0.9-0.54-0.94c-0.07-0.01-0.14-0.01-0.22-0.02
				c0.21,0.21,0.42,0.42,0.62,0.62c-0.02-0.1-0.02-0.2,0.02-0.3c0.2-0.73-0.74-1.02-1.14-0.48c-0.1,0.13-0.22,0.22-0.36,0.3
				c0.29,0.29,0.57,0.57,0.86,0.86c0.04-0.09,0.1-0.16,0.19-0.21c0.66-0.45,0.04-1.53-0.63-1.08c-0.27,0.18-0.47,0.37-0.63,0.65
				c-0.3,0.53,0.32,1.2,0.86,0.86c0.33-0.21,0.57-0.44,0.81-0.75c-0.38-0.16-0.76-0.32-1.14-0.48c-0.06,0.21-0.08,0.41-0.06,0.64
				c0.03,0.36,0.26,0.59,0.62,0.62c0.07,0.01,0.14,0.01,0.22,0.02c-0.18-0.31-0.36-0.63-0.54-0.94c-0.03,0.01-0.06,0.02-0.09,0.03
				c0.29,0.29,0.57,0.57,0.86,0.86c0.03-0.08,0.1-0.11,0.19-0.1c-0.15-0.36-0.29-0.71-0.44-1.07c0.02-0.01,0.04-0.02,0.06-0.03
				C138.66,54.59,138.33,55.8,139.11,56.02L139.11,56.02z"/>
		</g>
	</g>
	<g>
		<g>
			<path d="M122.15,63.91c-0.1,0.08-0.2,0.13-0.32,0.17c0.31,0.24,0.61,0.47,0.92,0.71c0.04-0.21,0.11-0.3,0.29-0.42
				c-0.25-0.33-0.5-0.65-0.76-0.98c-0.58,0.74-0.28,1.39,0.24,2.05c0.49,0.62,0.48,1.37,1.16,1.86c0.62,0.44,1.18-0.48,0.76-0.98
				c-0.25-0.3-0.5-0.59-0.75-0.89c-0.1-0.12-0.2-0.24-0.3-0.36c-0.08-0.09-0.16-0.18-0.22-0.28c-0.07-0.17-0.14-0.14-0.22,0.08
				c0.46,0.12,0.9-0.3,0.77-0.77c-0.13-0.49-0.47-0.76-0.92-0.93c-0.59-0.23-1.05,0.64-0.61,1.04c0.36,0.33,0.72,0.67,1.08,1
				c0.17,0.15,0.33,0.31,0.5,0.46c0.06,0.06,0.13,0.12,0.19,0.18c0.01-0.27-0.06-0.33-0.22-0.16c-0.68,0.42-0.05,1.51,0.63,1.08
				c0.58-0.36,1.04-0.95,0.61-1.62c-0.2-0.32-0.55-0.57-0.83-0.82c-0.36-0.33-0.72-0.67-1.08-1c-0.2,0.35-0.41,0.7-0.61,1.04
				c0.02,0.02,0.03,0.04,0.05,0.06c0.26-0.26,0.51-0.51,0.77-0.77c-0.74-0.19-1.54,0.35-1.43,1.16c0.06,0.46,0.37,0.79,0.65,1.14
				c0.35,0.42,0.7,0.83,1.05,1.25c0.25-0.33,0.5-0.65,0.76-0.98c-0.26-0.18-0.28-0.73-0.42-1c-0.09-0.17-0.71-0.95-0.72-0.94
				c0.41-0.51-0.11-1.4-0.76-0.98c-0.44,0.28-0.76,0.65-0.87,1.17c-0.12,0.57,0.42,0.92,0.92,0.71c0.22-0.09,0.39-0.22,0.57-0.37
				C123.65,64.28,122.76,63.4,122.15,63.91L122.15,63.91z"/>
		</g>
	</g>
	<g>
		<g>
			<path d="M122.22,62.77c-0.25-0.35-0.51-0.7-0.79-1.02c-0.15-0.17-0.31-0.34-0.47-0.51c-0.05-0.05-0.11-0.11-0.16-0.16
				c-0.13-0.21-0.22-0.16-0.28,0.13c-0.29-0.07-0.57-0.15-0.86-0.22c0.11,0.24,0.28,0.41,0.47,0.58c0.27,0.23,0.35,0.43,0.47,0.76
				c0.09,0.24,0.18,0.49,0.33,0.7c0.08,0.11,0.51,0.51,0.51,0.46c0.15-0.2,0.31-0.4,0.46-0.6c0.14-0.03-0.43-0.83-0.51-0.93
				c-0.26-0.31-0.78-0.7-0.63-1.15c0.1-0.31-0.12-0.69-0.44-0.77c-0.3-0.07-0.57-0.05-0.83,0.12c-0.66,0.44-0.06,1.51,0.63,1.08
				c0.18-0.11,0.36-0.23,0.54-0.34c0.68-0.43,0.05-1.51-0.63-1.08c-0.18,0.11-0.36,0.23-0.54,0.34c0.21,0.36,0.42,0.72,0.63,1.08
				c-0.05,0-0.09,0-0.14,0.01c-0.15-0.26-0.29-0.51-0.44-0.77c-0.31,0.95,0.33,1.61,0.89,2.29c0.56,0.68,0.69,1.53,1.79,1.32
				c0.26-0.05,0.47-0.35,0.46-0.6c-0.02-0.7-0.68-0.95-0.9-1.57c-0.1-0.27-0.18-0.55-0.34-0.79c-0.19-0.28-0.56-0.46-0.69-0.77
				c-0.13-0.28-0.61-0.41-0.86-0.22c-0.48,0.36-0.65,0.9-0.31,1.44c0.17,0.27,0.44,0.49,0.66,0.72c0.33,0.35,0.62,0.72,0.9,1.11
				C121.6,64.06,122.68,63.43,122.22,62.77L122.22,62.77z"/>
		</g>
	</g>
	<g>
		<g>
			<path d="M121.78,61.89c-0.21-0.55-0.47-1.07-0.78-1.57c-0.37-0.6-1.33-0.22-1.14,0.48c0.25,0.94,0.64,1.82,1.17,2.63
				c0.43,0.67,1.52,0.05,1.08-0.63c-0.47-0.73-0.82-1.49-1.04-2.33c-0.38,0.16-0.76,0.32-1.14,0.48c0.25,0.41,0.48,0.82,0.65,1.27
				C120.86,62.96,122.07,62.64,121.78,61.89L121.78,61.89z"/>
		</g>
	</g>
	<g>
		<g>
			<path d="M120.18,59.52c-0.52-0.76-0.9-1.55-1.12-2.44c-0.38,0.16-0.76,0.32-1.14,0.48c0.45,0.91,0.95,1.8,1.47,2.66
				c0.12-0.31,0.25-0.61,0.37-0.92c0.03,0.02,0.05,0.04,0.08,0.05c-0.36-0.72-1.44-0.09-1.08,0.63c0.25,0.5,0.82,0.66,1.33,0.52
				c0.38-0.1,0.58-0.57,0.37-0.92c-0.53-0.87-1.02-1.76-1.47-2.66c-0.32-0.65-1.31-0.19-1.14,0.48c0.25,0.99,0.67,1.91,1.24,2.74
				C119.55,60.81,120.64,60.19,120.18,59.52L120.18,59.52z"/>
		</g>
	</g>
	<g>
		<g>
			<path d="M118.61,56.56c-0.39-0.96-0.72-1.93-0.98-2.93c-0.2-0.78-1.41-0.45-1.21,0.33c0.26,1,0.59,1.98,0.98,2.93
				C117.7,57.63,118.91,57.31,118.61,56.56L118.61,56.56z"/>
		</g>
	</g>
	<g>
		<g>
			<path d="M120.92,69.77c-0.1-0.35-0.11-0.66-0.06-1.02c-0.26,0.2-0.53,0.4-0.79,0.6c0.61,0.15,1.22,0.29,1.83,0.44
				c0.07,0.02,0.8,0.22,0.81,0.19c-0.1-0.16-0.21-0.31-0.31-0.47c-0.05,0.09-0.1,0.18-0.16,0.26c-0.09,0.15-0.19,0.28-0.3,0.42
				c0.24-0.1,0.47-0.19,0.71-0.29c-0.66-0.14-1.32-0.28-1.98-0.43c-0.06,0.41-0.11,0.82-0.17,1.23c0.7-0.03,1.39-0.06,2.09-0.1
				c0.7-0.03,0.85-1.01,0.17-1.23c-0.63-0.2-1.28-0.32-1.94-0.38c-0.8-0.07-0.8,1.18,0,1.25c0.55,0.05,1.08,0.17,1.61,0.33
				c0.06-0.41,0.11-0.82,0.17-1.23c-0.7,0.03-1.39,0.06-2.09,0.1c-0.67,0.03-0.89,1.07-0.17,1.23c0.66,0.14,1.32,0.28,1.98,0.43
				c0.3,0.06,0.53-0.05,0.71-0.29c0.42-0.56,1.13-1.52,0.2-1.99c-0.38-0.19-0.89-0.23-1.3-0.33c-0.51-0.12-1.02-0.24-1.52-0.36
				c-0.44-0.1-0.74,0.2-0.79,0.6c-0.06,0.46-0.02,0.9,0.11,1.35C119.93,70.88,121.14,70.55,120.92,69.77L120.92,69.77z"/>
		</g>
	</g>
	<g>
		<g>
			<path d="M119.72,69c-0.21-0.33-0.48-0.45-0.85-0.5c-0.51-0.08-0.9-0.2-1.35-0.47c-0.08-0.05-0.16-0.1-0.24-0.15
				c-0.21-0.2-0.37-0.06-0.47,0.42c0.04,0.12,0.57,0.31,0.69,0.38c0.49,0.27,0.99,0.54,1.48,0.81c0.05-0.38,0.1-0.76,0.15-1.14
				c-0.33,0.04-0.8-0.22-1.12-0.31c-0.39-0.12-0.85-0.19-1.21-0.38c0.1,0.12,0.19,0.25,0.29,0.37c-0.01,0.05-0.01,0.1-0.02,0.15
				c0.02-0.09,0.05-0.18,0.08-0.27c0.05-0.15,0.1-0.3,0.16-0.45c-0.31,0.12-0.61,0.25-0.92,0.37c0.89,0.49,1.78,0.99,2.67,1.48
				c0.7,0.39,1.34-0.69,0.63-1.08c-0.89-0.49-1.78-0.99-2.67-1.48c-0.38-0.21-0.77,0-0.92,0.37c-0.14,0.34-0.34,0.77-0.25,1.15
				c0.1,0.45,0.53,0.57,0.91,0.69c0.85,0.26,1.8,0.71,2.7,0.59c0.55-0.07,0.58-0.9,0.15-1.14c-0.74-0.41-1.48-0.86-2.24-1.22
				c-0.54-0.26-1.27-0.11-1.41,0.56c-0.14,0.63,0.38,1.02,0.85,1.32c0.32,0.2,0.65,0.39,1.01,0.51c0.18,0.06,0.36,0.1,0.55,0.12
				c0.15,0.02,0.4,0.15,0.27-0.06C119.07,70.31,120.15,69.68,119.72,69L119.72,69z"/>
		</g>
	</g>
	<g>
		<g>
			<path d="M115.29,68.12c0.08,0.05,0.15,0.1,0.23,0.15c0.11-0.39,0.21-0.78,0.32-1.16c-0.65-0.05-1.26-0.29-1.73-0.75
				c-0.15,0.36-0.29,0.71-0.44,1.07c0.66,0.03,1.29,0.18,1.88,0.48c0.16-0.38,0.32-0.76,0.48-1.14c-0.32-0.05-0.63-0.11-0.94-0.18
				c-0.12-0.03-0.25-0.06-0.37-0.1c-0.09-0.02-0.18-0.05-0.27-0.08c-0.15-0.08-0.17,0.01-0.06,0.24c-0.06,0.15-0.12,0.29-0.18,0.44
				c0.02-0.02,0.04-0.03,0.06-0.05c0.63-0.5-0.26-1.38-0.88-0.88c-0.48,0.39-0.19,1.03,0.26,1.28c0.59,0.33,1.4,0.43,2.05,0.53
				c0.64,0.1,1.17-0.79,0.48-1.14c-0.79-0.4-1.62-0.61-2.51-0.65c-0.55-0.02-0.82,0.7-0.44,1.07c0.71,0.7,1.63,1.04,2.61,1.12
				c0.66,0.05,0.8-0.85,0.32-1.16c-0.08-0.05-0.15-0.1-0.23-0.15C115.25,66.6,114.62,67.68,115.29,68.12L115.29,68.12z"/>
		</g>
	</g>
	<g>
		<g>
			<path d="M113.37,65.65c-0.92-0.42-1.79-0.94-2.58-1.58c-0.62-0.5-1.51,0.38-0.88,0.88c0.87,0.71,1.81,1.3,2.83,1.77
				C113.46,67.06,114.1,65.99,113.37,65.65L113.37,65.65z"/>
		</g>
	</g>
	<g>
		<g>
			<path d="M120.55,74.11c-0.09-0.24-0.17-0.49-0.26-0.73c-0.26,0.26-0.51,0.51-0.77,0.77c0.43,0.07,0.81,0.05,1.22-0.07
				c0.36-0.11,0.71-0.32,1.09-0.32c0.2,0,0.36-0.03,0.13-0.14c-0.1-0.05-0.42,0.02-0.52,0.03c-0.12,0.01-1.21,0.08-1.21,0.08
				c0.3-0.75-0.91-1.07-1.21-0.33c-0.36,0.92,0.66,1.56,1.45,1.59c0.49,0.02,1-0.07,1.48-0.11c0.38-0.03,0.74-0.13,1.01-0.42
				c0.55-0.61,0.3-1.5-0.44-1.81c-0.41-0.17-0.86-0.14-1.28-0.04c-0.45,0.11-0.92,0.44-1.4,0.36c-0.43-0.08-0.94,0.28-0.77,0.77
				c0.09,0.24,0.17,0.49,0.26,0.73C119.61,75.2,120.82,74.87,120.55,74.11L120.55,74.11z"/>
		</g>
	</g>
	<g>
		<g>
			<path d="M124.43,75.56c-0.62-1.39-0.77-2.87-0.46-4.35c0.17-0.78-1.04-1.12-1.21-0.33c-0.39,1.84-0.18,3.6,0.58,5.32
				C123.68,76.92,124.75,76.29,124.43,75.56L124.43,75.56z"/>
		</g>
	</g>
	<g>
		<g>
			<path d="M116.76,73.8c-0.18,0.03-0.35,0.05-0.53,0.08c0.26,0.2,0.53,0.4,0.79,0.6c-0.22,0.22-0.24,0.31-0.05,0.28
				c0.09,0,0.19,0,0.28,0.01c0.19,0,0.36-0.01,0.55-0.03c0.18-0.02,0.35-0.05,0.52-0.1c0.06-0.02,0.11-0.03,0.17-0.05
				c0.25-0.04,0.21-0.14-0.13-0.32c0.02-0.16,0.04-0.32,0.06-0.48c0.21-0.14,0.23-0.18,0.06-0.14c-0.1,0.02-0.2,0.03-0.3,0.05
				c-0.17,0.03-0.34,0.06-0.5,0.08c-0.16,0.03-0.34,0.07-0.5,0.08c-0.14,0.01-0.34-0.1-0.28,0.07c-0.15,0.26-0.29,0.51-0.44,0.77
				c0.88-0.12,1.76-0.25,2.65-0.37c0.79-0.11,0.46-1.32-0.33-1.21c-0.88,0.12-1.76,0.25-2.65,0.37c-0.31,0.04-0.55,0.48-0.44,0.77
				c0.35,0.88,1.2,0.9,2.02,0.78c0.62-0.1,2.07-0.09,1.85-1.1c-0.21-1.02-1.32-0.5-1.96-0.43c-0.79,0.09-1.72-0.08-1.85,0.98
				c-0.05,0.45,0.44,0.65,0.79,0.6c0.18-0.03,0.35-0.05,0.53-0.08C117.89,74.9,117.55,73.69,116.76,73.8L116.76,73.8z"/>
		</g>
	</g>
	<g>
		<g>
			<path d="M112.94,75.24c1.13,0.01,2.24-0.07,3.35-0.23c0.79-0.11,0.46-1.32-0.33-1.21c-1,0.14-2.01,0.2-3.02,0.19
				C112.14,73.98,112.14,75.23,112.94,75.24L112.94,75.24z"/>
		</g>
	</g>
	<g>
		<g>
			<path d="M111.88,74.06c-1.04-0.05-2.07-0.13-3.11-0.25c-0.8-0.09-0.79,1.16,0,1.25c1.03,0.12,2.07,0.2,3.11,0.25
				C112.68,75.35,112.68,74.1,111.88,74.06L111.88,74.06z"/>
		</g>
	</g>
	<g>
		<g>
			<path d="M113.3,75.49c0.61-0.04,1.22-0.07,1.83-0.11c0.2-0.01,0.45-0.11,0.54-0.31c0.24-0.56,0.02-1.14-0.59-1.34
				c-0.61-0.2-1.41,0.04-2.02,0.11c-0.33,0.04-0.63,0.25-0.62,0.62c0.02,0.09-0.01,0.17-0.09,0.23c-0.46,0.66,0.62,1.29,1.08,0.63
				c0.18-0.26,0.26-0.54,0.26-0.86c-0.21,0.21-0.42,0.42-0.62,0.62c0.29-0.04,0.59-0.07,0.88-0.11c0.12-0.01,0.23-0.03,0.35-0.04
				c0.08-0.01,0.16-0.02,0.24-0.02c0.21,0.02,0.23-0.14,0.06-0.48c0.18-0.1,0.36-0.21,0.54-0.31c-0.61,0.04-1.22,0.07-1.83,0.11
				C112.5,74.29,112.49,75.54,113.3,75.49L113.3,75.49z"/>
		</g>
	</g>
	<g>
		<g>
			<path d="M112.57,75.37c0.88,0.22,1.77,0.22,2.64-0.04c0.77-0.23,0.44-1.43-0.33-1.21c-0.66,0.19-1.31,0.21-1.97,0.04
				C112.13,73.97,111.79,75.17,112.57,75.37L112.57,75.37z"/>
		</g>
	</g>
	<g>
		<g>
			<path d="M116.5,74.03c-0.03-0.06-0.07-0.13-0.1-0.19c-0.28-0.52-1.24-0.31-1.16,0.32c0.02,0.17,0.01,0.24-0.04,0.39
				c-0.27,0.76,0.94,1.09,1.21,0.33c0.08-0.24,0.12-0.48,0.09-0.73c-0.39,0.11-0.78,0.21-1.16,0.32c0.03,0.06,0.07,0.13,0.1,0.19
				C115.8,75.38,116.88,74.74,116.5,74.03L116.5,74.03z"/>
		</g>
	</g>
	<g>
		<g>
			<path d="M116.4,73.94c-0.03,0-0.06,0-0.09,0c-0.8,0-0.81,1.25,0,1.25c0.03,0,0.06,0,0.09,0C117.2,75.19,117.2,73.94,116.4,73.94
				L116.4,73.94z"/>
		</g>
	</g>
	<g>
		<g>
			<path d="M120.83,77.58c-0.58,0.08-0.81,0.82-0.41,1.24c0.23,0.24,0.5,0.21,0.79,0.26c0.01-0.02,0.02-0.04,0.04-0.06
				c0.06,0.05,0.12,0.1,0.19,0.13c0.14,0.08,0.27,0.12,0.44,0.12c0.56-0.01,1.16-0.52,1.53-0.91c0.43-0.45,0.74-1,0.87-1.61
				c0.14-0.61-0.58-1.05-1.04-0.61c-0.32,0.31-0.66,0.6-1.02,0.86c-0.18,0.13-0.36,0.25-0.55,0.37c-0.14,0.09-0.49,0.21-0.58,0.35
				c-0.03,0.61,0.12,0.84,0.45,0.67c0.06-0.02,0.12-0.04,0.18-0.06c0.23-0.08,0.46-0.17,0.68-0.28c0.39-0.18,0.75-0.41,1.09-0.68
				c-0.25-0.33-0.5-0.65-0.76-0.98c-0.48,0.57-2.72,2.61-1.01,3.06c0-0.4,0-0.8,0-1.21c-0.12,0.05-0.08,0.01-0.08-0.16
				c-0.04-0.8-1.29-0.81-1.25,0c0.05,0.85,0.71,1.77,1.67,1.37c0.53-0.22,0.65-1.03,0-1.21c0.12,0.15,0.24,0.3,0.35,0.45
				c0.07-0.08,0.13-0.16,0.2-0.24c0.11-0.13,0.22-0.26,0.33-0.39c0.22-0.26,0.45-0.53,0.67-0.79c0.42-0.5-0.16-1.45-0.76-0.98
				c-0.62,0.48-1.27,0.68-1.96,1c-0.56,0.26-0.91,0.94-0.39,1.45c0.55,0.53,1.28,0.03,1.79-0.3c0.65-0.42,1.26-0.9,1.83-1.43
				c-0.35-0.2-0.7-0.41-1.04-0.61c-0.12,0.52-0.39,0.96-0.81,1.3c-0.06,0.05-0.26,0.14-0.29,0.21c-0.12,0.04-0.1,0.08,0.06,0.13
				c-0.04-0.03-0.08-0.07-0.13-0.1c-0.11-0.05-0.21-0.08-0.32-0.11c-0.05-0.01-0.35,0.02-0.39,0c0.1,0.12,0.19,0.25,0.29,0.37
				c-0.01-0.03-0.02-0.06-0.03-0.1c-0.02,0.16-0.04,0.32-0.06,0.48c0.02-0.03,0.04-0.06,0.06-0.09c-0.12,0.1-0.25,0.19-0.37,0.29
				c0.03,0,0.07-0.01,0.1-0.01C121.96,78.68,121.62,77.47,120.83,77.58L120.83,77.58z"/>
		</g>
	</g>
	<g>
		<g>
			<path d="M119.18,79.92c-0.03-0.06-0.06-0.12-0.1-0.18c-0.27-0.52-1.25-0.31-1.16,0.32c0.11,0.85,0.77,1.35,1.62,1.37
				c0.31,0,0.66-0.29,0.62-0.62c-0.04-0.4,0.28-0.58,0.63-0.65c-0.2-0.35-0.41-0.7-0.61-1.04c-0.14,0.11-0.28,0.23-0.42,0.34
				c-0.05,0.04-0.09,0.08-0.14,0.11c-0.17,0.09-0.16,0.12,0.03,0.1c0.1,0.12,0.19,0.25,0.29,0.37c-0.01-0.03-0.01-0.07-0.02-0.1
				c-0.05,0.2-0.11,0.41-0.16,0.61c0.41-0.43,0.9-0.75,1.29-1.21c-0.35-0.2-0.7-0.41-1.04-0.61c-0.09,0.35-0.43,0.52-0.77,0.55
				c0.15,0.36,0.29,0.71,0.44,1.07c0.28-0.27,0.58-0.52,0.91-0.73c0.07-0.05,0.14-0.09,0.22-0.13c0.25-0.11,0.11-0.26-0.41-0.43
				c-0.09,0.07-0.15,0.24-0.25,0.33c-0.45,0.38-1.25,0.52-1.34,1.21c0.4,0,0.8,0,1.21,0c-0.05-0.18-0.12-0.33-0.22-0.49
				c-0.02-0.04-0.05-0.07-0.07-0.11c-0.09-0.18-0.11-0.14-0.05,0.14c0.08,0.05,0.98-0.65,1.08-0.72c0.67-0.44,0.04-1.53-0.63-1.08
				c-0.48,0.32-1.25,0.66-1.56,1.17c-0.14,0.23-0.17,0.5-0.1,0.76c0.07,0.24,0.28,0.42,0.35,0.66c0.14,0.56,1.12,0.63,1.21,0
				c-0.06,0.04-0.06,0.04,0.01-0.01c0.05-0.03,0.11-0.06,0.17-0.09c0.11-0.06,0.23-0.12,0.34-0.19c0.23-0.15,0.47-0.32,0.66-0.52
				c0.33-0.36,0.58-0.91,0.4-1.4c-0.49-1.38-2.25,0.22-2.8,0.75c-0.36,0.35-0.11,1.12,0.44,1.07c0.89-0.08,1.74-0.56,1.98-1.47
				c0.15-0.57-0.62-1.1-1.04-0.61c-0.3,0.35-0.63,0.67-0.99,0.95c-0.35,0.28-0.65,0.66-0.38,1.12c0.6,1.01,1.74-0.09,2.28-0.52
				c0.53-0.42-0.06-1.16-0.61-1.04c-0.86,0.18-1.65,0.93-1.55,1.86c0.21-0.21,0.42-0.42,0.62-0.62c-0.06,0-0.36-0.03-0.37-0.12
				c-0.39,0.11-0.78,0.21-1.16,0.32c0.03,0.06,0.06,0.12,0.1,0.18C118.47,81.27,119.55,80.64,119.18,79.92L119.18,79.92z"/>
		</g>
	</g>
	<g>
		<g>
			<path d="M116.65,81.53c-0.16,0.11-0.31,0.22-0.47,0.32c0.25,0.33,0.5,0.65,0.76,0.98c0.6-0.46,1.2-0.93,1.79-1.39
				c-0.29-0.29-0.59-0.59-0.88-0.88c-0.48,0.49-1.03,0.84-1.66,1.11c0.21,0.36,0.42,0.72,0.63,1.08c0.31-0.21,0.62-0.43,0.91-0.68
				c0.12-0.1,0.24-0.21,0.34-0.33c0.07-0.08,0.14-0.15,0.2-0.24c0.14-0.12,0.14-0.16-0.02-0.11c-0.15-0.06-0.29-0.12-0.44-0.18
				c-0.21-0.18-0.09-0.28-0.35-0.06c-0.09,0.08-0.18,0.15-0.28,0.22c-0.12,0.09-0.24,0.18-0.36,0.26c-0.29,0.21-0.36,0.11-0.06,0.49
				c0.28,0.35,0.18,0.34,0.4,0.14c0.11-0.1,0.23-0.2,0.34-0.31c0.23-0.2,0.46-0.41,0.69-0.61c0.6-0.54-0.28-1.42-0.88-0.88
				c-0.54,0.48-1.92,1.3-1.39,2.19c0.58,0.98,1.66-0.01,2.21-0.46c0.36-0.28,0.75-0.61,0.82-1.09c0.06-0.4-0.14-0.82-0.54-0.95
				c-0.53-0.17-0.84,0.23-1.13,0.58c-0.31,0.37-0.71,0.66-1.1,0.93c-0.68,0.46-0.1,1.4,0.63,1.08c0.72-0.31,1.36-0.75,1.91-1.31
				c0.58-0.59-0.27-1.36-0.88-0.88c-0.6,0.46-1.2,0.93-1.79,1.39c-0.56,0.43,0.18,1.39,0.76,0.98c0.16-0.11,0.31-0.22,0.47-0.32
				C117.94,82.15,117.32,81.07,116.65,81.53L116.65,81.53z"/>
		</g>
	</g>
	<g>
		<g>
			<path d="M115.32,82.55c-0.95,0.61-1.82,1.31-2.6,2.12c-0.55,0.58,0.33,1.47,0.88,0.88c0.7-0.74,1.48-1.38,2.34-1.93
				C116.62,83.19,116,82.11,115.32,82.55L115.32,82.55z"/>
		</g>
	</g>
	<g>
		<g>
			<path d="M115.69,82.57c-0.03,0-0.06,0-0.09,0c-0.8,0-0.81,1.25,0,1.25c0.03,0,0.06,0,0.09,0
				C116.49,83.82,116.49,82.57,115.69,82.57L115.69,82.57z"/>
		</g>
	</g>
	<g>
		<g>
			<path d="M116.08,83.49c0.06-0.09,0.22-0.09,0.31-0.09c0.8-0.01,0.81-1.26,0-1.25c-0.59,0.01-1.04,0.24-1.39,0.71
				C114.53,83.51,115.61,84.13,116.08,83.49L116.08,83.49z"/>
		</g>
	</g>
	<g>
		<g>
			<path d="M125.32,83.29c0.14-0.4,0.29-0.79,0.43-1.19c0.13-0.36,0.22-0.88,0.43-1.19c0.12-0.18,0.34-0.28,0.45-0.47
				c0.19-0.3,0.06-0.57,0.15-0.88c-0.4,0-0.8,0-1.21,0c0.1,0.56,0.6,0.84,1.14,0.81c-0.21-0.21-0.42-0.42-0.62-0.62
				c0.02,0.3-0.44,0.52-0.62,0.7c-0.17,0.17-0.3,0.34-0.41,0.55c-0.27,0.51-0.4,1.13-0.57,1.68c-0.21,0.68,0.79,1.1,1.14,0.48
				c0.38-0.68,0.78-1.8,1.44-2.25c-0.25-0.33-0.5-0.65-0.76-0.98c-0.85,0.78-1.6,1.64-2.27,2.58c-0.47,0.66,0.6,1.26,1.08,0.63
				c0.44-0.57,0.86-1.15,1.31-1.71c0.36-0.44,0.83-0.75,1.14-1.23c0.44-0.67-0.64-1.3-1.08-0.63c-0.3,0.46-0.82,0.81-1.17,1.26
				c-0.43,0.56-0.86,1.12-1.28,1.68c0.36,0.21,0.72,0.42,1.08,0.63c0.61-0.85,1.31-1.62,2.08-2.33c0.51-0.48-0.16-1.38-0.76-0.98
				c-0.91,0.62-1.36,1.77-1.89,2.69c0.38,0.16,0.76,0.32,1.14,0.48c0.22-0.71,0.32-1.4,0.91-1.89c0.43-0.37,0.78-0.77,0.73-1.37
				c-0.02-0.32-0.27-0.64-0.62-0.62c0.02,0.03,0.04,0.07,0.07,0.1c-0.11-0.64-1.04-0.55-1.21,0c-0.07,0.24-0.05,0.45-0.16,0.65
				c-0.14,0.25-0.33,0.42-0.44,0.7c-0.31,0.79-0.57,1.59-0.86,2.38C123.85,83.71,125.05,84.04,125.32,83.29L125.32,83.29z"/>
		</g>
	</g>
	<g>
		<g>
			<path d="M123.64,86.7c0.55-0.86,0.97-1.79,1.23-2.78c0.18-0.68-0.79-1.11-1.14-0.48c-0.26,0.47-0.49,0.95-0.67,1.46
				c-0.05,0.14-0.28,1.37-0.35,1.41c0.16-0.02,0.32-0.04,0.48-0.06c-0.06-0.01-0.13-0.02-0.19-0.03c0.05,0.38,0.1,0.76,0.15,1.14
				c0.57-0.43,1.09-0.85,1.33-1.54c0.31-0.88,0.5-1.82,0.75-2.73c0.19-0.69-0.77-1.09-1.14-0.48c-0.25,0.41-0.41,0.82-0.49,1.29
				c-0.12,0.79,1.08,1.13,1.21,0.33c0.06-0.37,0.16-0.67,0.36-0.99c-0.38-0.16-0.76-0.32-1.14-0.48c-0.17,0.64-0.35,1.28-0.52,1.92
				c-0.19,0.71-0.38,1.16-0.98,1.61c-0.37,0.28-0.44,1.05,0.15,1.14c0.65,0.1,1.09-0.17,1.25-0.82c0.22-0.9,0.43-1.71,0.89-2.53
				c-0.38-0.16-0.76-0.32-1.14-0.48c-0.24,0.89-0.61,1.7-1.11,2.48C122.12,86.75,123.21,87.38,123.64,86.7L123.64,86.7z"/>
		</g>
	</g>
	<g>
		<g>
			<path d="M122.01,90.19c0.37-1.07,0.85-2.09,1.43-3.06c0.41-0.69-0.67-1.32-1.08-0.63c-0.63,1.07-1.15,2.19-1.56,3.36
				C120.54,90.62,121.75,90.94,122.01,90.19L122.01,90.19z"/>
		</g>
	</g>
	<g>
		<g>
			<path d="M120.93,89.86c-0.59,0.78-0.84,1.7-1.13,2.62c-0.29,0.91-0.67,1.83-0.56,2.8c0.09,0.79,1.34,0.8,1.25,0
				c-0.1-0.85,0.26-1.67,0.51-2.47c0.26-0.82,0.48-1.62,1.01-2.32C122.49,89.85,121.41,89.23,120.93,89.86L120.93,89.86z"/>
		</g>
	</g>
	<g>
		<g>
			<path d="M141.74,80.95c0.76-0.1,1.53,0.17,2.3,0.14c0.71-0.03,1.41-0.18,2.1-0.33c0.28-0.06,0.44-0.34,0.46-0.6
				c0.06-1.02-0.2-1.58-1.26-1.56c-0.76,0.02-1.53-0.12-2.29-0.09c-0.36,0.01-0.63,0.04-0.87,0.34c-0.19,0.24-0.23,0.48-0.1,0.76
				c0.37,0.77,1.35,0.81,2.09,0.78c-0.15-0.36-0.29-0.71-0.44-1.07c-0.43,0.51-1.13,0.26-1.68,0.33c-0.47,0.06-0.83,0.2-1.24,0.43
				c-0.44,0.25-0.36,0.81,0,1.08c0.84,0.62,2.63,0,3.54-0.19c0.73-0.15,0.49-1.17-0.17-1.23c-1.24-0.11-2.49-0.19-3.73-0.15
				c-0.77,0.02-0.9,0.09-1.35,0.61c-0.36,0.41-0.12,1.04,0.44,1.07c2.06,0.09,4.06-0.22,5.98-0.99c0.74-0.3,0.42-1.5-0.33-1.21
				c-1.82,0.73-3.69,1.03-5.65,0.94c0.15,0.36,0.29,0.71,0.44,1.07c0.18-0.21,0.27-0.38,0.38-0.63c-0.15,0.15-0.29,0.29-0.44,0.44
				c1.29-0.31,2.95-0.01,4.26,0.11c-0.06-0.41-0.11-0.82-0.17-1.23c-0.56,0.12-2.12,0.66-2.58,0.31c0,0.36,0,0.72,0,1.08
				c1.05-0.59,2.31,0.06,3.17-0.96c0.33-0.39,0.14-1.09-0.44-1.07c-0.21,0.01-0.89,0.11-1.01-0.16c-0.03,0.25-0.07,0.5-0.1,0.76
				c0.01-0.01,2.61,0.1,2.76,0.11c-0.18-0.1-0.36-0.21-0.54-0.31c0.1,0.2,0.12,0.41,0.06,0.63c0.15-0.2,0.31-0.4,0.46-0.6
				c-0.72,0.16-1.46,0.33-2.2,0.29c-0.65-0.03-1.22-0.23-1.87-0.14C140.95,79.81,140.94,81.06,141.74,80.95L141.74,80.95z"/>
		</g>
	</g>
	<g>
		<g>
			<path d="M146.88,80.1c0.04-0.54-0.09-1.04-0.34-1.52c-0.09-0.18-0.33-0.33-0.54-0.31c-0.58,0.06-1.11,0.21-1.58,0.56
				c-0.63,0.48-0.01,1.57,0.63,1.08c0.29-0.22,0.58-0.36,0.95-0.39c-0.18-0.1-0.36-0.21-0.54-0.31c0.15,0.29,0.19,0.56,0.17,0.89
				C145.56,80.91,146.81,80.9,146.88,80.1L146.88,80.1z"/>
		</g>
	</g>
	<g>
		<g>
			<path d="M146.71,79.59c0.83-0.21,1.69-0.39,2.5-0.66c0.6-0.2,1.18-0.48,1.48-1.07c0.24-0.45-0.16-1.1-0.71-0.92
				c-1.08,0.36-2.17,0.69-3.24,1.09c-0.69,0.26-1.2,0.8-0.81,1.55c0.13,0.25,0.44,0.35,0.71,0.29c1.3-0.29,2.48-0.85,3.51-1.7
				c0.62-0.51-0.27-1.39-0.88-0.88c-0.86,0.71-1.88,1.13-2.96,1.38c0.24,0.1,0.47,0.19,0.71,0.29c-0.14,0.33-0.09,0.41,0.15,0.26
				c0.18-0.06,0.35-0.12,0.53-0.18c0.26-0.09,0.53-0.18,0.79-0.26c0.61-0.21,1.23-0.41,1.84-0.62c-0.24-0.31-0.47-0.61-0.71-0.92
				c-0.24,0.47-0.95,0.56-1.42,0.68c-0.61,0.16-1.21,0.31-1.82,0.47C145.6,78.59,145.93,79.79,146.71,79.59L146.71,79.59z"/>
		</g>
	</g>
	<g>
		<g>
			<path d="M150.65,77.84c0.8-0.58,1.59-1.19,2.37-1.8c0.63-0.5-0.26-1.38-0.88-0.88c-0.69,0.55-1.4,1.09-2.11,1.61
				C149.38,77.23,150,78.32,150.65,77.84L150.65,77.84z"/>
		</g>
	</g>
	<g>
		<g>
			<path d="M152.96,75.77c0.9-0.77,1.57-1.72,1.98-2.84c0.28-0.76-0.93-1.08-1.21-0.33c-0.33,0.91-0.93,1.66-1.66,2.28
				C151.46,75.41,152.35,76.29,152.96,75.77L152.96,75.77z"/>
		</g>
	</g>
</g>
</svg>
