<?xml version="1.0" encoding="utf-8"?>
<!-- Generator: Adobe Illustrator 23.0.4, SVG Export Plug-In . SVG Version: 6.00 Build 0)  -->
<svg version="1.1" xmlns="http://www.w3.org/2000/svg" xmlns:xlink="http://www.w3.org/1999/xlink" x="0px" y="0px"
	 viewBox="0 0 200 200" style="enable-background:new 0 0 200 200;" xml:space="preserve">
<style type="text/css">
	.st0{fill:#93D3C2;}
	.st1{stroke:#000000;stroke-width:0.25;stroke-miterlimit:10;}
</style>
<g id="Layer_1">
	<g>
		<circle class="st0" cx="100" cy="100" r="100"/>
	</g>
	<g>
		<g>
			<g>
				<path class="st1" d="M32.63,57.58c-0.02-0.11-0.05-0.21-0.13-0.31c0,0,0,0,0-0.01l0.02-0.02c-0.13-0.15-0.26-0.3-0.39-0.45
					c0-0.1-0.03-0.21-0.11-0.32c-0.03-0.04-0.07-0.09-0.11-0.13c0.01-0.01,0.02-0.01,0.02-0.02c-0.07-0.06-0.12-0.11-0.18-0.17
					c-0.58-0.73-1.17-1.45-1.77-2.16c-0.04-0.06-0.08-0.12-0.12-0.19c-0.01,0.01-0.02,0.01-0.02,0.02c-0.03-0.04-0.06-0.08-0.1-0.12
					c-0.19-0.21-0.42-0.23-0.63-0.14c-0.02-0.04-0.05-0.08-0.07-0.13c0.17-0.15,0.26-0.37,0.2-0.63C29,51.9,28.86,51,28.8,50.08
					c0.25-0.92,0.53-1.82,0.83-2.72c0.23-0.67-0.82-1.09-1.15-0.47c-0.14,0.26-0.33,0.67-0.51,1.15c-0.09,0.61-0.19,1.21-0.29,1.82
					c-0.07,0.43-0.15,0.87-0.22,1.31c0.13,0.85,0.31,1.7,0.4,2.56c0.59,1.26,1.53,2.42,2.6,3.49c0.05,0.06,0.1,0.13,0.15,0.19
					l0.02-0.02c0.03,0.03,0.07,0.05,0.11,0.07c0,0,0,0,0.01,0.01c0,0-0.01,0.01-0.01,0.01c0.03,0.04,0.07,0.07,0.1,0.1
					c0.39,0.52,0.8,1.01,1.23,1.48c0.31-0.37,0.62-0.73,0.94-1.08C32.89,57.85,32.76,57.71,32.63,57.58z"/>
			</g>
		</g>
		<g>
			<g>
				<path class="st1" d="M32.05,59.09c0.3-0.35,0.6-0.71,0.91-1.05c-1.22-1.43-2.32-2.94-3.24-4.58c0.02-0.12,0-0.25-0.08-0.39
					c-0.16-0.29-0.36-0.57-0.56-0.82c-0.48-0.64-1.42-0.08-1.07,0.64c0,0,0,0.01,0,0.01c0,0,0,0,0,0c0.01,0.01,0.02,0.02,0.02,0.04
					c0.52,1.07,1.11,2.08,1.77,3.04c-0.02,0.12-0.02,0.25,0.04,0.38C30.36,57.48,31.17,58.28,32.05,59.09z"/>
			</g>
		</g>
		<g>
			<g>
				<path class="st1" d="M34.38,56.48c0.3-0.32,0.58-0.66,0.87-1c-1.34-0.61-2.32-2.32-2.95-4.13c-0.27-0.76-1.47-0.41-1.21,0.34
					C31.8,53.75,32.85,55.29,34.38,56.48z"/>
			</g>
		</g>
		<g>
			<g>
				<path class="st1" d="M35.27,47.27c-1.42,1.27-2.81,2.58-4.12,3.97c-0.55,0.58,0.34,1.45,0.89,0.87c0.79-0.83,1.6-1.62,2.43-2.4
					c0.01-0.02,0-0.03,0.01-0.05c0.12-0.19,0.24-0.37,0.36-0.56c-0.03-0.07-0.05-0.14,0-0.22c0.07-0.11,0.15-0.22,0.22-0.33
					c0.05-0.34,0.14-0.68,0.25-1C35.29,47.46,35.27,47.37,35.27,47.27z"/>
				<path class="st1" d="M45.08,39.31c-3.14,2.41-6.27,4.84-9.24,7.45c0.13,0,0.25,0.07,0.25,0.23c-0.01,0.18-0.05,0.36-0.09,0.53
					c0,0.02,0.01,0.04,0.02,0.05c0.04-0.06,0.1-0.11,0.14-0.17c0.01-0.02,0.02-0.04,0.02-0.05c0.12-0.29,0.2-0.6,0.36-0.87
					c0.11-0.19,0.39-0.14,0.45,0.06c0.2-0.18,0.41-0.36,0.64-0.51c0.08-0.05,0.15-0.04,0.21-0.01c0.17-0.19,0.33-0.38,0.51-0.57
					c0.05-0.05,0.12-0.07,0.18-0.07c0.39-0.39,0.82-0.75,1.25-1.1c0.47-0.51,0.93-1.02,1.41-1.52c0.13-0.13,0.29-0.07,0.37,0.05
					c0.19-0.17,0.37-0.35,0.56-0.51c0.05-0.04,0.1-0.04,0.14-0.05c0.43-0.43,0.86-0.85,1.3-1.27c0.49-0.49,0.99-0.96,1.53-1.39
					c0.01-0.01,0.02-0.02,0.03-0.03c0,0,0,0,0,0c0.02-0.01,0.03-0.03,0.05-0.04c0.05-0.04,0.09-0.04,0.14-0.04
					c0.34-0.35,0.71-0.66,1.09-0.95c0.01-0.09,0.05-0.17,0.15-0.21c0.05-0.02,0.11-0.03,0.17-0.05c0.17-0.13,0.35-0.26,0.54-0.37
					c0.06-0.03,0.12-0.04,0.17-0.02c0,0,0,0,0,0c0.02,0,0.04,0,0.07-0.01c0,0,0,0,0,0c0.01,0,0.01,0,0.02,0
					c0.31-0.04,0.6-0.05,0.88-0.03c0.25,0,0.49,0.02,0.74,0.06l0.01,0c0,0,0,0,0,0c0.02,0,0.04,0,0.07,0.01
					c0.08,0.02,0.12,0.06,0.14,0.12c0.1,0.04,0.21,0.06,0.31,0.11c0.05-0.02,0.1-0.02,0.16,0.01c0.26,0.12,0.51,0.23,0.77,0.35l0,0
					c0.02,0.01,0.04,0.01,0.06,0.02c0.05,0.02,0.07,0.06,0.09,0.11c0.01,0,0.01-0.01,0.02-0.01c0.12-0.02,0.24,0,0.36,0.04
					c0.09-0.05,0.21-0.06,0.3,0.01c0.05,0.03,0.09,0.08,0.13,0.11c0,0,0.01,0,0.01,0c0.02-0.02,0.04-0.03,0.06-0.03
					c0.01-0.12,0.12-0.24,0.24-0.23c0.1,0.01,0.19,0.04,0.29,0.07c0.04-0.03,0.07-0.07,0.11-0.1C49.54,36.14,48.9,36.37,45.08,39.31
					z"/>
			</g>
		</g>
		<g>
			<g>
				<path class="st1" d="M28.38,47.29c-0.04,0.05-0.08,0.09-0.12,0.14c0.33,0.25,0.66,0.49,0.99,0.75c1.64-2.37,4.1-4.46,6.22-6.39
					c2.59-2.36,5.18-4.72,8.01-6.81c0.64-0.48,0-1.55-0.64-1.07c-2.92,2.14-5.59,4.57-8.26,7c-2.22,2.02-4.7,4.17-6.41,6.65
					c-0.4,0.58,0.53,1.28,0.99,0.75c0.04-0.05,0.08-0.09,0.12-0.14C29.79,47.55,28.9,46.67,28.38,47.29L28.38,47.29z"/>
			</g>
		</g>
		<g>
			<g>
				<path class="st1" d="M55.76,38.34c0.25-0.23,0.5-0.47,0.75-0.71c-0.07-0.06-0.14-0.12-0.2-0.18c-1.57-1.46-3.67-4.05-5.82-4.63
					c-2.97-0.82-8.27,1.61-9.55,4.35c-0.34,0.72,0.75,1.35,1.09,0.62c0.54-1.14,4.82-3.85,6.68-3.74c1.76,0.12,3.73,1.51,5.02,2.62
					C54.28,37.17,55,37.74,55.76,38.34z"/>
			</g>
		</g>
		<g>
			<g>
				<path class="st1" d="M43.08,35.47c0.41-1.17,3.01-1.72,4.1-1.86c1.65-0.2,4.28,0.48,4.98,2.14c0.32,0.73,1.52,0.39,1.21-0.34
					c-0.89-2.06-3.43-3.14-5.62-3.15c-1.9,0-5.19,0.91-5.88,2.89C41.61,35.9,42.81,36.22,43.08,35.47L43.08,35.47z"/>
			</g>
		</g>
		<g>
			<g>
				<path class="st1" d="M55.75,37.9c-1.32-1.04-2.91-2.27-4.51-2.77c-0.43-0.14-0.93,0.33-0.76,0.78c0.38,1.03,1.01,1.86,1.68,2.67
					c0.1-0.08,0.21-0.16,0.31-0.23c0.27-0.18,0.52,0.25,0.26,0.43c-0.04,0.03-0.09,0.06-0.13,0.1c0.03,0.02,0.06,0.05,0.09,0.07
					c0.04-0.04,0.08-0.08,0.12-0.12c-0.01-0.14,0.12-0.26,0.26-0.26c0.12-0.11,0.23-0.24,0.35-0.35c-0.25-0.3-0.51-0.6-0.74-0.91
					c0.24,0.17,0.48,0.35,0.73,0.53c0.09,0.06,0.18,0.12,0.27,0.18c0.2-0.16,0.39-0.32,0.6-0.46c0.27-0.18,0.53,0.25,0.26,0.43
					c-0.15,0.1-0.28,0.21-0.42,0.32c0.32,0.21,0.63,0.42,0.93,0.65c0.32-0.27,0.63-0.56,0.93-0.84
					C55.91,38.05,55.84,37.97,55.75,37.9z"/>
			</g>
		</g>
		<g>
			<g>
				<path class="st1" d="M30.76,51.38c0.02,0,0.04,0,0.06,0c1.31-0.01,2.55-1.18,2.47-2.53c-0.08-1.35-1.13-2.49-2.53-2.47
					c-0.02,0-0.04,0-0.06,0c-1.31,0.01-2.55,1.18-2.47,2.53C28.3,50.27,29.36,51.39,30.76,51.38L30.76,51.38z"/>
			</g>
		</g>
		<g>
			<g>
				<path class="st1" d="M35.26,47.03c0.01-0.23,0.23-0.29,0.39-0.19c0.07-0.08,0.18-0.11,0.28-0.08c0-0.07,0.03-0.14,0.02-0.21
					c-0.08-1.35-1.13-2.49-2.53-2.47l-0.18,0c-1.31,0.01-2.55,1.18-2.47,2.53c0.08,1.36,1.13,2.49,2.53,2.47l0.18,0
					c0.59-0.01,1.15-0.25,1.6-0.64c0.05-0.31,0.12-0.62,0.22-0.91C35.27,47.35,35.25,47.17,35.26,47.03z"/>
			</g>
		</g>
		<g>
			<g>
				<path class="st1" d="M51.61,34.26c-3.2-1.6-5.45-0.01-8.42,1.43c-0.12,0.06-0.22,0.13-0.32,0.2c-0.48-0.2-1.05-0.2-1.59,0.15
					c-3.09,2-6.63,5.2-8.76,8.16c-0.11,0.16-0.18,0.31-0.24,0.46c-0.57,0.47-1.12,0.98-1.67,1.55c-1.42,1.5,0.5,4.15,2.3,2.91
					c0.84-0.58,1.61-0.96,2.31-1.37c0.02-0.07,0.05-0.15,0.08-0.22c-0.04-0.18-0.06-0.37-0.05-0.51c0.01-0.23,0.23-0.29,0.39-0.19
					c0.14-0.16,0.45-0.11,0.44,0.14c0,0.08-0.02,0.16-0.03,0.24c0.08-0.06,0.16-0.13,0.24-0.19c0.07-0.19,0.14-0.38,0.24-0.55
					c0.09-0.15,0.29-0.15,0.39-0.04c0.22-0.24,0.43-0.51,0.63-0.83c0.17-0.14,0.3-0.3,0.4-0.47c0.24-0.08,0.49-0.21,0.72-0.41
					c0.68-0.56,1.34-1.08,1.97-1.6c0.15-0.09,0.29-0.17,0.44-0.25c0.03-0.03,0.06-0.06,0.09-0.09c0.06-0.06,0.13-0.08,0.19-0.07
					c0.39-0.22,0.77-0.44,1.15-0.69c0.34-0.34,0.68-0.68,1.04-1.01c0.23-0.23,0.48-0.44,0.72-0.66c0.43-0.53,0.88-1.05,1.64-1.5
					c0.24-0.14,0.42-0.32,0.56-0.53c0.11-0.04,0.2-0.06,0.3-0.09c0.15-0.11,0.29-0.21,0.46-0.31c0.06-0.03,0.12-0.04,0.17-0.03
					c0,0,0,0,0,0c0.02,0,0.04,0,0.07-0.01c0,0,0,0,0,0c0.01,0,0.01,0,0.02,0c0.31-0.04,0.6-0.05,0.88-0.03
					c0.25,0,0.49,0.02,0.74,0.06l0.01,0c0,0,0,0,0,0c0.02,0,0.04,0,0.07,0.01c0.02,0,0.03,0.02,0.05,0.03
					c0.61,0.1,1.15,0.35,1.68,0.7c0.07,0.01,0.14,0.01,0.2,0.03c0.09-0.05,0.2-0.06,0.28,0.01c0.05,0.03,0.09,0.08,0.13,0.11
					c0,0,0.01,0,0.01,0c0.02-0.02,0.04-0.03,0.06-0.03c0.01-0.12,0.12-0.24,0.24-0.23c0.1,0.01,0.2,0.04,0.3,0.08
					c0.11-0.09,0.21-0.19,0.33-0.27c0.27-0.18,0.52,0.25,0.26,0.43c-0.04,0.03-0.08,0.07-0.12,0.1c0.04,0.03,0.07,0.06,0.1,0.08
					c0.03-0.04,0.07-0.07,0.1-0.11c-0.04-0.16,0.12-0.3,0.28-0.29c0.37-0.37,0.76-0.72,1.2-1.01c0.27-0.18,0.53,0.25,0.26,0.43
					c-0.41,0.27-0.78,0.59-1.12,0.94c0.03,0.05,0.07,0.1,0.1,0.16c0.09,0,0.18,0.01,0.24,0.09c0,0.01,0.01,0.01,0.01,0.02
					c0.34-0.1,0.69-0.18,1.04-0.23c0.05-0.01,0.09,0.01,0.13,0.03c0.03-0.01,0.05-0.02,0.08-0.02c0,0,0,0,0.01,0
					c0.24-0.2,0.47-0.4,0.7-0.61C54.33,36.88,52.72,34.82,51.61,34.26z"/>
			</g>
		</g>
		<g>
			<g>
				<path class="st1" d="M34.96,55.85c-1.04-1.2-2.11-2.4-2.84-3.8c-0.16-0.39-0.32-0.79-0.49-1.18c-0.89-2.18-4.4-1.29-3.61,1.04
					c0,0,0,0,0,0c-0.01,0-0.02,0.01-0.03,0.01c0.22,0.52,0.42,1.04,0.64,1.54c0.1,0.24,0.24,0.43,0.39,0.59
					c0.95,1.67,2.19,3.1,3.44,4.53C33.27,57.66,34.15,56.78,34.96,55.85z"/>
			</g>
		</g>
		<g>
			<g>
				<path class="st1" d="M142.38,97.81c-1.39,1.86-3.19,3.53-5.02,4.97c-0.01,0.03,0,0.06-0.03,0.09c-0.31,0.38-1.36,1.67-2.03,1.44
					c-1.79,1.26-3.62,2.45-5.23,3.94c-0.88,0.81-1.74,1.61-2.66,2.36c-0.01,0.09-0.05,0.17-0.15,0.21c-0.1,0.04-0.18,0.08-0.27,0.12
					c-0.4,0.31-0.81,0.6-1.24,0.88c-0.02,0.04-0.04,0.08-0.09,0.11c-0.64,0.47-1.32,0.9-1.91,1.42c0.09,0.13,0.08,0.32-0.12,0.36
					c-0.14,0.03-0.27,0.07-0.41,0.1c-0.02,0-0.03-0.01-0.04,0c0,0.07-0.03,0.14-0.11,0.19c-0.14,0.08-0.28,0.16-0.42,0.24
					c-0.01,0.01-0.02,0.02-0.03,0.02c0.06,0.11,0.06,0.27-0.06,0.36c-0.03,0.02-0.05,0.04-0.08,0.06c0.15,0.21,0.34,0.41,0.57,0.55
					c-1.07-0.66-3.27,3.46-4.03,4.24c-1.81,1.83-3.9,2.96-6.16,4.12c-3.75,1.92-6.27,5.33-10.12,7.25
					c-0.25,0.22-0.49,0.43-0.73,0.65c-0.36,0.61-0.28,1.42,0.08,2.04c-0.26,0.18-0.51,0.36-0.77,0.53c-1.29,0.4-2.42,0.99-3.48,1.78
					c-0.56,0.63-1.12,1.26-1.69,1.89c0.2,0.08,0.26,0.4,0,0.45c-0.16,0.03-0.31,0.05-0.46,0.07c-0.03,0.04-0.06,0.07-0.09,0.11
					c-0.03,0.22-0.04,0.44,0.01,0.66c-0.04,0.03-0.08,0.06-0.13,0.09c-0.01,0-0.02,0.01-0.03,0.01c0,0,0,0,0,0.01c0,0,0,0,0,0
					c-2,1.43-0.31,4.17,1.89,3.24c0.33-0.14,0.65-0.28,0.98-0.42c0.53-0.23,0.82-0.59,0.93-1c1.83-1.35,3.65-2.73,5.43-4.15
					c0.35-0.28,0.53-0.6,0.59-0.92c4.1-2.93,7.91-6.23,11.42-9.94c0.03-0.04,0.06-0.07,0.09-0.11c0.79-0.46,1.57-0.93,2.32-1.49
					c3.1-2.28,7.07-6.33,7.28-10.41c0-0.02-0.01-0.04-0.01-0.05c0.47-0.48,0.94-0.95,1.41-1.44l0,0c0,0,0,0,0-0.01
					c0.18-0.18,0.3-0.38,0.39-0.58c4.57-4.13,9.14-8.26,13.7-12.39C142.41,98.98,142.53,98.36,142.38,97.81z"/>
			</g>
		</g>
		<g>
			<g>
				<path class="st1" d="M125.38,112.13c-0.56,0.4-1.13,0.78-1.64,1.23c0.09,0.13,0.08,0.32-0.12,0.36
					c-0.14,0.03-0.27,0.07-0.41,0.1c-0.02,0-0.03-0.01-0.04,0c0,0.07-0.03,0.14-0.11,0.19c-0.14,0.08-0.28,0.16-0.42,0.24
					c-0.01,0.01-0.02,0.02-0.03,0.02c0.06,0.11,0.06,0.27-0.06,0.36c-0.1,0.07-0.19,0.14-0.28,0.21c0,0.06-0.02,0.11-0.08,0.16
					c-0.02,0.01-0.03,0.02-0.05,0.04c-0.01,0.12-0.08,0.24-0.23,0.24c-0.04,0-0.08,0.01-0.12,0.01c-0.04,0.01-0.07-0.01-0.11-0.02
					c-0.05,0.03-0.11,0.05-0.16,0.08c-0.18,0.09-0.33-0.05-0.36-0.2c-0.01,0-0.02,0.01-0.02,0.01c-1.69,2.17-4.66,4.12-6.37,5.66
					c-0.98,0.88-1.96,1.77-2.93,2.66c-0.04-0.01-0.08-0.02-0.13-0.03c-1.23,1.1-2.51,2.15-3.8,3.19c-0.43,0.55-0.86,1.09-1.33,1.61
					c-0.01,0.01-0.02,0.02-0.03,0.03l0,0c0,0,0,0,0,0.01c-1.62,1.79,0.86,4.27,2.65,2.65c3.35-3.04,6.71-6.07,10.06-9.11
					c0.89-0.8,1.88-1.59,2.82-2.43c0.98,0.51,2.32,0.28,2.58-1.1c0.19-1.04,0.45-2.01,0.77-2.99c0.19-0.4,0.34-0.81,0.45-1.24
					c0.02-0.04,0.03-0.08,0.05-0.12c0,0-0.01,0-0.01,0C126.1,113.13,125.83,112.52,125.38,112.13z"/>
			</g>
		</g>
		<g>
			<g>
				<path class="st1" d="M137.36,102.78c-0.01,0.03,0,0.06-0.03,0.1c-0.31,0.38-1.36,1.67-2.03,1.44c-1.79,1.26-3.62,2.45-5.23,3.94
					c-0.88,0.81-1.74,1.61-2.66,2.36c-0.01,0.09-0.05,0.17-0.15,0.21c-0.1,0.04-0.18,0.08-0.27,0.12c-0.4,0.31-0.81,0.6-1.24,0.88
					c-0.02,0.04-0.04,0.08-0.09,0.11c-0.64,0.47-1.32,0.9-1.91,1.42c0.09,0.13,0.08,0.32-0.12,0.36c-0.14,0.03-0.27,0.07-0.41,0.1
					c-0.02,0-0.03-0.01-0.04,0c0,0.07-0.03,0.14-0.11,0.19c-0.14,0.08-0.28,0.16-0.42,0.24c-0.01,0.01-0.02,0.02-0.03,0.02
					c0.06,0.11,0.06,0.27-0.06,0.36c-0.1,0.07-0.19,0.14-0.28,0.21c0,0.06-0.02,0.11-0.08,0.16c-0.02,0.01-0.03,0.02-0.05,0.04
					c-0.01,0.12-0.08,0.24-0.23,0.24c-0.04,0-0.08,0.01-0.12,0.01c-0.04,0.01-0.07-0.01-0.11-0.02c-0.05,0.03-0.11,0.05-0.16,0.08
					c-0.03,0.01-0.06,0.01-0.08,0.02c0.82,0.64,2.08,0.69,2.67-0.5c0.69-1.37,3.06-2.38,4.18-3.5c1.85-1.86,3.66-3.29,5.88-4.72
					c2.77-1.77,5.26-3.78,6.45-6.79C139.6,100.92,138.48,101.89,137.36,102.78z"/>
			</g>
		</g>
		<g>
			<g>
				<path class="st1" d="M111.03,124.04c-3.96,3.44-8.44,6.41-11.9,10.34c-0.88,1-1.76,2-2.64,3c0.05,0.24,0.14,0.47,0.29,0.7
					c1.12,1.73,3.64,0.61,3.53-1.02c0.54-0.69,1.74-1.49,2.29-1.94c1.17-0.96,2.41-1.83,3.6-2.76c2.16-1.67,4.1-3.46,5.51-5.83
					C112.32,125.5,111.83,124.52,111.03,124.04z"/>
			</g>
		</g>
		<g>
			<g>
				<path class="st1" d="M122.34,163.92c-0.12-0.11-0.25-0.2-0.37-0.3c0,0,0,0,0,0c0,0-0.01,0-0.01,0
					c-3.37-2.69-7.73-3.15-11.32-5.55c-0.43-0.33-0.86-0.64-1.28-0.99c-0.18-0.15-0.38-0.25-0.57-0.32
					c-2.64-3.98-5.79-8.88-10.39-10.37c-0.03-0.26-0.13-0.52-0.32-0.78c-0.11-0.14-0.22-0.29-0.32-0.43
					c-0.06-0.63-0.12-1.24-0.17-1.87c0.06-0.14,0.13-0.28,0.19-0.42c0.09-0.15,0.16-0.3,0.21-0.45c0.32-0.63,0.67-1.24,1.07-1.83
					c1.29-2.05-1.88-3.9-3.15-1.94c-0.26,0.13-0.51,0.33-0.72,0.61c-0.39,0.52-0.69,1.02-0.93,1.52c-0.41,0.53-0.86,1.03-1.35,1.48
					c-0.83,0.86-0.51,2.18,0.26,2.85c0.03,0.07,0.06,0.15,0.09,0.22c0,0-0.01,0-0.01,0.01c0.01,0.01,0.02,0.03,0.03,0.04
					c0.4,0.76,0.83,1.52,1.26,2.27c0,0.03,0,0.05,0,0.08c0.04,0.02,0.09,0.03,0.12,0.08c0.07,0.12,0.15,0.11,0.26,0.14
					c0.19,0.06,0.2,0.25,0.12,0.38c0.05,0.05,0.09,0.1,0.15,0.15c0.06,0.06,0.07,0.12,0.06,0.19c0.03,0.05,0.04,0.09,0.04,0.14
					c0.02,0.01,0.04,0.01,0.05,0.03c0.07,0.09,0.13,0.17,0.2,0.26c0.02,0.02,0.01,0.04,0.02,0.06c0.03,0.03,0.06,0.06,0.08,0.09
					c0.03,0.01,0.07,0.02,0.1,0.05c0.16,0.18,0.3,0.38,0.46,0.56c0.03,0.03,0.04,0.07,0.05,0.11c0.05,0.04,0.09,0.09,0.15,0.11
					c0.07,0.04,0.1,0.1,0.11,0.16c0.21,0.16,0.39,0.32,0.59,0.52c0.03,0.02,0.05,0.04,0.07,0.07c0,0,0,0,0,0c0,0,0,0,0,0
					c0.01,0.02,0.03,0.03,0.04,0.05c0.01,0.01,0,0.02,0,0.03c0.05,0.07,0.1,0.15,0.15,0.22c0.01,0.02,0,0.03,0.01,0.04
					c0.03,0.05,0.07,0.1,0.1,0.16c0.03,0.05,0.03,0.1,0.02,0.14c0.14,0.13,0.27,0.27,0.39,0.41c0,0,0.01,0,0.01,0
					c0.15,0.15,0.31,0.31,0.46,0.46v0l0.15,0.15c0.18,0.18,0.36,0.35,0.56,0.51c0.04,0.03,0.04,0.07,0.05,0.11
					c0.02,0.01,0.03,0.03,0.05,0.05c0,0,0,0.01,0.01,0.01c0.64,0.51,1.32,0.97,1.99,1.43c0.1,0.07,0.11,0.18,0.09,0.27
					c1.32,0.78,2.45,1.84,3.75,2.67c0.62,0.4,1.29,0.72,1.9,1.14c0.77,0.55,1.44,1.24,2.21,1.8c1.35,0.98,2.8,1.92,4.2,2.83
					c1.5,0.97,3.23,1.54,4.75,2.5c0.03,0.02,0.03,0.04,0.04,0.06c0.67,0.29,1.34,0.59,1.98,0.95
					C121.87,167.77,124.04,165.39,122.34,163.92z"/>
			</g>
		</g>
		<g>
			<g>
				<path class="st1" d="M161.6,112.79c-0.08,0.05-0.18,0.06-0.27-0.04c-0.48-0.56-1-1.09-1.48-1.66c-0.06-0.07-0.07-0.15-0.05-0.22
					c-1.2-0.94-2.3-2.02-3.53-2.94c-0.61-0.45-1.28-0.87-1.83-1.39c-0.5-0.47-0.87-1.06-1.39-1.52c-0.04-0.04-0.05-0.08-0.06-0.13
					c-0.36-0.28-0.72-0.55-1.08-0.83c-0.06-0.05-0.08-0.11-0.08-0.17c-0.02-0.01-0.04-0.03-0.06-0.04c-0.01-0.01-0.02,0-0.03-0.01
					c-0.1-0.07-0.2-0.15-0.31-0.22c-0.05-0.03-0.07-0.08-0.08-0.12c-0.11-0.09-0.23-0.19-0.34-0.3c-0.09,0.06-0.2,0.08-0.28-0.01
					c-0.46-0.52-0.92-1.04-1.4-1.54c-0.03-0.01-0.06,0-0.09-0.03c-0.27-0.21-0.52-0.44-0.78-0.67c-0.08,0.04-0.18,0.05-0.27-0.03
					c-0.28-0.25-0.53-0.52-0.8-0.78c-0.06,0-0.11-0.01-0.16-0.05c-0.35-0.29-0.68-0.6-1-0.92c-0.07,0.03-0.14,0.05-0.22-0.01
					c-0.02-0.01-0.03-0.03-0.05-0.04c0,0,0,0,0,0c-0.15-0.12-0.3-0.23-0.45-0.34c-0.09,0.01-0.18-0.01-0.24-0.1
					c-0.16-0.2-0.34-0.37-0.52-0.54c-0.28-0.12-0.55-0.23-0.83-0.35c-0.03-0.02-0.06-0.04-0.09-0.05c0,0,0,0.01-0.01,0.01
					c-0.15-0.06-0.31-0.13-0.46-0.19c-0.25-0.11-0.49-0.14-0.72-0.13c0,0,0,0,0,0c-0.74,1.05-1.62,2.04-2.57,2.96
					c0.1,0.06,0.21,0.12,0.33,0.16c0.88,0.36,1.75,0.73,2.62,1.09c0.04,0.02,0.07,0.04,0.11,0.06c0,0,0.01-0.01,0.01-0.01
					c0,0,0.01,0,0.01,0c0.33,0.15,0.65,0.21,0.95,0.19c0.93,0.39,1.85,0.77,2.78,1.16c0.02,0.01,0.04,0.01,0.07,0.02
					c1.18,1.3,2.3,2.65,3.36,4.07c0.05,0.07,0.1,0.15,0.15,0.22c0,0,0.01-0.01,0.01-0.01c0,0,0,0.01,0.01,0.01
					c0.51,0.69,1.21,0.92,1.85,0.83c0.09,0.08,0.18,0.16,0.27,0.24c0.01,0.02,0.02,0.04,0.03,0.06c0.88,1.6,1.88,2.99,3.06,4.34
					c0.23,0.54,0.73,1.03,1.25,1.12c0.04,0.01,0.09,0.01,0.13,0.02c0.01,0,0.01,0,0.02,0c0.09,0.15,0.18,0.31,0.27,0.46
					c0.67,4.11,4.52,8.72,6.51,12.26c0.92,1.62,3.5,0.9,3.49-0.95C167.34,121.19,164.62,116.81,161.6,112.79z"/>
			</g>
		</g>
		<g>
			<g>
				<path class="st1" d="M166.47,156.1c0-0.04,0-0.07,0-0.11c0-0.06,0.03-0.11,0.06-0.14c0.05-0.59,0.11-1.17,0.13-1.76
					c0-0.12,0.09-0.2,0.19-0.23v-0.73c0-0.05,0.03-0.08,0.05-0.11c0.1-0.85,0.13-1.7,0.14-2.55c-0.02-1.68-0.15-3.36,0.2-5.02
					c0.02-0.1,0.08-0.15,0.16-0.17c-0.06-1.61-0.1-3.24,0.01-4.88c0.04-0.54,0.11-1.07,0.2-1.59c0.03-1.43,0.17-2.86,0.35-4.28
					c0-0.12,0.01-0.25,0.01-0.37c-0.01-1.35-0.01-2.7-0.03-4.06c0-0.06,0-0.12-0.01-0.19c-0.07-0.04-0.13-0.09-0.13-0.2
					c-0.02-1.29-0.12-2.57-0.14-3.85c-0.58-1.73-3.61-1.52-3.65,0.64c-0.04,2.07,0.8,3.83,0.86,5.89s-0.76,4.18-1.03,6.22
					c-0.69,5.21,0.72,10.38-0.47,15.56C162.94,156.12,165.33,157.13,166.47,156.1z"/>
			</g>
		</g>
		<g>
			<g>
				<path class="st1" d="M165.91,161.89c0-0.09,0.05-0.15,0.11-0.19c0.07-0.35,0.15-0.7,0.24-1.05c0.01-0.28,0.02-0.57,0.03-0.85
					v-0.38c0-0.05,0.03-0.08,0.05-0.11c0.05-1.1,0.13-2.21,0.14-3.32c0-0.06,0.03-0.11,0.06-0.14c0.05-0.59,0.11-1.17,0.13-1.76
					c0-0.12,0.09-0.2,0.19-0.23v-0.73c0-0.05,0.03-0.08,0.05-0.11c0.04-0.37,0.07-0.74,0.09-1.11c-0.75-1.49-3.52-1.2-3.56,0.87
					c-0.06,2.98-0.29,5.94-0.69,8.9c-0.25,1.85,1.93,2.24,3.08,1.23C165.86,162.57,165.9,162.23,165.91,161.89z"/>
			</g>
		</g>
		<g>
			<g>
				<path class="st1" d="M163.95,162.16c-13.77,1.75-27.23,4.3-41.08,2.01c-1.81-0.3-2.83,1.78-2.11,2.93
					c0.01,0,0.01-0.01,0.02-0.01c0.21,0.01,0.4,0.04,0.59,0.08c0.04-0.05,0.1-0.08,0.18-0.08c0.08-0.01,0.16-0.03,0.24-0.04
					c0.19-0.06,0.3,0.1,0.29,0.25c0.01,0,0.01,0.01,0.01,0.02c0.88-0.03,1.76-0.05,2.65-0.03c0.92-0.07,1.84-0.06,2.76,0.12
					c0.11,0.02,0.17,0.11,0.18,0.21c0.7-0.1,1.4-0.19,2.11-0.22c0.22-0.01,0.28,0.21,0.2,0.36c0.55-0.01,1.11,0.04,1.66,0.05
					c0.48,0.01,0.97,0.01,1.45,0.01c0.55-0.04,1.1-0.05,1.65,0c0.03-0.1,0.1-0.17,0.22-0.16c1.34,0.1,2.75-0.14,4.06,0.26
					c0.04,0.01,0.05,0.04,0.07,0.06c1.27-0.19,2.54-0.26,3.82-0.27c0.03-0.09,0.09-0.17,0.21-0.17c1.13,0,2.25,0.02,3.37,0.17
					c0.5-0.08,1-0.17,1.5-0.24c0.13-0.04,0.26-0.06,0.39-0.11c0.08-0.03,0.14-0.01,0.19,0.02c2.42-0.33,4.82-0.53,7.3-0.67
					c1.76-0.09,3.51-0.28,5.26-0.47c0.22-0.02,0.45-0.04,0.69-0.05c0.7-0.09,1.4-0.18,2.11-0.27c0.91-0.12,1.47-0.75,1.68-1.46
					c0.03-0.2,0.06-0.41,0.1-0.61C165.74,162.89,165.16,162.01,163.95,162.16z"/>
			</g>
		</g>
		<g>
			<g>
				<path class="st1" d="M119.16,144.28c-5.14-9.68,6.06-12.85,12.58-16.07c-0.76-0.98-1.51-1.96-2.27-2.94
					c-3.8,4.39-19.96,20.94-11.28,26.66c7.32,4.83,13.57-13.99,11.29-18.81c-1.61-3.4-5.31-2.25-7.63-0.21
					c-3.05,2.69-6.64,9.94-5.64,14.04c0.66,2.74,3.38,3.33,5.26,1.36c4.1-4.31,5.82-12.67,6.59-18.27c0.19-1.36-0.79-2.72-2.31-2.31
					c-3.47,0.95-4.5,4.45-5.59,7.56c-1.07,3.08-4.16,10.61-2.03,13.73c1.31,1.93,3.45,1.62,4.77,0.04
					c3.12-3.73,3.53-10.79,3.55-15.42c0.01-1.52-1.57-2.21-2.82-1.62c-5.54,2.62-8.1,10.48-9.35,16.01
					c-0.46,2.03,2.33,3.34,3.43,1.44c3.49-6.05,5.4-12.47,5.84-19.44c0.1-1.6-2.14-2.5-3.2-1.33c-4.47,4.93-6.69,10.77-6.5,17.44
					c0.03,1.03,0.84,1.86,1.88,1.88c5.9,0.1,10.84-11.16,6.77-15.27c-0.45-0.46-1.2-0.69-1.82-0.48c-4.66,1.54-5.88,9.55-6.39,13.65
					c-0.18,1.4,1.73,2.35,2.82,1.62c4.09-2.74,5.01-9.56,5.64-14.07c0.33-2.36-2.75-3.3-3.62-1c-1.97,5.27-2.44,10.43-1.68,15.99
					c0.1,0.72,1.08,1.47,1.81,1.38c6.49-0.83,6.88-12.8,7.59-17.75c-1.23-0.17-2.46-0.33-3.68-0.5c-0.32,5.74-0.64,11.47-0.96,17.21
					c-0.12,2.09,3.25,2.57,3.68,0.5c1.17-5.56,2.34-11.13,3.51-16.69c-1.23-0.17-2.46-0.33-3.68-0.5
					c-0.59,5.92-1.18,11.84-1.77,17.76c1.25,0,2.5,0,3.75,0c0.42-6.55,1.51-12.93,3.26-19.25c-1.23-0.17-2.46-0.33-3.68-0.5
					c0.06,6.33-0.19,12.63-0.75,18.94c-0.18,2.08,3.33,2.59,3.68,0.5c1.03-6.02,0.89-12.2,3.14-17.95c-1.21,0-2.41,0-3.62,0
					c0.73,5.27,1.16,10.56,1.33,15.88c0.08,2.43,3.6,2.4,3.75,0c0.4-6.19,0.8-12.38,1.2-18.58c-1.23,0.17-2.46,0.33-3.68,0.5
					c2.52,6.6,1.65,15.06,1.92,22.07c1.25,0,2.5,0,3.75,0c-0.91-7.63-1.15-15.24-0.71-22.91c-1.25,0-2.5,0-3.75,0
					c0.81,8.32,0.97,16.64,0.48,24.99c1.16-0.32,2.33-0.63,3.49-0.95c-3.14-4.79-2.82-12.61-3.34-18.16
					c-0.18-1.92-3.37-2.76-3.68-0.5c-1.05,7.62-2.1,15.24-3.16,22.86c1.23,0.17,2.46,0.33,3.68,0.5
					c-1.07-9.11-0.23-17.96,2.58-26.71c-1.23-0.17-2.46-0.33-3.68-0.5c0.57,7.61,0.52,15.58,2.64,22.96c0.48,1.66,3.29,1.91,3.62,0
					c0.44-2.59,0.88-5.19,1.33-7.78c0.21-1.25,0.27-6.13,1.56-6.76c-0.86-0.22-1.71-0.45-2.57-0.67c1.07,2.39,2.68,9.96,6.32,9.77
					c3.94-0.21,3.32-7.14,5.22-9.18c-0.98-0.13-1.96-0.25-2.94-0.38c1.49,3.15,2.55,6.33,3.32,9.72c0.54,2.35,4.15,1.36,3.62-1
					c-0.85-3.72-2.07-7.18-3.7-10.62c-0.51-1.08-2.17-1.2-2.94-0.38c-1.42,1.51-2.72,3.79-2.63,5.96c0.1,2.71,0.5,2.05-0.56-0.31
					c-0.82-1.83-1.64-3.66-2.46-5.49c-0.44-0.97-1.74-1.08-2.57-0.67c-1.79,0.87-2.05,2.27-2.45,4.14
					c-0.9,4.16-1.44,8.45-2.16,12.64c1.21,0,2.41,0,3.62,0c-2.02-7.03-1.96-14.71-2.51-21.97c-0.16-2.08-3.02-2.57-3.68-0.5
					c-2.9,9.03-3.82,18.28-2.71,27.7c0.22,1.88,3.37,2.79,3.68,0.5c1.05-7.62,2.1-15.24,3.16-22.86c-1.23-0.17-2.46-0.33-3.68-0.5
					c0.58,6.13,0.39,14.76,3.85,20.05c1.04,1.58,3.39,0.93,3.49-0.95c0.48-8.35,0.32-16.66-0.48-24.99c-0.23-2.38-3.61-2.44-3.75,0
					c-0.44,7.67-0.2,15.28,0.71,22.91c0.28,2.33,3.85,2.47,3.75,0c-0.28-7.37,0.61-16.08-2.06-23.06c-0.75-1.96-3.54-1.69-3.68,0.5
					c-0.4,6.19-0.8,12.38-1.2,18.58c1.25,0,2.5,0,3.75,0c-0.18-5.66-0.68-11.27-1.46-16.87c-0.29-2.05-3.03-1.48-3.62,0
					c-2.26,5.78-2.11,11.91-3.14,17.95c1.23,0.17,2.46,0.33,3.68,0.5c0.56-6.31,0.81-12.61,0.75-18.94c-0.02-2.1-3.11-2.56-3.68-0.5
					c-1.84,6.65-2.95,13.37-3.39,20.24c-0.16,2.43,3.51,2.36,3.75,0c0.59-5.92,1.18-11.84,1.77-17.76c0.21-2.1-3.25-2.56-3.68-0.5
					c-1.17,5.56-2.34,11.13-3.51,16.69c1.23,0.17,2.46,0.33,3.68,0.5c0.32-5.74,0.64-11.47,0.96-17.21c0.12-2.07-3.38-2.61-3.68-0.5
					c-0.27,1.93-1.58,14.7-3.97,15c0.6,0.46,1.21,0.92,1.81,1.38c-0.66-4.87-0.03-9.41,1.68-13.99c-1.21-0.33-2.41-0.66-3.62-1
					c-0.43,3.06-1.17,9.98-3.92,11.83c0.94,0.54,1.88,1.08,2.82,1.62c0.27-2.18,1.2-7.35,2.2-8.54c-1.13,1.35-1.34,6.95-4.5,6.9
					c0.62,0.62,1.25,1.25,1.88,1.88c-0.16-5.66,1.6-10.6,5.4-14.79c-1.07-0.44-2.13-0.88-3.2-1.33c-0.4,6.31-2.18,12.07-5.33,17.54
					c1.14,0.48,2.28,0.96,3.43,1.44c1.04-4.59,2.99-11.58,7.62-13.77c-0.94-0.54-1.88-1.08-2.82-1.62c-0.01,2.89-0.26,5.7-1.04,8.51
					c-0.44,1.6-1.01,3.16-1.72,4.66c1.13-0.66,1.73-1.58,1.79-2.76c1.1-2.9,1.33-11.7,5.02-12.71c-0.77-0.77-1.54-1.54-2.31-2.31
					c-0.74,5.42-3,9.71-4.65,14.8c-0.62,1.92,0.53-0.3,0.73-0.71c0.66-1.36,0.94-2.92,1.65-4.29c0.52-0.99,1.02-2.04,1.96-2.72
					c0.79-1.42,1.25-1.38,1.41,0.13c0.55,0.89,0.57,1.82,0.07,2.78c-0.3,2.07-1.38,5.81-2.85,7.28c-0.29,0.48-0.57,0.95-0.86,1.43
					c-0.64-0.76-1.27-1.51-1.91-2.27c-0.13-0.98,1.32-2.99,1.84-3.88c2.83-4.91,6.61-9.39,10.3-13.66c1.4-1.62-0.33-3.9-2.27-2.94
					c-4.63,2.29-10.28,3.48-13.45,7.92c-2.87,4.03-2.74,9.02-0.48,13.27C117.06,148.31,120.3,146.41,119.16,144.28L119.16,144.28z"
					/>
			</g>
		</g>
		<g>
			<g>
				<path class="st1" d="M163.89,122.85c-1.39-3.09-3.65-5.82-5.23-8.84c-1.53-2.93-3.2-5.46-5.45-7.91
					c-3.32-3.62-7.86-8.1-13.13-5.69c-0.86,0.84-1.78,1.61-2.71,2.35c-0.01,0.04,0,0.08-0.03,0.12c-0.29,0.36-1.24,1.54-1.91,1.48
					c-0.75,0.79-1.51,1.57-2.37,2.2c-2.51,1.85-4.99,3.16-7.01,5.61c-2.32,2.82-4.21,6.07-6.23,9.1c-1.73,2.59-4.07,5.25-4.59,8.39
					c-0.38,2.28,1.61,3.7,3.67,2.82c0.18-0.08,0.35-0.17,0.52-0.25c0.29,1.85,2.57,3.24,4.17,1.51c0.01-0.01,0.02-0.02,0.03-0.03
					c0.07-0.05,0.14-0.09,0.2-0.15c0.22-0.19,0.42-0.39,0.64-0.58c0.39,0.65,1.11,1.12,1.88,1.25c0.19,1.18,1.43,2.08,2.64,2.1
					c-0.89,5.39-1.38,10.85-1.45,16.37c-0.01,0.96,0.53,1.67,1.26,2.08c0.01,0.1,0.01,0.2,0.01,0.3c0.15,2.71,4.19,3.52,4.91,0.66
					c0.07-0.28,0.13-0.57,0.2-0.86c0.33,0.46,0.76,0.9,1.36,1.34c1.65,1.22,3.65-0.47,3.76-2.16c0-0.03,0-0.07,0.01-0.1
					c0.27,0.17,0.57,0.29,0.89,0.34c0.65,0.29,1.41,0.33,2.06,0.13c0.3,0.47,0.77,0.77,1.3,0.91c1.5,0.67,3.48,0.04,3.41-2.11h0.06
					c-0.03-0.21-0.05-0.43-0.08-0.65c-0.01-0.26-0.02-0.52-0.02-0.78c1.4,0.73,3.33,0.25,3.55-1.61c0.6,0.35,1.38,0.37,2.1,0.13
					c0.74,0.68,1.81,0.83,2.69,0.45c0.1,0.08,0.21,0.15,0.33,0.2c-1.69,3.83-5.71,9.77-1.33,13.09c3.65,2.76,9.1,2.35,11.08-2
					c1.39-3.05,0.46-6.02,0.32-9.18c-0.13-3.22,0.68-6.38,0.72-9.61C166.16,137.1,166.45,128.54,163.89,122.85z M134.64,135.6
					c0.01-0.12,0.02-0.24,0.04-0.37h-0.06c0,0,0-0.01,0-0.01c0.01-0.11,0-0.21,0-0.32c0.05,0.24,0.1,0.47,0.16,0.7
					C134.73,135.6,134.69,135.6,134.64,135.6z M154.61,118.31c-1.19-0.71-3.03-0.33-3.62,0.97c-1.28-0.9-3.43-0.4-3.92,1.18
					c-1.34-0.01-2.77,0.88-2.72,2.44c-0.23-0.38-0.47-0.75-0.73-1.11c-0.2-1.15-0.42-2.29-0.64-3.43c-0.43-2.16-2.73-2.2-4.03-1.04
					c0,0,0-0.01,0-0.01c0.19-0.27,0.38-0.53,0.56-0.8c1.6-2.33-2.04-5.14-3.93-3.03c-0.49,0.55-0.97,1.1-1.46,1.66
					c-0.42-0.78-1.19-1.35-2.05-1.38c1.47-1.28,3.04-2.46,4.82-3.85c1.31-1.03,2.26-2.5,3.54-3.49c3.18-2.46,5.13-0.97,7.65,1.45
					c3.13,3.01,5.02,6.43,7.08,10.18c0.02,0.04,0.04,0.07,0.06,0.11C155.01,118.18,154.81,118.24,154.61,118.31z"/>
			</g>
		</g>
		<g>
			<g>
				<path class="st1" d="M113.03,127.8c-2.46,2.56-6.81,7.75-5.14,11.67c1.81,4.25,6.93,1.53,9.03-0.85
					c2.13-2.42,4.67-6.73,1.56-9.38c-3.72-3.17-7.42,1.83-8.48,5.05c-0.64,1.95,1.91,4.13,3.67,2.82c2.96-2.2,9.1-8.68,3.84-11.73
					c-0.96-0.56-2.25-0.4-3.03,0.39c-1.02,1.03-2.04,2.05-3.06,3.08c-2.3,2.32,1.11,5.59,3.54,3.54
					c6.64-5.62,13.29-11.23,19.93-16.85c1.63-1.38,3.26-2.76,4.89-4.14c1.08-0.91,3.38-3.72,4.78-3.93c2.79-0.42,8,9.29,7.8,12.18
					c1.25-0.72,2.51-1.44,3.76-2.16c-1.31-0.59-2.08-4.12-2.7-5.45c-0.76-1.64-1.61-3.32-2.64-4.81c-1.6-2.31-3.51-4.02-6.33-4.55
					c-1.99-0.38-4.1,1.7-2.82,3.67c3.1,4.78,6.34,9.39,7.15,15.15c1.61-0.44,3.21-0.89,4.82-1.33c-2.05-5.02-4.66-12.96-10.31-14.81
					c-2.15-0.7-3.83,1.85-2.82,3.67c1.75,3.16,6.3,8.98,5.33,12.76c1.22-0.5,2.45-1,3.67-1.49c-3.02-1.64-6.44-18-12.59-12.92
					c-1.91,1.58-1.37,3.91-0.5,5.87c0.94,2.11,2.41,4.14,3.77,6c0.93,1.28,4.71,4.71,3.82,6.38c1.52,0.2,3.05,0.4,4.57,0.6
					c-0.29-0.83-0.58-1.67-0.87-2.5c-1.05-3.02-5.88-1.72-4.82,1.33c0.29,0.83,0.58,1.67,0.87,2.5c0.66,1.92,3.5,2.61,4.57,0.6
					c3.01-5.64-3.07-10-5.81-14.36c-0.63-1-1.22-2.02-1.78-3.07c-0.3,0.89-0.6,1.77-0.91,2.66c0.05,1.44,2.05,4.43,2.73,5.95
					c1.04,2.35,2.14,4.04,4.43,5.28c1.39,0.75,3.26,0.11,3.67-1.49c1.54-5.99-3.07-11.62-5.84-16.61c-0.94,1.22-1.88,2.45-2.82,3.67
					c3.06,1,5.77,8.75,6.81,11.32c1.23,3,5.27,1.87,4.82-1.33c-0.87-6.19-4.33-11.21-7.65-16.35c-0.94,1.22-1.88,2.45-2.82,3.67
					c6.82,1.29,4.84,11.78,10.47,14.31c1.77,0.79,3.62-0.15,3.76-2.16c0.35-5.18-3.34-9.5-6.38-13.36
					c-2.65-3.36-5.12-6.02-9.14-3.16c-5.35,3.81-10.22,8.64-15.24,12.89c-5.06,4.28-10.12,8.55-15.17,12.83
					c1.18,1.18,2.36,2.36,3.54,3.54c1.02-1.03,2.04-2.05,3.06-3.08c-1.01,0.13-2.02,0.26-3.03,0.39c-1.03-0.6-3.15,2.58-3.84,3.1
					c1.22,0.94,2.45,1.88,3.67,2.82c0.2-2.74-0.13-3.14-0.99-1.18c-1.3,3.19-1.53,3.81-0.69,1.87c1.04-1.82,1.95-3.42,3.43-4.97
					C118.8,129.01,115.27,125.47,113.03,127.8L113.03,127.8z"/>
			</g>
		</g>
		<g>
			<g>
				<path class="st1" d="M110.71,131.13c-1.79,0.59-2.97,1.4-4.35,2.7c-2.21,2.09-4.47,3.81-6.9,5.61c-2.7,1.99-3.93,4.74-1.91,7.7
					c1.43,2.1,4.31,3.84,6.23,5.48c2.44,2.09,4.84,4.22,7.33,6.26c1.57,1.28,3.13,2.51,5.07,3.19c1.3,0.46,7.16,0.74,7.57,1.78
					c0.21-0.81,0.43-1.62,0.64-2.43c1.15-1.29-7.92-8.28-9.24-9.53c-3.52-3.31-6.89-6.76-10.17-10.31
					c-0.17,1.31-0.34,2.62-0.51,3.93c2.98-1.84,6-3.59,9.09-5.25c-1.14-1.14-2.28-2.28-3.42-3.42c-1.58,2.2-2.71,4.5-3.6,7.06
					c-0.87,2.49,2.46,4.01,4.18,2.43c1.51-1.38,2.99-2.6,4.65-3.8c2.57-1.85,0.16-6.16-2.52-4.32c-2.71,1.86-4.79,3.93-6.67,6.62
					c-1.61,2.31,2.08,5.19,3.93,3.03c2.15-2.53,4.31-5.06,6.46-7.59c-1.31-1.01-2.62-2.02-3.93-3.03c-1.57,2.76-2.78,5.55-3.7,8.59
					c-0.74,2.41,2.45,4.18,4.18,2.43c1.72-1.74,3.45-3.47,5.17-5.21c-1.31-1.01-2.62-2.02-3.93-3.03c-1.31,2.59-2.47,5.23-3.51,7.94
					c-0.91,2.36,2.56,4.2,4.18,2.43c1.63-1.78,3.02-3.61,4.29-5.66c-1.44-0.84-2.88-1.68-4.32-2.52c-1.62,3.13-3,6.31-4.2,9.62
					c-1.01,2.8,3.06,4.15,4.57,1.93c1.38-2.04,2.77-4.08,4.15-6.12c-1.52-0.64-3.05-1.28-4.57-1.93c-0.84,2.32-1.68,4.63-2.51,6.95
					c-0.93,2.56,2.45,3.89,4.18,2.43c1.32-1.11,2.63-2.22,3.95-3.33c-1.42-0.59-2.85-1.18-4.27-1.77c0.22,1.15,0.2,2.3-0.06,3.44
					c-0.48,2.68,3.04,4.49,4.57,1.93c0.54-0.91,1.08-1.82,1.62-2.73c-1.55-0.42-3.11-0.84-4.66-1.26c-0.12,1.27-0.04,1.77,0.22,3.02
					c0.43,2.04,3.64,2.51,4.57,0.6c0.62-1.26,0.87-1.88,1.22-3.24c-1.61-0.44-3.21-0.89-4.82-1.33c-0.31,1.64-0.61,3.28-0.92,4.92
					c-0.58,3.14,3.82,4.43,4.82,1.33c0.53-1.64,1.06-3.28,1.59-4.92c-1.64-0.22-3.27-0.44-4.91-0.66c-0.17,1.86-0.24,3.63-0.21,5.49
					c0.05,2.92,3.98,3.27,4.91,0.66c0.66-1.84,1.12-3.65,1.42-5.58c-1.64-0.22-3.27-0.44-4.91-0.66c0.15,1.61,0.3,3.22,0.45,4.83
					c0.24,2.61,4.28,3.63,4.91,0.66c0.24-1.15,0.49-2.31,0.73-3.46c-1.61,0-3.21,0-4.82,0c0.39,1.77,0.78,3.53,1.17,5.3
					c0.66,2.98,4.6,1.92,4.91-0.66c0.23-1.91,0.46-3.81,0.7-5.72c-1.67,0-3.33,0-5,0c0.12,1.6,0.24,3.21,0.36,4.81
					c1.64-0.22,3.27-0.44,4.91-0.66c-0.27-1.4-0.35-1.61-1.21-2.74c-1.31-1.72-3.82-1.56-4.57,0.6c-0.62,1.79-1.02,3.48-0.35,5.3
					c0.28,0.77,0.86,1.6,1.75,1.75c1.51,0.26,2.9,0.12,4.44,0.01c3.19-0.23,3.22-5.23,0-5c-1.03,0.09-2.07,0.15-3.11,0.16
					c0.58,0.58,1.16,1.16,1.75,1.75c0.12-0.88,0.23-1.76,0.35-2.64c-1.52,0.2-3.05,0.4-4.57,0.6c0.24,0.52,0.47,1.03,0.71,1.55
					c0.53,2.74,5.12,2.15,4.91-0.66c-0.12-1.6-0.24-3.21-0.36-4.81c-0.25-3.27-4.62-3.16-5,0c-0.23,1.91-0.46,3.81-0.7,5.72
					c1.64-0.22,3.27-0.44,4.91-0.66c-0.39-1.77-0.78-3.53-1.17-5.3c-0.52-2.37-4.31-2.4-4.82,0c-0.24,1.15-0.49,2.31-0.73,3.46
					c1.64,0.22,3.27,0.44,4.91,0.66c-0.15-1.61-0.3-3.22-0.45-4.83c-0.24-2.57-4.44-3.67-4.91-0.66c-0.3,1.94-0.76,3.74-1.42,5.58
					c1.64,0.22,3.27,0.44,4.91,0.66c-0.03-1.86,0.04-3.64,0.21-5.49c0.27-2.92-4.08-3.23-4.91-0.66c-0.53,1.64-1.06,3.28-1.59,4.92
					c1.61,0.44,3.21,0.89,4.82,1.33c0.31-1.64,0.61-3.28,0.92-4.92c0.58-3.12-4.03-4.49-4.82-1.33c-0.24,0.68-0.47,1.37-0.71,2.05
					c1.52,0.2,3.05,0.4,4.57,0.6c-0.01-0.56-0.03-1.13-0.04-1.69c0.24-2.57-3.47-3.26-4.66-1.26c-0.54,0.91-1.08,1.82-1.62,2.73
					c1.52,0.64,3.05,1.28,4.57,1.93c0.3-1.66,0.42-3.08,0.24-4.77c-0.23-2.21-2.54-3.23-4.27-1.77c-1.32,1.11-2.63,2.22-3.95,3.33
					c1.39,0.81,2.79,1.62,4.18,2.43c0.84-2.32,1.68-4.63,2.51-6.95c1.01-2.8-3.06-4.15-4.57-1.93c-1.38,2.04-2.77,4.08-4.15,6.12
					c1.52,0.64,3.05,1.28,4.57,1.93c1.05-2.9,2.28-5.69,3.69-8.42c1.47-2.85-2.62-5.28-4.32-2.52c-1.03,1.69-2.17,3.19-3.5,4.65
					c1.39,0.81,2.79,1.62,4.18,2.43c0.89-2.31,1.89-4.54,3.01-6.75c1.25-2.46-1.85-5.12-3.93-3.03c-1.72,1.74-3.45,3.47-5.17,5.21
					c1.39,0.81,2.79,1.62,4.18,2.43c0.8-2.62,1.84-5.02,3.2-7.39c1.36-2.38-2.03-5.25-3.93-3.03c-2.15,2.53-4.31,5.06-6.46,7.59
					c1.31,1.01,2.62,2.02,3.93,3.03c1.45-2.07,2.8-3.4,4.88-4.83c-0.84-1.44-1.68-2.88-2.52-4.32c-1.98,1.43-3.86,2.93-5.66,4.58
					c1.39,0.81,2.79,1.62,4.18,2.43c0.76-2.19,1.75-3.99,3.09-5.86c1.54-2.15-1.39-4.52-3.42-3.42c-3.08,1.66-6.11,3.41-9.09,5.25
					c-1.41,0.87-1.61,2.73-0.51,3.93c5.12,5.54,10.51,10.82,16.21,15.76c2.25,1.95,7.06,7.67,10.27,4.07
					c0.55-0.62,0.97-1.59,0.64-2.43c-0.95-2.42-2.85-3.62-5.34-4.22c-1.34-0.32-2.76-0.29-4.11-0.59c-2.73-0.61-4.47-2.37-6.55-4.12
					c-2.02-1.7-4.01-3.43-6.02-5.14c-0.84-0.72-4.51-3.06-4.52-3.86c-0.02-1.55,3.41-3.08,4.42-3.91c1.71-1.4,3.41-4,5.57-4.72
					C115.08,134.95,113.77,130.12,110.71,131.13L110.71,131.13z"/>
			</g>
		</g>
		<g>
			<g>
				<path class="st1" d="M153.59,153.89c0.19,0.43,0.39,0.85,0.58,1.28c1.22-0.94,2.45-1.88,3.67-2.82c-1.76-0.9-3.4-1.9-5.02-3.04
					c-1.99-1.41-4.89,1.43-3.42,3.42c1.27,1.72,2.5,2.93,4.26,4.12c2.57,1.73,4.62-1.88,3.03-3.93c-1.25-1.61-2.64-2.81-4.33-3.91
					c-2.07-1.34-4.8,1.34-3.42,3.42c0.86,1.29,1.7,2.31,2.91,3.3c2.44,2.01,5.82-1.18,3.54-3.54c-1.71-1.76-4.58-3.95-7.06-2.41
					c-0.98,0.61-1.4,1.71-1.15,2.82c0.45,2,2.13,3.29,3.93,4.1c2.41,1.08,5.27-1.84,3.03-3.93c-1.59-1.48-3-2.29-5.07-2.91
					c-1.9-0.56-3.49,1.27-3.08,3.08c0.36,1.56,0.68,2.06,1.78,3.2c1.01-1.31,2.02-2.62,3.03-3.93c-1.87-1.17-3.38-1.36-5.5-0.75
					c-1.82,0.52-2.42,2.83-1.1,4.18c0.68,0.7,1.05,0.99,1.93,1.42c2.87,1.4,5.28-2.6,2.52-4.32c-2.47-1.54-6.6-2.69-8.02,0.78
					c-1.2,2.92,1.54,4.87,4.16,4.3c2.5-0.55,2.26-4.14,0-4.82c-1.74-0.52-3.32-1.22-5.12-0.69c-0.76,0.22-1.62,0.9-1.75,1.75
					c-0.03,0.21-0.06,0.42-0.09,0.62c-0.15,1.03,0.08,2.32,1.15,2.82c0.16,0.07,0.31,0.15,0.47,0.22c0.64-1.52,1.28-3.05,1.93-4.57
					c-2.37-0.9-4.34-0.64-6.47,0.7c1.22,0.5,2.45,1,3.67,1.49c-0.52-1.87-1.93-3.01-3.93-2.75c-2.98,0.39-2.57,2.94-4.11,4.75
					c1.39,0.37,2.79,0.74,4.18,1.1c-2.27-7.5-10.6-0.48-8.92,5.09c1.14,3.79,6.57,2.28,9.39,2.14c3.25-0.16,6.52-0.24,9.77-0.5
					c0.84-0.07,1.68-0.13,2.51-0.26c1.7-0.25,3.75,0,3.11-1.76c1.12,3.08,5.28,1.82,4.82-1.33c-0.48-3.26,0.46-6.07-3.74-6.85
					c-1.98-0.37-4.08,0.29-5.99,0.71c-4,0.87-7.68,1.08-11.74,0.37c-3.15-0.55-4.5,4.27-1.33,4.82c3.35,0.58,6.64,0.84,10.03,0.43
					c1.81-0.22,3.51-0.78,5.3-1.03c3.54-0.5,2.29,0.38,2.66,2.88c1.61-0.44,3.21-0.89,4.82-1.33c-1.58-4.34-5.39-2.33-8.94-1.84
					c-3.39,0.47-6.86,0.46-10.27,0.63c-1.64,0.08-3.3,0.25-4.95,0.25c-0.17,0.46-0.35,0.92-0.52,1.38c0.9-1.11,0.63-1.94-0.81-2.47
					c0.51,1.68,2.91,2.59,4.18,1.1c0.43-0.51,1.03-1.03,1.26-1.67c0.13-0.28,0.23-0.57,0.32-0.87c0.55-1.03-0.08-1.59-1.89-1.67
					c0.42,1.52,2.3,2.36,3.67,1.49c0.87-0.06,1.75-0.13,2.62-0.19c2.63,1,4.48-3.36,1.93-4.57c-0.16-0.07-0.31-0.15-0.47-0.22
					c0.38,0.94,0.77,1.88,1.15,2.82c0.03-0.21,0.06-0.42,0.09-0.62c-0.58,0.58-1.16,1.16-1.75,1.75c0.37-0.11,2.16,0.6,2.46,0.69
					c0-1.61,0-3.21,0-4.82c-0.25,0.05-0.5,0.11-0.75,0.16c0.81,0.21,1.62,0.43,2.43,0.64c-0.18-0.2-0.37-0.4-0.55-0.6
					c0.21,0.81,0.43,1.62,0.64,2.43c-0.29,0.78,0,1.25,0.89,1.42c0.84-1.44,1.68-2.88,2.52-4.32c-0.31-0.21-0.61-0.42-0.92-0.64
					c-0.37,1.39-0.74,2.79-1.1,4.18c0.55,0.08,1.1,0.16,1.64,0.25c2.44,1.52,4.98-1.91,3.03-3.93c-0.17-0.33-0.33-0.66-0.5-0.99
					c-1.03,1.03-2.05,2.05-3.08,3.08c0.95,0.54,1.91,1.08,2.86,1.62c1.01-1.31,2.02-2.62,3.03-3.93c-0.7-0.15-1.24-0.52-1.63-1.11
					c-0.38,0.94-0.77,1.88-1.15,2.82c0.33,0.54,0.67,1.09,1,1.63c1.18-1.18,2.36-2.36,3.54-3.54c-0.87-0.6-1.58-1.36-2.13-2.29
					c-1.14,1.14-2.28,2.28-3.42,3.42c1.45,0.94,2.29,1.8,3.32,3.13c1.01-1.31,2.02-2.62,3.03-3.93c-0.82-0.78-1.65-1.55-2.47-2.33
					c-1.14,1.14-2.28,2.28-3.42,3.42c1.62,1.14,3.26,2.14,5.02,3.04c2.02,1.04,4.08-0.66,3.67-2.82c-0.23-1.21-0.34-1.49-1.08-2.48
					C155.99,148.83,151.64,151.32,153.59,153.89L153.59,153.89z"/>
			</g>
		</g>
		<g>
			<g>
				<path class="st1" d="M149.53,163.27c-0.21-0.41-0.27-0.81-0.16-1.26c-0.08,0.36,0.16-0.33,0.25-0.43
					c0.14-0.17,0.17-0.21,0.09-0.12c-0.14,0.14-0.04,0.07,0.28-0.21c0.13-0.05,0.26-0.1,0.39-0.15c-0.43,0.11-0.14,0.11,0.88,0.03
					c-0.69-0.1-1.3-0.12-1.93,0.25c-0.52,0.3-1.01,0.9-1.15,1.49c-0.27,1.19,0.36,2.87,1.75,3.08c0.66,0.1,1.25,0.15,1.89-0.07
					c0.72-0.25,1.27-0.67,1.74-1.27c0.89-1.15,0.95-2.58,0.3-3.86c-0.59-1.17-2.33-1.6-3.42-0.9
					C149.24,160.62,148.9,162.02,149.53,163.27L149.53,163.27z"/>
			</g>
		</g>
	</g>
	<rect x="78.02" y="42.85" transform="matrix(0.7071 -0.7071 0.7071 0.7071 -36.9497 83.1918)" width="7.86" height="86.71"/>
	<g>
		<g>
			<path d="M29.71,47.42c-0.38,1.26-0.76,2.41-0.48,3.73c0.17,0.79,1.38,0.45,1.21-0.33c-0.23-1.07,0.17-2.06,0.48-3.07
				C31.14,46.98,29.94,46.65,29.71,47.42L29.71,47.42z"/>
		</g>
	</g>
	<g>
		<g>
			<path d="M31.11,51.96c-0.13-0.65-0.22-1.31-0.26-1.97c-0.03-0.47-0.14-1.14,0.25-1.49c0.6-0.54-0.29-1.42-0.88-0.88
				c-1.17,1.05-0.58,3.36-0.31,4.68C30.06,53.08,31.27,52.74,31.11,51.96L31.11,51.96z"/>
		</g>
	</g>
	
		<rect x="30.99" y="48.57" transform="matrix(0.699 -0.7151 0.7151 0.699 -22.3441 49.0706)" class="st1" width="32.27" height="5.01"/>
	<g>
		<g>
			<path d="M36.8,46.47c0.81-0.49,1.63-0.97,2.44-1.46c1.12-0.67,1.63-2.28,0.9-3.42c-0.73-1.13-2.22-1.61-3.42-0.9
				c-0.81,0.49-1.63,0.97-2.44,1.46c-1.12,0.67-1.63,2.28-0.9,3.42C34.11,46.71,35.6,47.19,36.8,46.47L36.8,46.47z"/>
		</g>
	</g>
	<g>
		<g>
			<path d="M34,60.51c0.01,0.02,0.01,0.04,0.02,0.05c0.11-0.41,0.21-0.81,0.32-1.22c-0.02,0.02-0.03,0.03-0.05,0.05
				c0.41-0.11,0.81-0.21,1.22-0.32c-0.02-0.01-0.04-0.01-0.07-0.02c0.18,0.11,0.37,0.21,0.55,0.32c-0.84-0.66-1.54-1.59-2.14-2.47
				c-0.38-0.56-1.1-0.81-1.71-0.45c-0.55,0.32-0.83,1.15-0.45,1.71c0.54,0.79,1.13,1.54,1.79,2.24c0.7,0.74,1.64,1.66,2.63,0.71
				c0.3-0.29,0.47-0.82,0.32-1.22c-0.01-0.02-0.01-0.04-0.02-0.05c-0.24-0.63-0.84-1.06-1.54-0.87C34.27,59.13,33.76,59.87,34,60.51
				L34,60.51z"/>
		</g>
	</g>
	<g>
		<g>
			<path d="M35.15,58.58c-0.46-0.32-0.85-0.74-1.19-1.18c-0.34-0.43-1.08-0.45-1.51-0.2c-0.48,0.28-0.72,0.88-0.57,1.41
				c0.12,0.44,0.38,0.74,0.75,0.99c0.42-0.72,0.84-1.44,1.26-2.16c-0.24-0.13-0.19-0.02,0.16,0.32c-0.26-0.62-0.83-1.07-1.54-0.87
				c-0.59,0.16-1.13,0.91-0.87,1.54c0.21,0.5,0.47,0.94,0.99,1.17c0.61,0.28,1.34,0.18,1.71-0.45c0.36-0.62,0.11-1.33-0.45-1.71
				c-0.03-0.02-0.06-0.04-0.09-0.06c0.15,0.15,0.3,0.3,0.45,0.45c0.01,0.04,0.02,0.07,0.04,0.11c-0.7,0.41-1.39,0.81-2.09,1.22
				c0.48,0.62,1.06,1.12,1.7,1.57c0.55,0.39,1.39,0.1,1.71-0.45C35.97,59.67,35.71,58.97,35.15,58.58L35.15,58.58z"/>
		</g>
	</g>
	<g>
		<g>
			<path d="M34.03,59.58c0.08,0.07,0.15,0.13,0.23,0.2c1.21,1.05,2.86-0.56,1.77-1.77c-0.42-0.46-0.83-0.92-1.25-1.38
				c-0.59,0.59-1.18,1.18-1.77,1.77c0.95,0.84,1.88,1.86,3.13,0.89c0.55-0.43,0.41-1.32,0-1.77c-0.4-0.44-0.81-0.87-1.23-1.28
				c-0.59,0.59-1.18,1.18-1.77,1.77c0.59,0.48,1.19,0.92,1.84,1.32c1.03,0.63,2.43-0.66,1.71-1.71c-0.41-0.6-1-1.03-1.55-1.5
				c-0.5,0.65-1.01,1.31-1.51,1.96c0.45,0.32,0.91,0.64,1.36,0.96c1.07,0.75,2.28-0.69,1.71-1.71c-0.43-0.77-1.09-1.28-1.79-1.78
				c-0.42,0.72-0.84,1.44-1.26,2.16c0.16,0.08,0.32,0.15,0.45,0.27c0.51,0.45,1.27,0.5,1.77,0c0.46-0.46,0.5-1.31,0-1.77
				c-0.15-0.14-0.3-0.28-0.45-0.41c-0.59,0.59-1.18,1.18-1.77,1.77c0.23,0.2,0.46,0.39,0.72,0.54c1.08,0.66,2.32-0.64,1.71-1.71
				c-0.03-0.05-0.05-0.09-0.08-0.14c-0.36,0.63-0.72,1.25-1.08,1.88c0.07,0,0.14,0,0.22,0c1.3-0.01,1.62-1.65,0.63-2.33
				c-0.11-0.08-0.23-0.16-0.34-0.23c-0.22-0.17-0.23-0.15-0.03,0.05c0.04,0.32,0.08,0.64,0.13,0.96c0.01-0.03,0.01-0.06,0.02-0.09
				c-0.7,0.18-1.39,0.37-2.09,0.55c0.88,0.71,1.79,1.35,2.79,1.9c1.41,0.77,2.68-1.39,1.26-2.16c-0.8-0.44-1.57-0.93-2.28-1.5
				c-0.7-0.56-1.84-0.44-2.09,0.55c-0.28,1.11,0.59,1.6,1.37,2.13c0.21-0.78,0.42-1.55,0.63-2.33c-0.07,0-0.14,0-0.22,0
				c-0.95,0-1.55,1.06-1.08,1.88c0.03,0.05,0.05,0.09,0.08,0.14c0.57-0.57,1.14-1.14,1.71-1.71c-0.09-0.03-0.16-0.08-0.22-0.15
				c-1.2-1.06-2.96,0.68-1.77,1.77c0.15,0.14,0.3,0.28,0.45,0.41c0.59-0.59,1.18-1.18,1.77-1.77c-0.29-0.26-0.6-0.49-0.95-0.66
				c-1.46-0.7-2.57,1.22-1.26,2.16c0.35,0.25,0.68,0.5,0.89,0.88c0.57-0.57,1.14-1.14,1.71-1.71c-0.45-0.32-0.91-0.64-1.36-0.96
				c-1.15-0.81-2.6,1.04-1.51,1.96c0.35,0.3,0.9,0.61,1.16,0.99c0.57-0.57,1.14-1.14,1.71-1.71c-0.46-0.28-0.91-0.59-1.33-0.93
				c-0.52-0.42-1.26-0.51-1.77,0c-0.47,0.47-0.49,1.3,0,1.77c0.43,0.41,0.84,0.84,1.23,1.28c0-0.59,0-1.18,0-1.77
				c-0.03,0.02-0.06,0.05-0.09,0.07c0.29-0.12,0.59-0.24,0.88-0.37c0.38,0.16,0.48,0.17,0.3,0.03c-0.08-0.07-0.15-0.14-0.23-0.2
				c-0.15-0.14-0.31-0.27-0.46-0.41c-1.2-1.07-2.85,0.57-1.77,1.77c0.42,0.46,0.83,0.92,1.25,1.38c0.59-0.59,1.18-1.18,1.77-1.77
				c-0.08-0.07-0.15-0.13-0.23-0.2c-0.51-0.44-1.27-0.5-1.77,0C33.58,58.27,33.52,59.14,34.03,59.58L34.03,59.58z"/>
		</g>
	</g>
	<g>
		<g>
			<path d="M55.99,38.08c-0.31-0.21-0.62-0.41-0.93-0.61c-0.52-0.33-1.26-0.16-1.61,0.32c-0.38,0.51-0.33,1.17,0.1,1.64
				c-0.02-0.03-0.04-0.05-0.06-0.08c0.7-0.41,1.39-0.81,2.09-1.22c-0.29-0.23-0.6-0.44-0.89-0.68c-0.49-0.39-1.12-0.51-1.64-0.1
				c-0.45,0.36-0.68,1.09-0.32,1.61c0.23,0.33,0.48,0.65,0.75,0.96c0.5-0.65,1.01-1.31,1.51-1.96c-0.29-0.18-0.57-0.35-0.86-0.53
				c-0.92-0.57-2.14,0.38-1.84,1.41c0.18,0.6,0.52,1.02,1.02,1.36c0.56,0.38,1.39,0.11,1.71-0.45c0.36-0.62,0.11-1.33-0.45-1.71
				c0.04,0.03,0.11,0.08,0.13,0.13c-0.61,0.47-1.22,0.94-1.84,1.41c0.29,0.18,0.57,0.35,0.86,0.53c0.52,0.33,1.25,0.16,1.61-0.32
				c0.39-0.52,0.33-1.16-0.1-1.64c-0.13-0.15-0.24-0.29-0.36-0.45c-0.65,0.5-1.31,1.01-1.96,1.51c0.29,0.23,0.6,0.44,0.89,0.68
				c0.44,0.35,1,0.5,1.51,0.2c0.48-0.28,0.72-0.88,0.57-1.41c-0.11-0.4-0.3-0.72-0.58-1.02c-0.5,0.65-1.01,1.31-1.51,1.96
				c0.31,0.2,0.62,0.4,0.93,0.61c0.56,0.38,1.38,0.11,1.71-0.45C56.8,39.18,56.55,38.46,55.99,38.08L55.99,38.08z"/>
		</g>
	</g>
	<g>
		<g>
			<path d="M32.4,48.28c-1.44,3.39,0.33,5.99,2.93,8.12c1.23,1.01,3.01-0.75,1.77-1.77c-1.52-1.25-3.48-2.88-2.54-5.09
				C35.19,48.07,33.03,46.8,32.4,48.28L32.4,48.28z"/>
		</g>
	</g>
	<g>
		<g>
			<path d="M38.93,56.29c-0.66-0.37-1.23-0.8-1.76-1.33c-1.14-1.14-2.91,0.63-1.77,1.77c0.67,0.67,1.44,1.26,2.27,1.72
				C39.07,59.24,40.33,57.08,38.93,56.29L38.93,56.29z"/>
		</g>
	</g>
	<g>
		<g>
			<path d="M54.43,40.88c0.01,0,0.02,0,0.02-0.01c-0.51-0.29-1.03-0.58-1.54-0.87c0,0.01,0,0.02,0.01,0.04
				c0.4-0.53,0.8-1.05,1.21-1.58c-0.01,0-0.03,0-0.04,0c0.21,0.06,0.42,0.11,0.63,0.17c0.22,0.13-0.2-0.17-0.21-0.17
				c-0.52-0.43-1.26-0.51-1.77,0c-0.48,0.48-0.48,1.29,0,1.77c0.05,0.05,0.11,0.11,0.16,0.16c1.13,1.15,2.88-0.6,1.77-1.77
				c-0.16-0.16-0.31-0.33-0.47-0.49c-0.59,0.59-1.18,1.18-1.77,1.77c0.04,0.03,0.08,0.07,0.12,0.1c0.52,0.44,1.26,0.51,1.77,0
				c0.45-0.45,0.52-1.33,0-1.77c-0.29-0.25-0.58-0.46-0.92-0.63c-0.42,0.72-0.84,1.44-1.26,2.16c0.1,0.03,0.19,0.08,0.27,0.14
				c0.42-0.72,0.84-1.44,1.26-2.16c-0.16-0.08-0.31-0.15-0.47-0.23c-0.61-0.29-1.35-0.17-1.71,0.45c-0.33,0.56-0.15,1.4,0.45,1.71
				c0.1,0.05,0.2,0.1,0.29,0.15c0.32-0.76,0.64-1.52,0.96-2.28c-0.2-0.06-0.39-0.13-0.59-0.19c-1.32-0.43-2.27,1.71-0.96,2.28
				c0.08,0.03,0.16,0.07,0.24,0.1c0.32-0.76,0.64-1.52,0.96-2.28c-0.18-0.03-0.36-0.06-0.53-0.09c-0.66-0.12-1.35,0.18-1.54,0.87
				c-0.17,0.63,0.21,1.39,0.87,1.54c0.11,0.02,0.21,0.05,0.32,0.07c0.61,0.13,1.24-0.13,1.47-0.72c0.21-0.52,0.07-1.31-0.51-1.56
				c-0.46-0.2-0.9-0.42-1.34-0.65c-1.21-0.66-2.59,0.97-1.51,1.96c0.53,0.49,1.16,0.73,1.76,1.12c0.51,0.33,0.95,0.76,1.35,1.22
				c0.44,0.51,1.32,0.45,1.77,0c0.51-0.51,0.44-1.25,0-1.77c-0.45-0.53-0.96-0.97-1.52-1.38c-0.48-0.35-1.15-0.56-1.59-0.96
				c-0.5,0.65-1.01,1.31-1.51,1.96c0.44,0.24,0.88,0.45,1.34,0.65c0.32-0.76,0.64-1.52,0.96-2.28c-0.11-0.02-0.21-0.05-0.32-0.07
				c-0.22,0.8-0.44,1.61-0.66,2.41c0.18,0.03,0.36,0.06,0.53,0.09c0.61,0.11,1.23-0.11,1.47-0.72c0.21-0.52,0.07-1.31-0.51-1.56
				c-0.08-0.03-0.16-0.07-0.24-0.1c-0.32,0.76-0.64,1.52-0.96,2.28c0.2,0.06,0.39,0.13,0.59,0.19c1.34,0.44,2.22-1.63,0.96-2.28
				c-0.1-0.05-0.2-0.1-0.29-0.15c-0.42,0.72-0.84,1.44-1.26,2.16c0.16,0.08,0.31,0.15,0.47,0.23c1.43,0.69,2.65-1.31,1.26-2.16
				c-0.08-0.06-0.17-0.11-0.27-0.14c-0.62-0.27-1.34-0.18-1.71,0.45c-0.32,0.55-0.16,1.41,0.45,1.71c0.14,0.07,0.29,0.14,0.41,0.24
				c0.59-0.59,1.18-1.18,1.77-1.77c-0.04-0.03-0.08-0.07-0.12-0.1c-1.21-1.03-2.89,0.59-1.77,1.77c0.16,0.16,0.31,0.33,0.47,0.49
				c0.59-0.59,1.18-1.18,1.77-1.77c-0.05-0.05-0.11-0.11-0.16-0.16c-0.59,0.59-1.18,1.18-1.77,1.77c0.4,0.32,0.82,0.79,1.39,0.73
				c0.84-0.09,1.38-0.72,1.21-1.58c0-0.01,0-0.02-0.01-0.04c-0.14-0.69-0.92-1.01-1.54-0.87c-0.01,0-0.02,0-0.02,0.01
				C52.2,38.82,52.86,41.23,54.43,40.88L54.43,40.88z"/>
		</g>
	</g>
	<g>
		<g>
			<path d="M50.98,36.47c-6.38-2.13-11.47,4.49-14.91,8.85c-0.99,1.25,0.77,3.03,1.77,1.77c2.8-3.55,7.22-9.96,12.47-8.2
				C51.84,39.39,52.5,36.97,50.98,36.47L50.98,36.47z"/>
		</g>
	</g>
	<g>
		<g>
			<path d="M49.6,38.23c0.01,0.02,0.03,0.03,0.04,0.05c0.47-0.61,0.94-1.22,1.41-1.84c-0.02-0.01-0.04-0.02-0.06-0.03
				c-0.45-0.19-1.05,0.1-1.31,0.45c-0.32,0.43-0.31,0.91-0.1,1.39c0.01,0.03,0.03,0.06,0.04,0.09c0.36-0.63,0.72-1.25,1.08-1.88
				c-0.05,0-0.1-0.01-0.14-0.01c-1.29-0.08-1.63,1.71-0.63,2.33c0.1,0.06,0.2,0.12,0.29,0.2c0.42-0.72,0.84-1.44,1.26-2.16
				c-0.34-0.23-0.7-0.38-1.08-0.54c-0.63-0.25-1.37,0.27-1.54,0.87c-0.2,0.71,0.24,1.29,0.87,1.54c0.17,0.07,0.33,0.18,0.49,0.28
				c0.56,0.37,1.38,0.11,1.71-0.45c0.37-0.64,0.1-1.31-0.45-1.71c-0.09-0.07-0.19-0.14-0.29-0.2c-0.21,0.78-0.42,1.55-0.63,2.33
				c0.05,0,0.1,0.01,0.14,0.01c1.03,0.06,1.44-1.09,1.08-1.88c-0.01-0.03-0.03-0.06-0.04-0.09c-0.47,0.61-0.94,1.22-1.41,1.84
				c0.02,0.01,0.04,0.02,0.06,0.03c0.97,0.41,2.04-1,1.41-1.84c-0.01-0.02-0.03-0.03-0.04-0.05c-0.41-0.54-1.08-0.82-1.71-0.45
				C49.52,36.83,49.19,37.69,49.6,38.23L49.6,38.23z"/>
		</g>
	</g>
	<g>
		<g>
			<path d="M51.25,36.58c-0.36-0.21-0.75-0.33-1.17-0.3c-0.55,0.04-1.05,0.36-1.21,0.92c-0.14,0.5,0.08,1.19,0.57,1.41
				c0.26,0.12,0.5,0.23,0.78,0.28c0.66,0.11,1.35-0.18,1.54-0.87c0.17-0.6-0.2-1.42-0.87-1.54c-0.06-0.03-0.13-0.04-0.19-0.02
				c-0.21,0.78-0.42,1.55-0.63,2.33c-0.02-0.03-0.05-0.04-0.09-0.04C51.38,39.56,52.64,37.4,51.25,36.58L51.25,36.58z"/>
		</g>
	</g>
	<g>
		<g>
			<path d="M34.52,45.99c-0.19,0.06-0.37,0.13-0.53,0.25c0.5,0.65,1.01,1.31,1.51,1.96c0.34-0.4,0.7-0.78,1.13-1.08
				c-0.63-0.36-1.25-0.72-1.88-1.08c0.17-0.3,0.19-0.38,0.07-0.24c-0.06,0.06-0.12,0.12-0.17,0.18c-0.14,0.16-0.27,0.34-0.36,0.53
				c-0.58,1.23,0.91,2.58,1.96,1.51c0.43-0.44,0.99-0.75,1.41-1.19c0.38-0.4,0.52-0.87,0.95-1.22c0.53-0.42,0.44-1.33,0-1.77
				c-0.52-0.52-1.24-0.42-1.77,0c-0.47,0.37-0.77,0.84-1.07,1.35c0.1-0.18,0.11-0.11-0.06,0.01c-0.15,0.1-0.29,0.22-0.43,0.33
				c-0.29,0.23-0.55,0.47-0.81,0.73c0.65,0.5,1.31,1.01,1.96,1.51c0.12-0.24,0.35-0.41,0.51-0.65c0.21-0.33,0.31-0.7,0.3-1.09
				c-0.02-0.88-1.08-1.65-1.88-1.08c-0.61,0.43-1.16,0.9-1.64,1.47c-0.4,0.48-0.51,1.13-0.1,1.64c0.35,0.44,1.11,0.7,1.61,0.32
				c-0.02,0-0.04,0-0.06,0C36.71,47.9,36.05,45.49,34.52,45.99L34.52,45.99z"/>
		</g>
	</g>
	<g>
		<g>
			<path d="M40.2,40.82c-0.13,0.17-0.27,0.35-0.4,0.52c0.72,0.42,1.44,0.84,2.16,1.26c0.11-0.16,0.22-0.32,0.34-0.47
				c0.94-1.32-1.22-2.54-2.16-1.26c-1.81,2.47-4.41,4.46-6.49,6.69c-1.76,1.88-1.69,4.82-0.64,7.05c0.68,1.46,2.84,0.19,2.16-1.26
				c-1.56-3.33,1.39-4.97,3.37-7c1.28-1.32,2.68-2.74,3.77-4.22c-0.72-0.42-1.44-0.84-2.16-1.26c-0.11,0.16-0.22,0.32-0.34,0.47
				c-0.94,1.34,1.2,2.5,2.16,1.26c0.13-0.17,0.27-0.35,0.4-0.52C43.34,40.81,41.17,39.57,40.2,40.82L40.2,40.82z"/>
		</g>
	</g>
	<g>
		<g>
			<path d="M38.64,56.09c0.13,0.04,0.1,0.09,0.01-0.03c-0.09-0.13-0.22-0.25-0.33-0.36c-0.28-0.28-0.61-0.51-0.93-0.74
				c-0.55-0.4-1.39-0.09-1.71,0.45c-0.37,0.63-0.1,1.31,0.45,1.71c0.64,0.47,1.04,1.14,1.86,1.38
				C39.52,58.96,40.18,56.55,38.64,56.09L38.64,56.09z"/>
		</g>
	</g>
	<g>
		<g>
			<path d="M36.14,50.21c-0.39-0.53-0.78-1.07-1.17-1.6c-0.72,0.42-1.44,0.84-2.16,1.26c1.95,2.77,2.59,5.24,5.61,7.22
				c1.21,0.8,2.48-0.96,1.51-1.96c-1.87-1.93-2.95-4.34-3.59-6.91c-0.76,0.32-1.52,0.64-2.28,0.96c1.57,2.56,3.34,4.92,5.35,7.16
				c0.79,0.88,2.57-0.05,2.09-1.22c-1.17-2.82-3.53-4.92-4.49-7.82c-0.76,0.32-1.52,0.64-2.28,0.96c1.79,2.52,3.25,4.67,5.93,6.35
				c0.94,0.59,2.12-0.38,1.84-1.41c-0.66-2.39-3.29-4.88-4.75-6.83c-0.65,0.5-1.31,1.01-1.96,1.51c1.83,2.3,4.3,2.99,6.33,4.97
				c0.59-0.59,1.18-1.18,1.77-1.77c-1.19-1-2.02-2.69-3.22-3.56c-0.39-1.19-1.01-1.36-1.88-0.51c0.43,0.57,0.86,1.14,1.3,1.7
				c1.12,1.26,2.37,2.48,4.09,2.7c0.56,0.07,1.04-0.44,1.21-0.92c0.25-0.69,0.07-1.02-0.18-1.67c-0.49-1.26-4.1-4.32-3.66-5.6
				c-0.51,0.29-1.03,0.58-1.54,0.87c0.34,0.06,1.84,2.65,2.19,2.98c1.06,1,2.35,1.65,3.39,2.68c0.99,0.98,2.75-0.3,1.96-1.51
				c-1.6-2.48-3.9-4.7-5.26-7.28c-0.47,0.61-0.94,1.22-1.41,1.84c2.25,0.63,4.1,4.16,5.99,5.6c1.23,0.93,2.31-0.96,1.51-1.96
				c-1.63-2.06-3.12-4.18-4.52-6.4c-0.57,0.57-1.14,1.14-1.71,1.71c2.51,1.37,4.11,3.75,6.19,5.64c1,0.91,2.81-0.29,1.96-1.51
				c-1.65-2.39-3.3-4.77-4.94-7.16c-0.57,0.57-1.14,1.14-1.71,1.71c2.62,1.83,3.89,4.65,7.03,5.74c0.99,0.35,2.04-0.96,1.41-1.84
				c-1.86-2.59-4.17-4.85-6.33-7.19c-0.41,0.7-0.81,1.39-1.22,2.09c2.9,0.99,5.42,4.64,8.65,4.42c0.71-0.05,1.2-0.54,1.25-1.25
				c0.19-2.73-5.11-4.72-6.92-5.9c-1.35-0.88-2.61,1.28-1.26,2.16c0.5,0.33,5.72,3.17,5.68,3.74c0.42-0.42,0.83-0.83,1.25-1.25
				c-2.47,0.17-5.57-3.51-7.99-4.33c-1.25-0.43-2.01,1.23-1.22,2.09c1.99,2.17,4.21,4.29,5.93,6.69c0.47-0.61,0.94-1.22,1.41-1.84
				c-2.68-0.94-4.16-3.9-6.44-5.49c-1.01-0.71-2.41,0.7-1.71,1.71c1.65,2.39,3.3,4.77,4.94,7.16c0.65-0.5,1.31-1.01,1.96-1.51
				c-2.26-2.06-3.97-4.55-6.69-6.03c-1.06-0.58-2.4,0.61-1.71,1.71c1.51,2.4,3.15,4.69,4.91,6.91c0.5-0.65,1.01-1.31,1.51-1.96
				c-2.27-1.72-3.75-5.05-6.59-5.85c-1.09-0.3-1.91,0.89-1.41,1.84c1.39,2.65,3.64,4.77,5.26,7.28c0.65-0.5,1.31-1.01,1.96-1.51
				c-1.56-1.54-3.32-2.47-4.58-4.3c-0.56-0.81-1.04-1.8-2.1-2c-0.69-0.13-1.31,0.19-1.54,0.87c-0.37,1.1,0.2,2.05,0.75,3.01
				c0.58,1,3.15,4.1,3.09,4.27c0.4-0.31,0.8-0.61,1.21-0.92c-2.81-0.36-3.18-5.54-6.5-4.83c-0.41,0.09-0.78,0.47-0.87,0.87
				c-0.65,2.74,3.47,6.35,5.31,7.9c1.21,1.02,2.94-0.63,1.77-1.77c-1.99-1.94-4.55-2.73-6.33-4.97c-0.88-1.1-2.81,0.38-1.96,1.51
				c1.24,1.66,3.93,4.2,4.5,6.23c0.61-0.47,1.22-0.94,1.84-1.41c-2.29-1.43-3.52-3.32-5.03-5.45c-0.77-1.08-2.76-0.48-2.28,0.96
				c0.97,2.95,3.31,4.98,4.49,7.82c0.7-0.41,1.39-0.81,2.09-1.22c-1.86-2.08-3.5-4.28-4.96-6.65c-0.74-1.21-2.63-0.42-2.28,0.96
				c0.75,3,2.07,5.78,4.24,8.02c0.5-0.65,1.01-1.31,1.51-1.96c-2.57-1.69-3.08-4.01-4.72-6.33c-0.91-1.29-2.97-0.16-2.16,1.26
				c0.63,1.1,0.7,1.18,1.56,2.11C35.47,53.16,37.23,51.39,36.14,50.21L36.14,50.21z"/>
		</g>
	</g>
	<g>
		<g>
			<path d="M30.13,47.96c0.04-0.11,0.09-0.22,0.13-0.33c0.52-1.31-1.7-2.25-2.28-0.96c-0.8,1.75-1.62,3.38-1.04,5.35
				c0.58,1.96,2.16,3.28,3.79,4.38c1.34,0.9,2.59-1.26,1.26-2.16c-1.06-0.72-2.19-1.56-2.61-2.82c-0.43-1.28,0.24-2.35,0.76-3.49
				c-0.76-0.32-1.52-0.64-2.28-0.96c-0.04,0.11-0.09,0.22-0.13,0.33C27.13,48.79,29.54,49.44,30.13,47.96L30.13,47.96z"/>
		</g>
	</g>
	<g>
		<g>
			<path d="M29.18,48.96c5.58-6.29,14.2-19.54,23.53-11.77c1.23,1.02,3.01-0.74,1.77-1.77C43.52,26.3,34.23,39.51,27.41,47.2
				C26.35,48.4,28.11,50.17,29.18,48.96L29.18,48.96z"/>
		</g>
	</g>
	<g>
		<g>
			<path d="M29.03,46.17c-0.21,0.09-0.44,0.18-0.66,0.19c0.29,0.71,0.59,1.42,0.88,2.13c0.42-0.46,0.84-0.92,1.31-1.32
				c-0.65-0.5-1.31-1.01-1.96-1.51c-0.44,0.69-0.86,1.39-1.25,2.1c-0.78,1.41,1.38,2.67,2.16,1.26c0.39-0.72,0.81-1.42,1.25-2.1
				c0.33-0.52,0.15-1.26-0.32-1.61c-0.53-0.39-1.15-0.31-1.64,0.1c-0.48,0.4-0.89,0.86-1.31,1.32c-0.68,0.74-0.26,2.22,0.88,2.13
				c0.46-0.04,0.89-0.1,1.32-0.28c0.62-0.26,1.07-0.83,0.87-1.54C30.41,46.46,29.66,45.91,29.03,46.17L29.03,46.17z"/>
		</g>
	</g>
	<g>
		<g>
			<path d="M31.84,50.1c-0.18-0.6,0.31-1.11,0.72-1.57c0.78-0.87,1.58-1.68,2.25-2.64c0.78-1.11,0.2-2.78-0.9-3.42
				c-1.25-0.73-2.64-0.21-3.42,0.9c-0.84,1.2-2.05,2.08-2.8,3.37c-0.84,1.42-1.15,3.11-0.67,4.7C27.95,54.5,32.77,53.19,31.84,50.1
				L31.84,50.1z"/>
		</g>
	</g>
	<g>
		<g>
			<path d="M33.8,46.94c1.81-0.95,2.66-2.43,4.04-3.83c1.22-1.23,2.96-1.87,4.34-2.92c1.08-0.83,1.62-2.14,0.9-3.42
				c-0.61-1.06-2.35-1.71-3.42-0.9c-1.45,1.1-3.11,1.86-4.54,2.99c-1.44,1.15-2.19,2.89-3.84,3.76
				C28.43,44.13,30.96,48.44,33.8,46.94L33.8,46.94z"/>
		</g>
	</g>
	<g>
		<g>
			<path d="M41.85,39.49c1.55-1.14,4.53-3.66,6.41-1.83c2.31,2.25,5.85-1.29,3.54-3.54c-3.81-3.71-8.79-1.66-12.47,1.04
				C36.76,37.05,39.25,41.39,41.85,39.49L41.85,39.49z"/>
		</g>
	</g>
	<g>
		<g>
			<path d="M53.42,35.81c-1-2.47-2.67-3.98-5.45-4.07c-2.52-0.08-5.09,0.91-7.08,2.42c-1.08,0.82-1.62,2.15-0.9,3.42
				c0.61,1.06,2.35,1.71,3.42,0.9c0.74-0.56,4.55-2.92,5.19-1.34c0.51,1.26,1.66,2.12,3.08,1.75
				C52.87,38.57,53.92,37.06,53.42,35.81L53.42,35.81z"/>
		</g>
	</g>
	<g>
		<g>
			<path d="M99.28,145.97c-0.87-1.26-1.93-2.53-2.53-3.95c0,0.84,0,1.68,0,2.52c2.24-4.71,7.59-9.04,11.39-12.5
				c3.9-3.55,7.75-7.41,11.73-10.81c1.55-1.32,3.38-2.22,4.96-3.52c1.91-1.58,3.52-3.51,5.38-5.15c4.53-3.99,9.24-7.78,13.86-11.67
				c2.47-2.07-1.09-5.6-3.54-3.54c-5.33,4.49-11.03,8.76-16.01,13.63c-2.32,2.27-4.82,3.94-7.35,5.93c-2.36,1.86-4.13,4.36-6.4,6.34
				c-5.01,4.38-9.98,8.59-14.38,13.63c-1.31,1.5-3.65,3.38-4.09,5.43c-0.53,2.46,1.3,4.2,2.66,6.17
				C96.77,151.13,101.11,148.63,99.28,145.97L99.28,145.97z"/>
		</g>
	</g>
	<g>
		<g>
			<path d="M139.09,104.5c1.2-1.76,2.75-3.13,4.6-4.17c1.15-0.65,1.1-2.03,0.38-2.94c-0.15-0.19-0.3-0.38-0.45-0.57
				c-0.5-0.63-1.63-0.69-2.27-0.29c-3.12,1.94-5.69,4.5-7.66,7.61c-1.29,2.05,1.95,3.93,3.24,1.89c1.62-2.56,3.74-4.66,6.31-6.26
				c-0.76-0.1-1.51-0.2-2.27-0.29c0.15,0.19,0.3,0.38,0.45,0.57c0.13-0.98,0.25-1.96,0.38-2.94c-2.42,1.36-4.39,3.22-5.94,5.51
				C134.49,104.61,137.74,106.49,139.09,104.5L139.09,104.5z"/>
		</g>
	</g>
	<g>
		<g>
			<path d="M136.81,105.51c1.77-1.73,4.22-4.07,6.7-4.7c-0.48-0.06-0.96-0.13-1.44-0.19c1.36,0.93,2.53,2.65,3.65,3.85
				c1.65,1.77,4.3-0.89,2.65-2.65c-1.65-1.76-3.74-5.45-6.54-4.41c-2.85,1.05-5.52,3.36-7.66,5.46
				C132.43,104.55,135.08,107.21,136.81,105.51L136.81,105.51z"/>
		</g>
	</g>
	<g>
		<g>
			<path d="M142.18,101.5c0.55-0.03,1-0.16,1.44-0.49c0.15-0.12,0.25-0.22,0.38-0.35c0.11-0.11,0.3-0.21,0.11-0.13
				c-0.32,0.09-0.63,0.17-0.95,0.26c0.08,0.01,0.16,0.01,0.24,0.02c-0.32-0.09-0.63-0.17-0.95-0.26c0.59,0.35,1.17,1.19,1.65,1.69
				c0.63,0.66,1.25,1.32,1.86,1.99c1.64,1.77,4.29-0.88,2.65-2.65c-1.17-1.26-2.31-2.61-3.58-3.76c-0.64-0.58-1.5-0.96-2.37-0.72
				c-0.36,0.1-0.71,0.3-0.99,0.55c-0.07,0.06-0.6,0.53-0.28,0.35c0.32-0.09,0.63-0.17,0.95-0.26c-0.05,0-0.11,0.01-0.16,0.01
				C139.78,97.86,139.76,101.61,142.18,101.5L142.18,101.5z"/>
		</g>
	</g>
	<g>
		<g>
			<path d="M121.31,166.74c0.36,0.11,0.72,0.23,1.08,0.34c0.17-1.23,0.33-2.46,0.5-3.68c-0.42,0.05-0.83,0.1-1.25,0.15
				c-1.88,0.23-2.79,3.31-0.5,3.68c4.4,0.72,8.67,0.09,13.08,0.31c2.18,0.11,4.34,0.68,6.52,0.52c2.43-0.18,4.64-1.15,7.12-1.18
				c2.41-0.03,2.42-3.78,0-3.75c-1.88,0.02-3.4,0.43-5.24,0.8c-2.43,0.49-4.34,0.17-6.73-0.02c-4.6-0.37-9.18,0.47-13.76-0.29
				c-0.17,1.23-0.33,2.46-0.5,3.68c0.42-0.05,0.83-0.1,1.25-0.15c2.01-0.24,2.65-3.01,0.5-3.68c-0.36-0.11-0.72-0.23-1.08-0.34
				C119.99,162.41,119,166.03,121.31,166.74L121.31,166.74z"/>
		</g>
	</g>
	<g>
		<g>
			<path d="M144.52,163.52c-3.67,0.69-7.29,0.93-11.01,0.63c-2.65-0.22-4.98-0.55-7.59,0.16c-2.11,0.57-1.56,3.55,0.5,3.68
				c6.35,0.4,12.9-1.39,19.12-0.41c0.17-1.23,0.33-2.46,0.5-3.68c-1.62,0.05-3.1,0.25-4.68,0.64c-2.01,0.5-1.65,3.83,0.5,3.68
				c2.22-0.16,4.32-0.49,6.47-1.05c2.33-0.61,1.34-4.23-1-3.62c-1.82,0.47-3.6,0.78-5.47,0.91c0.17,1.23,0.33,2.46,0.5,3.68
				c1.19-0.38,2.42-0.55,3.68-0.51c2.01-0.06,2.67-3.34,0.5-3.68c-6.69-1.05-13.35,0.7-20.12,0.27c0.17,1.23,0.33,2.46,0.5,3.68
				c3.13-0.85,6.48,0.1,9.67,0.12c3.02,0.02,5.97-0.34,8.92-0.9C147.89,166.69,146.88,163.07,144.52,163.52L144.52,163.52z"/>
		</g>
	</g>
	<g>
		<g>
			<path d="M114.82,120.25c-0.37,0.07-0.74,0.13-1.11,0.2c0.61,1.04,1.22,2.09,1.82,3.13c1.69-1.64,3.76-2.74,5.56-4.25
				c2.12-1.76,3.83-3.95,5.91-5.76c4.14-3.61,8.8-6.39,12.44-10.56c1.58-1.81-1.06-4.47-2.65-2.65c-3.63,4.16-8.31,6.96-12.44,10.56
				c-2.01,1.75-3.68,3.85-5.73,5.54c-1.9,1.56-3.96,2.74-5.74,4.46c-1.44,1.4,0.09,3.44,1.82,3.13c0.37-0.07,0.74-0.13,1.11-0.2
				C118.19,123.45,117.19,119.83,114.82,120.25L114.82,120.25z"/>
		</g>
	</g>
	<g>
		<g>
			<path d="M120.97,116.84c-0.04-0.05-0.07-0.1-0.11-0.14c0,0.63,0,1.26,0,1.89c0.68-1.38,3.09-2.82,4.29-3.85
				c1.89-1.63,3.82-3.2,5.88-4.62c2.95-2.03,5.5-3.62,7.73-6.48c1.47-1.88-1.17-4.55-2.65-2.65c-2.71,3.47-6.41,5.33-9.84,7.99
				c-1.64,1.27-3.22,2.61-4.77,3.98c-1.17,1.03-3.16,2.3-3.87,3.74c-0.28,0.56-0.4,1.34,0,1.89c0.04,0.05,0.07,0.1,0.11,0.14
				C119.14,120.66,122.4,118.79,120.97,116.84L120.97,116.84z"/>
		</g>
	</g>
	<g>
		<g>
			<path d="M130.76,108.86c2.23-1.44,4.6-2.77,6.71-4.38c1.8-1.37,2.89-3.42,4.65-4.78c-0.76-0.98-1.51-1.96-2.27-2.94
				c-4.6,3.58-9.12,7.27-13.51,11.1c-3.72,3.25-8.41,6.54-10.84,10.91c-1.17,2.11,2.06,4,3.24,1.89c2.47-4.44,7.76-8.01,11.58-11.3
				c3.97-3.43,8.05-6.73,12.19-9.96c1.66-1.29-0.58-4.24-2.27-2.94c-1.72,1.32-2.77,3.08-4.39,4.5c-2.07,1.82-4.67,3.17-6.98,4.66
				C126.84,106.93,128.72,110.17,130.76,108.86L130.76,108.86z"/>
		</g>
	</g>
	<g>
		<g>
			<path d="M112.69,125.88c1.26-2.02,3.55-3.55,5.32-5.11c2.02-1.78,4.03-3.57,6.05-5.35c1.81-1.6-0.85-4.25-2.65-2.65
				c-2.24,1.98-4.48,3.97-6.72,5.95c-1.85,1.64-3.91,3.16-5.23,5.28C108.17,126.04,111.41,127.92,112.69,125.88L112.69,125.88z"/>
		</g>
	</g>
	<g>
		<g>
			<path d="M110.85,127.82c0.02-0.13,0.94-0.88,1.11-1.03c0.67-0.61,1.35-1.23,2.02-1.84c1.79-1.63-0.87-4.27-2.65-2.65
				c-1.73,1.58-3.94,3.02-4.22,5.52c-0.12,1.01,0.94,1.88,1.88,1.88C110.09,129.7,110.74,128.83,110.85,127.82L110.85,127.82z"/>
		</g>
	</g>
</g>
<g id="Layer_2">
	<path class="st0" d="M53.32,42.79L39.33,56.79l-2.51-2.51c-1.3-1.3-1.3-3.41,0-4.72l9.27-9.27c1.31-1.31,3.42-1.31,4.73,0
		L53.32,42.79z"/>
</g>
</svg>
