<?xml version="1.0" encoding="utf-8"?>
<!-- Generator: Adobe Illustrator 23.0.4, SVG Export Plug-In . SVG Version: 6.00 Build 0)  -->
<svg version="1.1" id="Layer_1" xmlns="http://www.w3.org/2000/svg" xmlns:xlink="http://www.w3.org/1999/xlink" x="0px" y="0px"
	 viewBox="0 0 200 200" style="enable-background:new 0 0 200 200;" xml:space="preserve">
<style type="text/css">
	.st0{fill:#CBEAEE;}
	.st1{stroke:#000000;stroke-miterlimit:10;}
</style>
<g>
	<circle class="st0" cx="100" cy="100" r="100"/>
</g>
<g>
	<g>
		<g>
			<path class="st1" d="M74.3,160.1c2.93,4.5,6.74,9.6,11.67,11.38c4.69,1.69,10.93,1.85,14.97-1.68c1.61-1.4,2.63-2.99,4.94-3.06
				c1.75-0.05,2.93,0.94,4.3,1.96c2.38,1.79,4.29,3.3,7.29,3.16c5.12-0.24,8.72-4.68,11.26-9.2c1.33-2.37-2.01-4.54-3.35-2.18
				c-1.39,2.48-2.97,4.91-5.41,6.2c-3.18,1.67-5.26,0.35-7.85-1.71c-2.84-2.26-6.04-3.31-9.42-1.83c-1.56,0.68-2.52,1.78-3.78,2.91
				c-2.87,2.57-6.33,2.37-9.77,1.72c-4.99-0.94-8.64-5.46-11.51-9.85C76.19,155.68,72.83,157.84,74.3,160.1L74.3,160.1z"/>
		</g>
	</g>
	<g>
		<g>
			<path class="st1" d="M107.05,164.12c-0.08-0.06-0.16-0.11-0.24-0.17c-0.5,1.32-0.99,2.64-1.49,3.96
				c0.61,1.26,1.77,3.21,3.83,4.74c4.12,3.05,9.47,2.73,13.33,0.68c3.56-1.89,7.15-5.93,7.24-10.39c0.05-2.11-0.67-4.98-1.24-4.97
				c-0.32,0-0.58,0.9-0.63,1.23c-0.84,5.31-6.26,10.38-11,10.44c-4.7,0.05-6.58-4.27-10.49-5.9c-2.13-0.88-3.28,2.7-1.49,3.96
				c0.08,0.06,0.16,0.11,0.24,0.17C107.2,169.36,109.15,165.61,107.05,164.12z"/>
		</g>
	</g>
	<g>
		<g>
			<path class="st1" d="M107.17,165.54c-0.05-0.1-0.1-0.2-0.15-0.29c-0.74-1.49-2.56-1.31-3.35,0c-2.66,4.45-7.37,4.73-11.69,4.27
				c-3.81-0.4-6.57-0.35-9.17-4.06c-0.45-0.64-0.74-0.66-1.01-0.73c-1.39-0.35-3.52,1.59-3.63,3.4c-0.13,2.31,3.02,4.04,4.3,4.74
				c4.73,2.59,9.58,1.74,11.75,1.32c6.16-1.18,10.5-4.61,12.79-6.77c-1.12,0-2.23,0-3.35,0c0.05,0.1,0.1,0.2,0.15,0.29
				C105.04,170.17,108.39,167.98,107.17,165.54z"/>
		</g>
	</g>
	<g>
		<g>
			<path class="st1" d="M77.24,157.56c-3.64-3.53-6.79-7.75-9.69-12.06c-1.44-2.14-2.67-4.26-3.83-6.59
				c-1.34-2.7-3.21-5.04-3.9-8.09c-0.35-1.54-1.7-1.83-2.7-1.29c2.86,4.63,5.64,9.3,8.17,14.15c2.33,4.46,4.1,9.3,6.37,13.77
				c0.34,0.33,0.64,0.7,0.85,1.14c0.01,0.01,0.01,0.02,0.02,0.04c0.97,1.05,1.97,2.06,3.03,3.01c1.07,0.97,2.87,0.76,3.24-0.95
				c0.03-0.16,0.06-0.3,0.1-0.46C79.22,158.76,78.27,157.75,77.24,157.56z"/>
		</g>
	</g>
	<g>
		<g>
			<path class="st1" d="M59.52,129.68c-3.17-4.43-5.27-9.99-7.91-14.83c-3.09-5.68-6.71-11.65-5.63-18.64
				c0.43-2.73-3.31-3.9-3.73-1.15c-0.17,1.08-0.25,2.13-0.27,3.17c0.12,0.5,0.23,1,0.37,1.5c0.1,0.27,0.18,0.54,0.26,0.82
				c0.02,0.09,0,0.16-0.03,0.21c0.03,0.11,0.05,0.22,0.08,0.32c0.17,0.8,0.31,1.62,0.47,2.43c0,0.01,0.02,0.01,0.02,0.03
				c0,0.03,0,0.05,0,0.08c0.05,0.25,0.09,0.51,0.16,0.76c0.03,0.13-0.03,0.22-0.12,0.27c0.03,0.06,0.04,0.13,0.02,0.19
				c0.13,0.24,0.27,0.48,0.44,0.7c0.1,0.13,0.06,0.28-0.03,0.36c-0.01,0.09-0.07,0.16-0.13,0.2c0.14,0.64,0.27,1.28,0.36,1.94
				c0.81,2.15,1.83,4.26,2.95,6.34c1.76,3.26,3.38,6.73,5.11,10.1c1.35,0.25,2.62,1.03,3.15,2.37c0.09,0.22,0.17,0.43,0.26,0.65
				c0.58,0.37,1.11,0.9,1.55,1.62c0.79,1.27,1.57,2.55,2.34,3.84C59.96,132.2,60.33,130.82,59.52,129.68z"/>
		</g>
	</g>
	<g>
		<g>
			<path class="st1" d="M48.26,101.05c-1.27-3.19-1.77-6.96-2.52-10.33c-0.84-3.75-1.79-7.58-1.87-11.48
				c-0.14-6.33,1.39-13.04,5.65-17.4c1.84-1.89-0.9-4.94-2.74-3.07c-4.7,4.8-6.57,11.85-6.78,18.84c-0.13,4.28,0.75,8.53,1.66,12.65
				c0.94,4.32,1.64,8.89,3.27,12.97C45.93,105.78,49.27,103.58,48.26,101.05L48.26,101.05z"/>
		</g>
	</g>
	<g>
		<g>
			<path class="st1" d="M46.15,60.49c0,0.04-0.01,0.08-0.01,0.12c0.64-0.72,1.29-1.45,1.94-2.17c-0.05,0-0.1-0.01-0.15-0.01
				c0.56,1.08,1.12,2.18,1.67,3.26c0.78-1.72,4.4-3.92,5.79-5.04c1.77-1.44,3.59-2.76,5.7-3.51c4-1.44,8.94-1.35,13.14-1.37
				c3.46-0.01,8.39,0.27,11.6,1.61c3.93,1.64,6.46,5.29,10.21,7.19c2.25,1.14,4.22-2.59,1.95-3.74c-4.27-2.17-7.12-6.1-11.7-7.85
				c-2.49-0.95-4.67-0.76-7.2-1.09c-2.56-0.34-4.93-0.45-7.51-0.32c-4.64,0.23-9.53,0.15-13.83,2.38c-2.32,1.21-4.34,2.96-6.36,4.7
				c-1.49,1.28-4.27,2.96-5.15,4.87c-0.7,1.53,0.17,3.13,1.67,3.26c0.05,0,0.1,0.01,0.15,0.01c1.1,0.1,1.87-1.07,1.94-2.17
				c0-0.04,0.01-0.08,0.01-0.12C50.2,57.71,46.33,57.72,46.15,60.49L46.15,60.49z"/>
		</g>
	</g>
	<g>
		<g>
			<path class="st1" d="M75.1,48.99c-0.46,0.04-0.93,0.1-1.39,0.14c0.17,1.42,0.34,2.83,0.51,4.26c2.11-0.9,4.07-1.31,6.34-1.26
				c0-1.45,0-2.89,0-4.33c-0.88,0.09-1.77,0.04-2.65-0.11c-0.17,1.42-0.34,2.83-0.51,4.26c2.49-0.35,4.71-0.09,7,1.1
				c2.03,1.05,3.76-1.46,2.35-3.41c-2.78-3.8-8.06-2.47-11.92-2.35c-4.41,0.15-9.29-0.37-13.49,1.29
				c-3.48,1.38-7.73,2.31-10.41,5.34c-2.59,2.94-5.5,6.13-6.86,10.02c-0.91,2.6,2.83,3.73,3.73,1.15c1.01-2.87,3.86-5.98,5.86-8.1
				c2.09-2.22,5.2-2.64,7.81-3.79c3.46-1.52,6.87-1.36,10.56-1.48c2.8-0.1,9.97-1.75,11.97,0.98c0.78-1.14,1.56-2.27,2.35-3.41
				c-2.9-1.51-5.76-2.13-8.95-1.69c-1.93,0.27-2.89,3.87-0.51,4.26c1.25,0.2,2.41,0.31,3.68,0.27c2.49-0.1,2.5-4.27,0-4.33
				c-2.61-0.06-4.92,0.36-7.37,1.4c-1.87,0.8-1.84,4.49,0.51,4.26c0.46-0.04,0.93-0.1,1.39-0.14C77.57,53.07,77.59,48.74,75.1,48.99
				L75.1,48.99z"/>
		</g>
	</g>
	<g>
		<g>
			<path class="st1" d="M125.42,49.2c-4.69-0.32-8.78-0.08-13.11,1.5c-0.08,0.03-0.16,0.06-0.25,0.1c-0.43,0.16-0.87,0.33-1.31,0.52
				c-4.96,2.17-9.91,4.33-14.67,7.02c-1.92,1.09-0.56,4.9,1.49,3.96c0.33-0.15,0.66-0.29,0.98-0.45c0.17-0.08,0.32-0.18,0.45-0.29
				c4.16-2.28,8.45-4.18,12.77-6.07c4.56-1.99,8.78-2.29,13.64-1.96C127.9,53.7,127.89,49.37,125.42,49.2z"/>
		</g>
	</g>
	<g>
		<g>
			<path class="st1" d="M158.15,71.59c-0.99-5.43-1.39-9.76-4.68-13.97c-3.04-3.9-7.21-5.69-11.54-7.37
				c-5.04-1.95-10.09-1.92-15.36-1.98c-4.53-0.05-8.57,0.14-12.67,1.64c-0.01,0.01-0.02,0.03-0.04,0.04
				c-0.92,0.49-1.86,0.91-2.84,1.2c0,0-0.01,0-0.01,0.01c-1.99,1.66-0.33,4.95,1.95,3.74c0,0,0,0,0,0c0,0,0,0.01,0.01,0.01
				c0.01-0.01,0.02-0.02,0.03-0.03c4.42-2.31,8.79-2.34,13.56-2.29c4.43,0.04,8.8-0.1,13.1,1.37c3.86,1.33,8.02,2.95,10.77,6.3
				c2.9,3.54,3.15,7.89,3.99,12.47C154.91,75.47,158.65,74.32,158.15,71.59z"/>
		</g>
	</g>
	<g>
		<g>
			<path class="st1" d="M154.56,72.64c2.19,4.85,0.63,10.96-0.12,15.97c-0.81,5.44-1.77,10.19-4.31,15.02
				c-1.27,2.41,2.08,4.59,3.35,2.18c3.11-5.92,3.93-11.85,5.15-18.42c1.01-5.46,1.59-11.83-0.72-16.94
				C156.77,67.97,153.43,70.17,154.56,72.64L154.56,72.64z"/>
		</g>
	</g>
	<g>
		<g>
			<path class="st1" d="M154.49,89.88c-0.16,3.86-1.66,6.87-2.49,10.51c-0.77,3.41-1.12,6.84-2.15,10.19
				c-2.19,7.19-5.76,13.75-8.43,20.71c-0.97,2.54,2.37,4.75,3.35,2.18c2.8-7.32,6.5-14.21,8.81-21.75
				c1.17-3.82,1.42-7.87,2.53-11.68c1.01-3.49,2.08-6.46,2.25-10.17C158.49,87.09,154.62,87.1,154.49,89.88L154.49,89.88z"/>
		</g>
	</g>
	<g>
		<g>
			<path class="st1" d="M141.95,130.68c-1.33,2.48-1.58,5.42-2.8,8.03c-1.29,2.76-2.56,5.55-3.9,8.29
				c-3.99,8.21-9.57,13.44-8.56,14.73c0.36,0.46,1.26,0.07,2.04,0.94c0.76,0.86,0.44,1.87,0.77,2.02
				c1.34,0.62,8.67-14.61,9.41-16.13c1.4-2.92,2.53-5.35,3.3-7.01c-0.03-0.05-0.05-0.12-0.03-0.19c0.04-0.18,0.11-0.35,0.17-0.53
				c-0.15,0-0.3-0.16-0.22-0.37c0.02-0.04,0.03-0.07,0.05-0.11c-0.12-0.05-0.2-0.18-0.12-0.34c0.08-0.16,0.18-0.32,0.26-0.49
				c0-0.02-0.01-0.04,0-0.06c0.01-0.02,0.02-0.04,0.03-0.06c0,0,0,0,0,0c0,0,0-0.01,0.01-0.01c0.44-1.22,1.14-2.27,1.83-3.33
				c0.05-0.07,0.12-0.1,0.18-0.11c0.01-0.01,0.02-0.03,0.03-0.05c0.01-0.01,0.02-0.02,0.02-0.03c0.04-0.07,0.08-0.14,0.12-0.2
				c0.05-0.08,0.12-0.11,0.19-0.11c0.15-0.92,0.26-2.07,0.59-2.7C146.58,130.47,143.23,128.29,141.95,130.68z"/>
		</g>
	</g>
	<g>
		<g>
			<path class="st1" d="M157.34,81.48c-0.32-4.4-1.37-8.58-2.89-12.57c0.03-0.38,0.04-0.78,0.01-1.2c-0.04-0.59-0.12-1.17-0.21-1.74
				c0.01,0,0.03,0,0.04-0.01c-0.03-0.11-0.06-0.2-0.09-0.31c-0.76-4.07-2.9-7.35-6.33-8.99c-5.85-4.37-14.2-5.95-20.41-6.76
				c-5.99-0.78-11.77,0.17-17.31,2.79c-4.93,2.32-9.42,5.62-14.66,7.02c-0.18,0.05-0.35,0.11-0.52,0.17
				c-0.52-0.52-1.04-1.04-1.58-1.53c-2.14-1.94-4.39-3.62-6.88-4.92c-5.38-2.82-11.28-4.08-17.21-3.58
				c-0.26,0.02-0.51,0.08-0.75,0.13c-1.27-0.72-2.73-1.05-4.08-0.77c-8.42,1.74-13.59,7.47-16.89,14.92
				c-0.81,0.49-1.55,1.21-2.17,2.2c-1.92,3.11-2.63,6.94-2.03,10.6c-0.65,6.26-0.56,12.5,0.32,18.95
				c1.11,8.08,2.28,16.27,7.36,22.52c0.21,0.26,0.45,0.49,0.69,0.69c0.65,2.15,1.4,4.24,2.23,6.29c0.46,0.38,0.85,0.86,1.08,1.45
				c0.09,0.22,0.17,0.43,0.26,0.65c0.58,0.37,1.11,0.9,1.55,1.62c2.95,4.77,5.82,9.58,8.43,14.58c0.7,1.35,1.35,2.73,1.98,4.12
				c0.36,0.31,0.73,0.6,1.13,0.85c0.1,0.06,0.21,0.11,0.31,0.16c-0.02,1.6,0.46,3.2,1.58,4.48c4.16,4.72,6.82,10.57,12.4,13.56
				c5.24,2.81,10.17,2.39,12.49,2.17c2.36-0.22,4.08-1.13,4.08-1.13c0,0,0.18-0.1,0.36-0.21c1.97-1.24,3.58-4.37,4.25-5.77
				c0.91,1.38,5.21,7.56,12.25,8.29c1.37,0.14,4.13,0.43,6.88-1.18c2.42-1.42,3.78-3.69,5.8-7.07c0.66-1.11,1.2-2.17,1.65-3.43
				c0.52-1.44,0.78-2.71,0.92-3.65c3.13-4.18,5.79-8.8,7.88-13.75c0.3-0.72,0.51-1.46,0.62-2.2c1.29-1.28,2.38-2.86,3.22-4.73
				c1.01-2.26,0.97-4.81-0.2-6.8c4.35-8.06,8.07-16.51,11.2-25.33c0.48-1.36,0.42-2.68,0-3.86
				C157.21,93.91,157.68,86.12,157.34,81.48z"/>
		</g>
	</g>
	<g>
		<g>
			<path class="st1" d="M105.77,164.89c7.47,0,7.49-13,0-13C98.3,151.89,98.28,164.89,105.77,164.89L105.77,164.89z"/>
		</g>
	</g>
	<g>
		<g>
			<path class="st1" d="M95.15,42.92c-0.19-0.28-0.36-0.56-0.52-0.84c-0.03-1.41-0.65-2.89-1.48-3.88
				c-0.06-0.07-0.13-0.14-0.19-0.19c-2.45-4.06-5.16-6.78-8.67-9.95c-0.61-0.55-1.37-1.19-2.2-1.78c-0.03-0.01-0.05-0.03-0.08-0.04
				c-2.03-0.57-4.19-0.63-6.24-1.09H75.7c-0.01,0-0.01-0.01-0.02-0.01c-0.01,0.01-0.01,0.01-0.03,0.01
				c-0.14-0.01-0.27-0.02-0.41-0.03c-0.01,0-0.02-0.01-0.03-0.01c-0.02,0.01-0.05,0.01-0.08,0.01c0,0.08-0.04,0.15-0.11,0.19
				c-0.01,0.04-0.02,0.08-0.05,0.1v0.05c0,0.03-0.02,0.05-0.03,0.07v0.22c0,0.01-0.01,0.01-0.01,0.02c0,0.01,0.01,0.01,0.01,0.01
				v0.3c0.01,0.07,0.01,0.13,0.01,0.2c0,0.01,0.02,0.02,0.02,0.04c0.02,0.18,0.03,0.35,0.03,0.53c0,0.02-0.01,0.04-0.02,0.06
				c0,0.01,0.01,0.01,0.01,0.02c0.05,0.32,0.09,0.64,0.12,0.96c0.07,0.2,0.12,0.39,0.17,0.59c0,0.01,0.01,0.01,0.01,0.02
				c0.03,0.15,0.07,0.3,0.1,0.45c0.01,0.02,0.03,0.03,0.04,0.05c0.06,0.2,0.12,0.41,0.16,0.62c0.02,0.02,0.04,0.03,0.06,0.06
				c0.01,0.04,0.03,0.07,0.04,0.11c0,0.01,0.01,0.02,0.01,0.03c0.01,0.02,0.03,0.02,0.03,0.04c0.01,0.03,0.02,0.05,0.02,0.08
				c0.03,0.07,0.06,0.15,0.09,0.22c0.01,0.01,0.02,0.01,0.03,0.02c0.01,0.02,0.01,0.04,0.02,0.06c0,0,0,0,0,0c0,0,0,0,0,0
				c0.05,0.11,0.1,0.23,0.14,0.35c0,0.01,0,0.02,0,0.03c0.13,0.31,0.26,0.62,0.38,0.93c0.95,1.45,2.13,2.8,3.1,4.13
				c1.2,1.65,2.42,3.26,3.9,4.59c0.86,0.77,1.92,1.96,2.95,2.83c1.17,0.39,2.34,0.81,3.54,1.09c1.06,0.25,2.03,0.7,3.06,1.02
				c0.02,0.01,0.05,0.01,0.07,0.02c0.01-0.01,0.03-0.01,0.04-0.02c0.14,0.03,0.26,0.07,0.41,0.1C94.59,45.52,96,44.16,95.15,42.92z
				 M89.73,41.15c-0.05-0.02-0.1-0.05-0.14-0.07c-1.21-0.61-2.51-1.85-3.66-2.79c-1.7-1.38-3.03-3.13-4.34-4.94
				c-1.18-1.62-3.06-3.52-3.73-5.64c0.71,0.32,1.47,0.76,1.86,0.92c1.77,0.76,2.83,2.17,4.33,3.41c2.92,2.41,4.89,4.9,6.81,8.26
				c0.01,0.07,0.03,0.13,0.04,0.2C90.42,40.42,90,40.7,89.73,41.15z"/>
		</g>
	</g>
	<g>
		<g>
			<path class="st1" d="M92.65,41.11c-2.63-1.85-4.79-5.14-7.05-7.52c-2.14-2.26-4.27-4.6-6.71-6.46c-1.28-0.98-2.6,0.88-1.99,2.23
				c1.24,2.7,3.41,4.26,5.29,6.34c1.77,1.96,3.13,4.58,6.03,4.15c6.03-0.89-2.72-8.26-4.38-9.28c-1.64-1.01-3.11,1.8-1.46,2.81
				c1.9,1.16,4.23,2.81,5.27,5.04c0-0.55,0-1.09,0-1.64c-0.17,0.38-3.96-3.94-4.52-4.5c-1.42-1.39-2.83-2.63-3.71-4.55
				c-0.67,0.75-1.32,1.48-1.99,2.23c2.79,2.12,5.21,4.96,7.64,7.58c1.97,2.13,3.79,4.76,6.12,6.4
				C92.77,45.04,94.22,42.23,92.65,41.11L92.65,41.11z"/>
		</g>
	</g>
	<g>
		<g>
			<path class="st1" d="M110.9,28.57c-4.58,0.41-8.46,3.09-10.48,7.64c-1.34,3.04-2.52,6.97-2.08,10.5
				c0.01,0.01,0.02,0.01,0.03,0.03c0.08-0.19,0.39-0.22,0.43,0.02c0.11,0.67,0.26,1.37,0.22,2.05c0.02,0.1,0.03,0.2,0.05,0.3
				c0.02,0,0.05-0.01,0.07,0.01c0.09,0.06,0.17,0.14,0.25,0.22c0.08-0.05,0.19-0.06,0.27,0.03c0.14,0.15,0.27,0.32,0.4,0.48
				c0-0.01-0.01-0.01-0.01-0.02c-0.14-0.25,0.19-0.52,0.37-0.31c0.18,0.2,0.35,0.4,0.53,0.59c0.73,0.36,1.74,0.15,2.07-0.95
				c1.12-3.76,2.13-9.11,5.44-11.13c1.59-0.97,4.65-1.26,5.84-2.98C116.31,32.2,113.73,28.32,110.9,28.57z M109.38,34.16
				c-2.04,0.92-4.03,1.59-5.29,3.74c-1.3,2.21-2.21,4.94-3.01,7.59c-0.15-3.15,1.31-7.07,2.62-9.3c1.24-2.11,3.36-3.39,5.56-3.88
				c0.51-0.11,2.2-0.64,2.54,0.07C112.13,33.06,109.63,34.05,109.38,34.16z"/>
		</g>
	</g>
	<g>
		<g>
			<path class="st1" d="M112.06,31.03c-3.7-0.79-6.57,1.92-8.9,4.86c-2.66,3.37-4.04,7.5-4.18,11.96c0.04,0.32,0.07,0.64,0.05,0.96
				c0,0.01,0,0.03,0.01,0.04c0.03,0.1,0.06,0.19,0.11,0.27c0,0,0,0,0.01,0c0.09,0.06,0.17,0.14,0.25,0.22
				c0.08-0.05,0.19-0.06,0.27,0.03c0.13,0.15,0.26,0.3,0.38,0.46c0,0,0,0,0.01,0c-0.14-0.25,0.19-0.51,0.37-0.31
				c0.09,0.1,0.18,0.21,0.27,0.31c0.61-0.13,1.15-0.63,1.16-1.53c0.04-3.22,0.78-6.28,2.47-8.92c1.42-2.23,4.22-5.82,6.94-5.23
				C113.11,34.56,113.89,31.42,112.06,31.03z"/>
		</g>
	</g>
	<g>
		<g>
			<path class="st1" d="M102.08,47.03c-0.35-0.39-0.77-0.54-1.19-0.53c-0.57-0.08-1.16,0.15-1.46,0.76
				c-0.02,0.05-0.04,0.1-0.06,0.15c-0.19,0.25-0.31,0.56-0.34,0.88c0,0.04,0,0.07,0,0.11c0,0.06,0.01,0.13,0.02,0.19
				c0,0.18,0.04,0.36,0.09,0.53c0.01,0,0.01,0,0.02,0c0.09,0.06,0.17,0.14,0.25,0.22c0.08-0.05,0.19-0.06,0.27,0.03
				c0.14,0.15,0.27,0.32,0.4,0.48c0-0.01-0.01-0.01-0.01-0.02c-0.14-0.25,0.19-0.52,0.37-0.31c0.2,0.22,0.39,0.45,0.59,0.66
				c0.43-0.01,0.83-0.19,1.12-0.6c0.19-0.28,0.3-0.66,0.3-1.04C102.56,48.02,102.43,47.43,102.08,47.03z"/>
		</g>
	</g>
	<g>
		<g>
			<path class="st1" d="M114.23,32.42c-0.06-0.82-0.12-1.65-0.18-2.47c-0.15-2.06-3.03-2.1-2.9,0c0,0.03,0.01,0.08,0.01,0.11
				c0.14-0.38,0.29-0.76,0.43-1.15c-0.03,0.03-0.06,0.05-0.09,0.08c0.47-0.14,0.94-0.28,1.41-0.42c-0.03-0.01-0.06-0.03-0.09-0.03
				c-0.13,1.07-0.26,2.13-0.39,3.19c0.12-0.01,0.22-0.01,0.34-0.02c-0.48-0.54-0.97-1.08-1.46-1.63c0.12,1.54,0.27,3.09,0.44,4.63
				c0.09,0.73,0.39,1.35,1.07,1.57c3.09,0.98,2.18-4.26,1.91-6.01c-0.88,0.42-1.77,0.83-2.66,1.25c0.19,0.38,0.21,0.65,0.18,1.07
				c0.97,0,1.94,0,2.9,0c0.08-1.09-0.46-1.88-0.57-2.9c-0.95,0.15-1.91,0.29-2.85,0.43c0.39,1.55,0.66,3.11,0.77,4.72
				c0.14,2.07,3.04,2.09,2.9,0c-0.12-1.89-0.4-3.76-0.87-5.58c-0.43-1.69-3.05-1.45-2.85,0.43c0.1,0.95,0.64,1.97,0.57,2.9
				c-0.15,2.09,2.76,2.07,2.9,0c0.07-0.97-0.15-1.87-0.57-2.72c-0.86-1.7-2.92-0.48-2.66,1.25c0.09,0.56,0.15,1.13,0.19,1.69
				c0.03,0.39,0.15,1.02,0.04,1.38c0.22-0.32,0.44-0.65,0.67-0.97c-0.05,0.04-0.12,0.09-0.17,0.12c0.37-0.05,0.74-0.11,1.12-0.16
				c-0.06-0.02-0.12-0.03-0.19-0.06c0.36,0.52,0.71,1.05,1.07,1.57c-0.17-1.54-0.32-3.09-0.44-4.63c-0.07-0.85-0.61-1.66-1.46-1.63
				c-0.12,0.01-0.22,0.01-0.34,0.02c-1.64,0.07-1.97,2.63-0.39,3.19c0.99,0.35,2.08-0.54,2.01-1.72c-0.97,0-1.94,0-2.9,0
				c0.06,0.82,0.12,1.65,0.18,2.47C111.48,34.49,114.38,34.51,114.23,32.42L114.23,32.42z"/>
		</g>
	</g>
	<g>
		<g>
			<path class="st1" d="M113.31,33.08c-0.43,0.09-0.87,0.17-1.3,0.26c-0.75,0.16-1.24,1.21-1.01,2c0.26,0.9,0.98,1.3,1.79,1.14
				c0.43-0.09,0.87-0.17,1.3-0.26c0.75-0.16,1.24-1.21,1.01-2C114.84,33.31,114.12,32.92,113.31,33.08L113.31,33.08z"/>
		</g>
	</g>
	<g>
		<g>
			<path class="st1" d="M111.21,32.31c0.45,0.02,0.9-0.11,1.27-0.38c1.22-0.87,0.73-2.98-0.74-3.02c-0.19-0.01-0.39-0.02-0.58-0.02
				c0.13,1.07,0.26,2.13,0.39,3.19c0.27-0.11,0.54-0.21,0.82-0.3c0.7-0.23,1.14-0.99,1.04-1.79c-0.09-0.75-0.7-1.47-1.42-1.41
				c-0.51,0.04-0.94,0.16-1.39,0.46c-0.63,0.42-0.88,1.29-0.6,2.03c0.29,0.76,1,1.12,1.71,0.94c0.32-0.08,0.64-0.23,0.92-0.42
				c0.53-0.35,0.86-1.16,0.67-1.84c-0.21-0.73-0.74-1.13-1.4-1.2c-0.32-0.03-0.64,0.02-0.94,0.12c-0.73,0.23-1.25,1.15-1.01,2
				c0.27,0.93,0.98,1.26,1.79,1.14c0.29-0.04,0.58-0.19,0.84-0.35c0.5-0.32,0.77-0.99,0.7-1.62c-0.07-0.58-0.48-1.25-1.04-1.35
				c-0.58-0.11-1.05-0.07-1.57,0.25c-0.51,0.31-0.77,1-0.7,1.62c0.07,0.59,0.48,1.24,1.04,1.35c0.57,0.11,1.12,0.1,1.62-0.29
				c0.51-0.4,0.88-1.12,0.67-1.84c-0.2-0.69-0.74-1.18-1.4-1.2c-0.48-0.01-1.02,0.21-1.33,0.64c-0.39,0.55-0.6,1.32-0.22,1.97
				c0.36,0.63,0.98,0.91,1.64,0.75c0.29-0.07,0.59-0.15,0.88-0.22c0.74-0.18,1.25-1.2,1.01-2c-0.26-0.88-0.99-1.33-1.79-1.14
				c-0.29,0.07-0.59,0.15-0.88,0.22c0.47,0.9,0.94,1.81,1.41,2.71c-0.24,0.1-0.48,0.21-0.72,0.31c-0.25-1.01-0.49-2.02-0.74-3.02
				c-0.29,0.2-0.09,0.19,0.62-0.04c0.12,0.99,0.23,1.98,0.35,2.97c-0.22,0.03-0.44,0.05-0.67,0.08c-0.12-0.99-0.23-1.98-0.35-2.97
				c0.13-0.04,0.15-0.04,0.05-0.02c-0.06,0.03-0.12,0.03-0.19,0.04c0.26,1.05,0.51,2.09,0.77,3.14c0.34-0.11-0.18-0.03,0.18,0
				c-0.25-1.01-0.49-2.02-0.74-3.02c-0.15,0.09-0.14,0.1,0.02,0.02c-0.08,0.03-0.15,0.05-0.24,0.07c0.37,0.99,0.74,1.98,1.12,2.97
				c0.15-0.09,0.13-0.09-0.03,0c0.16-0.04,0.15-0.04-0.05-0.01c-0.13-1.07-0.26-2.13-0.39-3.19c-0.28,0.09-0.55,0.19-0.82,0.3
				c-0.68,0.29-1.14,0.94-1.04,1.79c0.1,0.81,0.7,1.39,1.42,1.41c0.19,0.01,0.39,0.02,0.58,0.02c-0.25-1.01-0.49-2.02-0.74-3.02
				c-0.16,0.1-0.12,0.1,0.11,0.01c0.24-0.05,0.27-0.07,0.09-0.07c-0.76-0.03-1.49,0.77-1.46,1.63
				C109.8,31.6,110.4,32.27,111.21,32.31L111.21,32.31z"/>
		</g>
	</g>
	<g>
		<g>
			<path class="st1" d="M90.61,41.92c-0.01-0.01-0.03-0.01-0.04-0.02c0.12-0.74-0.16-1.54-1-1.77c-4.83-1.33-7.74-5.75-9.94-10.44
				c-0.65-1.4-2.8-0.79-2.7,0.82c0.09,1.52,0.48,2.94,1.07,4.27c0.17,0.27,0.3,0.56,0.41,0.86c1.49,2.82,3.94,5.13,6.57,6.87
				c0.28,0.08,0.55,0.22,0.81,0.38c1.38,0.45,2.74,0.96,4.15,1.29c0.46,0.11,0.9,0.26,1.34,0.41C91.81,43.8,91.74,42.36,90.61,41.92
				z"/>
		</g>
	</g>
	<g>
		<g>
			<path class="st1" d="M95.33,41.31c-0.32-0.88-0.56-1.78-0.87-2.66c-0.39-1.16-0.9-1.91-1.66-2.82c-0.61-0.73-1.11-1.54-1.77-2.22
				c-0.69-0.7-1.43-1.3-2.02-2.1c-0.03-0.01-0.05-0.01-0.08-0.03c-1.06-1.05-2.15-2.02-3.26-3.01c-0.96-0.85-2.03-1.34-3.06-1.98
				c-0.13-0.03-0.26-0.07-0.39-0.15c-0.01-0.01-0.01-0.02-0.02-0.03c-0.05-0.02-0.1-0.05-0.15-0.07c-0.44-0.13-0.88-0.24-1.33-0.33
				c-1.09,0.4-1.61,2.04-0.37,2.89c2.33,1.6,4.94,2.96,6.72,5.3c0.68,1.03,1.28,2.1,1.83,3.1c0.75,1.39,1.35,2.68,1.96,4.07
				c-0.14,0.81-0.16,1.22,0.14,2.03c0.28,0.74,1.05,1.26,1.72,1.17c0.18,0.16,0.38,0.32,0.61,0.47c1.04,0.68,2.06-0.23,2.18-1.4
				c0-0.05,0-0.09,0.01-0.14C95.45,42.71,95.39,42.01,95.33,41.31z"/>
		</g>
	</g>
	<g>
		<g>
			<path class="st1" d="M92.81,35.83c-0.61-0.73-1.11-1.54-1.77-2.22c-0.69-0.7-1.43-1.3-2.02-2.1c-0.03-0.01-0.05-0.01-0.08-0.03
				c-0.22-0.21-0.44-0.42-0.66-0.63c-1.52-0.15-2.07,2.61-0.43,3.22c0.69,0.26,1.28,0.85,1.82,1.38c0.52,0.5,1.15,1.08,1.16,1.91
				c0.05,2.09,2.95,2.1,2.9,0c0-0.1-0.02-0.2-0.03-0.3C93.45,36.64,93.16,36.25,92.81,35.83z"/>
		</g>
	</g>
	<g>
		<g>
			<path class="st1" d="M89.93,44.18c1.06,0.25,2.03,0.7,3.06,1.02c0.72,0.22,1.47,0.21,2.19,0.36c0.22-0.16,0.4-0.37,0.52-0.65
				c-0.1-0.72-0.18-1.45-0.24-2.18c-0.37-0.37-0.94-0.47-1.43-0.31c-0.31-0.07-0.62-0.11-0.95-0.13c-0.34-0.02-0.88,0.07-1.12-0.22
				c-1.23-1.44-3.13,0.55-2.22,2.05C89.8,44.15,89.86,44.17,89.93,44.18z"/>
		</g>
	</g>
	<g>
		<g>
			<path class="st1" d="M80.5,32.53c-0.29-0.27-0.31-0.68-0.44-1.06c-0.2-0.6-0.46-1.14-0.91-1.56c-0.11-0.1-0.23-0.18-0.36-0.25
				c-0.22-0.6-0.44-1.2-0.67-1.8c-0.32-0.8-1.36-1-1.99-0.58c-0.74,0.49-0.84,1.41-0.52,2.23c0.04,0.11,0.08,0.22,0.12,0.33
				c0,0,0,0,0,0.01c0,0.01,0.01,0.03,0.01,0.04c0.01,0.04,0.03,0.07,0.04,0.11c0.02,0.05,0.04,0.1,0.06,0.15
				c0.01,0.01,0.02,0.01,0.03,0.02c0.01,0.02,0.01,0.04,0.02,0.06c0,0,0,0,0,0c0,0,0,0,0,0c0.05,0.11,0.1,0.23,0.14,0.35
				c0,0.01,0,0.02,0,0.03c0.45,1.13,0.92,2.25,1.4,3.36c0.33,0.46,0.68,0.95,0.9,1.49c0.36,0.09,0.74-0.01,1.07-0.24
				C80.59,35.21,81.63,33.58,80.5,32.53z"/>
		</g>
	</g>
	<g>
		<path d="M45.25,99.92"/>
		<g>
			<path d="M45.25,102.42c3.22,0,3.22-5,0-5C42.03,97.42,42.02,102.42,45.25,102.42L45.25,102.42z"/>
		</g>
	</g>
	<g>
		<path d="M45.25,100.08"/>
		<g>
			<path d="M45.25,102.58c3.22,0,3.22-5,0-5C42.03,97.58,42.02,102.58,45.25,102.58L45.25,102.58z"/>
		</g>
	</g>
	<g>
		<path d="M45.79,100.81c0.2-0.07-0.14,0.19-0.24-0.01c-2.78-5.62-2.27-12.41-3.72-18.58c-0.28-1.18-0.63-2.36-0.6-3.58
			c0.02-0.94,0.28-1.84,0.53-2.74c0.62-2.22,1.24-4.43,1.86-6.65"/>
		<g>
			<path d="M43.29,100.81c0,0.01,0,0.03-0.01,0.04c1.05-0.8,2.11-1.61,3.16-2.41c0.57,0.13-0.56-5.35-0.63-5.81
				c-0.37-2.37-0.55-4.78-0.88-7.15c-0.37-2.61-1.28-5.28-0.99-7.87c0.29-2.55,1.39-5.23,2.08-7.69c0.87-3.1-3.95-4.43-4.82-1.33
				c-0.89,3.18-2.44,6.7-2.48,10.06c-0.05,3.52,1.27,7.2,1.68,10.69c0.4,3.34,0.5,12.99,4.71,13.94c1.75,0.39,2.95-0.77,3.16-2.41
				c0-0.01,0-0.03,0.01-0.04C48.71,97.63,43.71,97.66,43.29,100.81L43.29,100.81z"/>
		</g>
	</g>
	<g>
		<path d="M84.39,169.19c-0.69,0.15-1.41-0.15-1.96-0.61c-0.55-0.46-0.97-1.08-1.38-1.69c-0.63-0.94-1.26-1.87-1.89-2.81
			c-0.68-1.02-1.37-2.04-2.24-2.89c0.27,0.29,0.45,0.67,0.52,1.08c-0.51-0.7-1.02-1.4-1.53-2.1c0.43,1.38,1.29,2.56,2.13,3.7
			c0.51,0.69,1.01,1.38,1.52,2.06c0.38,0.52,0.76,1.04,1.22,1.47c0.66,0.62,1.45,1.05,2.23,1.47c0.95,0.51,1.9,1.02,2.86,1.53
			c-1.53-0.04-2.98-0.84-4.14-1.92c-1.16-1.08-2.07-2.43-2.96-3.76c-0.6-0.89-1.2-1.79-1.8-2.68c-1.26-1.88-2.87-3.35-3.96-5.44"/>
		<g>
			<path d="M84.39,166.69c-1.05,0.01-2.34-2.78-2.84-3.53c-0.88-1.31-1.78-2.58-2.86-3.75c-1.9-2.05-5.52,0.65-3.93,3.03
				c0.09,0.16,0.18,0.32,0.27,0.48c1.52-0.64,3.05-1.28,4.57-1.93c-0.51-0.7-1.02-1.4-1.53-2.1c-1.52-2.08-5.67-0.95-4.57,1.93
				c0.97,2.53,2.57,4.6,4.19,6.74c1.83,2.42,4.28,3.57,6.91,4.98c0.42-1.55,0.84-3.11,1.26-4.66c-2.9-0.31-4.69-4.09-6.14-6.23
				c-1.46-2.15-3.27-4.07-4.56-6.33c-1.6-2.79-5.92-0.28-4.32,2.52c1.93,3.37,4.57,6.58,6.86,9.71c2.12,2.89,4.51,4.94,8.16,5.33
				c2.51,0.27,3.34-3.54,1.26-4.66c-2.09-1.12-4.18-2-5.66-3.92c-1.14-1.47-2.48-3.08-3.14-4.82c-1.52,0.64-3.05,1.28-4.57,1.93
				c0.51,0.7,1.02,1.4,1.53,2.1c1.55,2.13,5.5,0.98,4.57-1.93c-0.2-0.64-0.4-1.12-0.77-1.67c-1.31,1.01-2.62,2.02-3.93,3.03
				c2.77,2.98,4.42,8.8,9.24,8.73C87.61,171.65,87.62,166.65,84.39,166.69L84.39,166.69z"/>
		</g>
	</g>
	<g>
		<path d="M74,159.88c-0.14-0.15-0.27-0.3-0.41-0.45c0.06,0.01,0.08,0.12,0.03,0.15c-0.05,0.04-0.13-0.03-0.12-0.09
			c-0.03,0.05-0.06,0.09-0.09,0.14c-0.27-0.36-0.5-0.74-0.71-1.14c-0.06,0.22,0.05,0.44,0.16,0.63c1.41,2.5,3.06,4.84,4.91,6.98"/>
		<g>
			<path d="M74.88,158.99c-0.14-0.15-0.27-0.3-0.41-0.45c-1.09-1.2-2.8,0.56-1.77,1.77c0.02,0.02,0.04,0.05,0.06,0.07
				c-0.11-0.41-0.21-0.81-0.32-1.22c-0.01,0.03-0.02,0.06-0.03,0.09c0.4-0.31,0.8-0.61,1.21-0.92c-0.03,0-0.06,0-0.09-0.01
				c0.4,0.31,0.8,0.61,1.21,0.92c-0.01-0.03-0.02-0.06-0.03-0.08c-0.4-0.98-1.66-1.27-2.28-0.3c-0.03,0.05-0.06,0.09-0.09,0.14
				c0.72,0,1.44,0,2.16,0c-0.26-0.37-0.49-0.74-0.71-1.14c-0.59-1.06-2.39-0.62-2.33,0.63c0.08,1.53,1.34,3,2.17,4.23
				c1.01,1.49,2.1,2.91,3.27,4.27c1.04,1.23,2.81-0.55,1.77-1.77c-0.97-1.14-1.88-2.31-2.73-3.54c-0.4-0.59-0.79-1.19-1.17-1.8
				c-0.19-0.32-0.79-1.04-0.81-1.39c-0.78,0.21-1.55,0.42-2.33,0.63c0.22,0.4,0.45,0.77,0.71,1.14c0.54,0.78,1.62,0.83,2.16,0
				c0.03-0.05,0.06-0.09,0.09-0.14c-0.76-0.1-1.52-0.2-2.28-0.3c0.01,0.03,0.02,0.06,0.03,0.08c0.23,0.56,0.6,0.87,1.21,0.92
				c0.03,0,0.06,0,0.09,0.01c0.56,0.05,1.05-0.43,1.21-0.92c0.17-0.53-0.01-0.97-0.35-1.37c-0.59,0.59-1.18,1.18-1.77,1.77
				c0.14,0.15,0.27,0.3,0.41,0.45C74.2,161.95,75.96,160.18,74.88,158.99L74.88,158.99z"/>
		</g>
	</g>
	<g>
		<path d="M73.52,157.98c-0.33-1.72-2.26-3.82-3.14-5.5c-1.2-2.31-2.5-4.74-3.51-7.12c-2.19-5.17-5.53-9.76-8.2-14.74
			c-1.47-2.74-3.33-5.4-4.95-8.01c0.11,0.18,0.2,0.38,0.28,0.58"/>
		<g>
			<path d="M75.94,157.32c-0.86-2.51-2.49-4.49-3.75-6.79c-1.68-3.08-2.98-6.34-4.58-9.46c-3.48-6.76-7.65-13.3-11.71-19.71
				c-1.74-2.75-5.7-0.36-4.32,2.52c0.09,0.19,0.19,0.39,0.28,0.58c1.39,2.9,5.7,0.37,4.32-2.52c-0.09-0.19-0.19-0.39-0.28-0.58
				c-1.44,0.84-2.88,1.68-4.32,2.52c3.78,5.97,7.52,12.03,10.92,18.23c1.58,2.87,2.8,5.9,4.28,8.82c1.29,2.55,3.43,5.05,4.35,7.72
				C72.15,161.67,76.99,160.37,75.94,157.32L75.94,157.32z"/>
		</g>
	</g>
	<g>
		<path d="M77.48,165.48c-0.1,0.13,0.01,0.33,0.12,0.46c0.53,0.63,1.07,1.26,1.6,1.89c0.18,0.21,0.35,0.42,0.55,0.6
			c0.43,0.41,0.94,0.71,1.47,0.96"/>
		<g>
			<path d="M76.27,165.15c-0.33,1.26,0.91,2.22,1.64,3.09c0.79,0.93,1.56,1.68,2.67,2.23c1.43,0.72,2.7-1.44,1.26-2.16
				c-0.67-0.34-1.18-0.7-1.68-1.27c-0.27-0.31-0.53-0.62-0.79-0.93c-0.17-0.2-0.67-0.61-0.74-0.82c0,0.22,0,0.44,0,0.66
				c0.01-0.05,0.03-0.1,0.04-0.15C79.09,164.26,76.68,163.59,76.27,165.15L76.27,165.15z"/>
		</g>
	</g>
	<g>
		<path d="M142.82,128.96c0.48-1.13,0.91-2.28,1.3-3.44c0.12,0.16,0.09,0.41-0.02,0.58c-0.11,0.17-0.27,0.29-0.42,0.42
			c-0.99,0.84-1.55,2.13-1.92,3.42"/>
		<g>
			<path d="M144.03,129.29c0.48-1.13,0.91-2.28,1.3-3.44c-0.8,0-1.61,0-2.41,0c-0.1-0.26,0.47-0.64-0.04-0.28
				c-0.14,0.1-0.26,0.23-0.38,0.35c-0.33,0.34-0.63,0.73-0.87,1.14c-0.48,0.78-0.8,1.67-1.07,2.55c-0.46,1.54,1.95,2.2,2.41,0.66
				c0.29-0.97,0.65-1.96,1.39-2.68c0.68-0.66,1.37-1.37,0.97-2.4c-0.44-1.14-2-1.23-2.41,0c-0.39,1.16-0.82,2.31-1.3,3.44
				c-0.26,0.63,0.28,1.37,0.87,1.54C143.21,130.37,143.77,129.91,144.03,129.29L144.03,129.29z"/>
		</g>
	</g>
	<g>
		<path d="M143.31,135.42c-0.07,0.15-0.13,0.29-0.2,0.44c0.25-0.37,0.49-0.75,0.74-1.12c-0.11,0.32-0.25,0.63-0.42,0.92
			c1.15-1.85,1.87-3.95,2.59-6.03"/>
		<g>
			<path d="M142.23,134.79c-0.07,0.15-0.13,0.29-0.2,0.44c-0.64,1.45,1.26,2.63,2.16,1.26c0.25-0.37,0.49-0.75,0.74-1.12
				c-0.76-0.32-1.52-0.64-2.28-0.96c-0.08,0.22-0.18,0.42-0.29,0.62c-0.75,1.42,1.33,2.65,2.16,1.26c1.19-1.98,1.96-4.15,2.71-6.33
				c0.52-1.52-1.89-2.18-2.41-0.66c-0.68,1.98-1.38,3.93-2.46,5.73c0.72,0.42,1.44,0.84,2.16,1.26c0.21-0.4,0.38-0.8,0.54-1.22
				c0.53-1.38-1.54-2.09-2.28-0.96c-0.25,0.37-0.49,0.75-0.74,1.12c0.72,0.42,1.44,0.84,2.16,1.26c0.07-0.15,0.13-0.29,0.2-0.44
				C145.04,134.59,142.89,133.32,142.23,134.79L142.23,134.79z"/>
		</g>
	</g>
	<g>
		<path d="M144.1,135.49c1.52-2.67,2.35-6.03,3.4-8.94"/>
		<g>
			<path d="M145.18,136.12c1.58-2.92,2.42-6.13,3.53-9.24c0.54-1.52-1.87-2.17-2.41-0.66c-1.03,2.9-1.8,5.92-3.28,8.64
				C142.25,136.27,144.41,137.54,145.18,136.12L145.18,136.12z"/>
		</g>
	</g>
	<g>
		<path d="M143.52,135.26c-0.26,0.04-0.42,0.19-0.47,0.47c0.63-0.32,0.92-0.55,1.32-1.17c-0.58,0.54-1.03,1.24-1.27,2.02
			c0.13-0.1,0.25-0.21,0.38-0.31"/>
		<g>
			<path d="M143.19,134.05c-0.68,0.16-1.16,0.68-1.34,1.35c-0.29,1.09,0.88,1.91,1.84,1.41c0.75-0.39,1.3-0.91,1.77-1.62
				c0.8-1.21-0.96-2.47-1.96-1.51c-0.75,0.72-1.27,1.59-1.59,2.58c-0.17,0.52,0.11,1.14,0.57,1.41c0.51,0.3,1.08,0.16,1.51-0.2
				c0.13-0.1,0.25-0.21,0.38-0.31c0.52-0.43,0.44-1.32,0-1.77c-0.52-0.52-1.24-0.43-1.77,0c-0.13,0.1-0.25,0.21-0.38,0.31
				c0.7,0.41,1.39,0.81,2.09,1.22c0.19-0.58,0.51-1.05,0.95-1.47c-0.65-0.5-1.31-1.01-1.96-1.51c0-0.01-0.25,0.33-0.13,0.2
				c-0.08,0.09-0.16,0.17-0.25,0.25c0.16-0.14-0.08,0.05-0.13,0.08c-0.12,0.07-0.24,0.14-0.36,0.2c0.61,0.47,1.22,0.94,1.84,1.41
				c-0.09,0.17-0.23,0.31-0.4,0.4c0.66-0.15,1.05-0.9,0.87-1.54C144.55,134.25,143.85,133.9,143.19,134.05L143.19,134.05z"/>
		</g>
	</g>
	<g>
		<path d="M143.69,136.04c-0.82,0.96,0.21-0.6-0.52,0.69c0.76-0.84,0.04-0.02-0.14,0.3c0.73-1.29-0.16,0.25-0.25,0.41"/>
		<g>
			<path d="M142.8,135.15c-0.06,0.07-0.15,0.15-0.2,0.22c-0.16,0.23-0.43-0.09,0.42-0.21c0.41,0.11,0.81,0.21,1.22,0.32
				c0,0,0,0,0-0.01c0.12,0.29,0.24,0.59,0.37,0.88c0,0.2-0.05,0.39-0.15,0.56c0.01-0.01,0.01-0.02,0.02-0.03
				c0.09-0.15-0.23,0.27-0.15,0.18c-0.29,0.12-0.59,0.24-0.88,0.37c0,0,0,0,0,0c-0.42-0.42-0.83-0.83-1.25-1.25
				c0.08-0.82,0.24-0.7,0.08-0.44c-0.07,0.11-0.13,0.24-0.19,0.35c-0.67,1.21,0.98,2.59,1.96,1.51c0.15-0.16,0.56-0.47,0.09-0.17
				c-0.57-0.57-1.14-1.14-1.71-1.71c-0.04,0.07-0.14,0.19,0.1-0.12c-0.1,0.13-0.2,0.25-0.29,0.38c-0.1,0.13-0.2,0.27-0.29,0.41
				c0.72,0.42,1.44,0.84,2.16,1.26c0.15-0.27,0.3-0.52,0.41-0.81c0.22-0.58-0.19-1.26-0.72-1.47c-0.6-0.24-1.2-0.02-1.56,0.51
				c-0.2,0.29-0.36,0.61-0.54,0.92c-0.81,1.39,1.35,2.65,2.16,1.26c0.18-0.3,0.34-0.63,0.54-0.92c-0.76-0.32-1.52-0.64-2.28-0.96
				c0.23-0.62-0.07,0.06-0.16,0.21c-0.79,1.4,1.32,2.64,2.16,1.26c0.06-0.09,0.35-0.5,0.15-0.22c0.11-0.15,0.25-0.29,0.34-0.45
				c0.62-1.05-0.64-2.39-1.71-1.71c-0.24,0.15-0.41,0.36-0.6,0.56c0.65,0.5,1.31,1.01,1.96,1.51c0.21-0.38,0.41-0.73,0.45-1.17
				c0.07-0.7-0.63-1.21-1.25-1.25c-0.82-0.05-1.42,0.85-1.32,1.59c0.1,0.74,0.84,1.25,1.58,1.04c0.37-0.1,0.63-0.37,0.87-0.65
				c0.44-0.51,0.5-1.27,0-1.77C144.12,134.7,143.25,134.64,142.8,135.15L142.8,135.15z"/>
		</g>
	</g>
	<g>
		<path d="M140.22,139.74c-0.08-0.02-0.13,0.1-0.14,0.19c-0.06,0.52-0.12,1.03-0.18,1.55c-0.01,0.06-0.01,0.14,0.04,0.18
			c0.06,0.04,0.13-0.01,0.18-0.06c0.2-0.21,0.35-0.47,0.45-0.74c-0.12,0.25-0.18,0.53-0.15,0.81c0.24-0.1,0.36-0.37,0.47-0.62
			c0.39-0.89,0.78-1.79,1.17-2.68c-0.34,1-0.81,1.95-1.39,2.82c0.5-0.23,0.77-0.81,0.94-1.37s0.29-1.15,0.66-1.59
			c-0.45,0.94-0.93,1.87-1.44,2.78c-0.04,0.07-0.18,0.05-0.12,0"/>
		<g>
			<path d="M139.59,138.66c-0.71,0.37-0.74,1.08-0.82,1.78c-0.07,0.6-0.26,1.24,0.07,1.8c0.37,0.63,1.19,0.85,1.83,0.49
				c0.58-0.33,0.87-0.98,1.11-1.56c-0.8-0.22-1.61-0.44-2.41-0.66c-0.15,0.36-0.2,0.75-0.19,1.15c0.03,0.89,1.06,1.63,1.88,1.08
				c0.64-0.43,0.89-0.99,1.19-1.68c0.3-0.69,0.6-1.38,0.9-2.07c-0.76-0.32-1.52-0.64-2.28-0.96c-0.32,0.89-0.75,1.72-1.26,2.52
				c-0.7,1.08,0.66,2.3,1.71,1.71c0.64-0.36,1.04-0.93,1.32-1.6c0.25-0.61,0.33-1.27,0.72-1.81c-0.72-0.42-1.44-0.84-2.16-1.26
				c-0.45,0.94-0.93,1.87-1.44,2.78c0.15-0.15,0.3-0.3,0.45-0.45c-0.02,0.01-0.04,0.03-0.06,0.04c0.21-0.06,0.42-0.11,0.63-0.17
				c-0.02,0-0.04,0-0.06,0c0.42,0.42,0.83,0.83,1.25,1.25c0-0.01,0-0.02,0-0.04c0.1-1.61-2.41-1.6-2.5,0c0,0.01,0,0.02,0,0.04
				c-0.04,0.69,0.61,1.23,1.25,1.25c0.87,0.03,1.23-0.69,1.58-1.35c0.37-0.69,0.72-1.39,1.06-2.09c0.71-1.47-1.21-2.55-2.16-1.26
				c-0.34,0.47-0.53,1.02-0.69,1.57c-0.09,0.31-0.16,0.77-0.45,0.94c0.57,0.57,1.14,1.14,1.71,1.71c0.63-0.98,1.12-2.02,1.51-3.12
				c0.47-1.32-1.72-2.27-2.28-0.96c-0.23,0.53-0.46,1.06-0.69,1.58c-0.11,0.24-0.21,0.49-0.32,0.73c-0.04,0.1-0.28,0.6-0.18,0.54
				c0.63,0.36,1.25,0.72,1.88,1.08c-0.01-0.25,0.01-0.25,0.1-0.48c0.26-0.62-0.28-1.37-0.87-1.54c-0.72-0.2-1.28,0.25-1.54,0.87
				c-0.1,0.11-0.09,0.13,0.03,0.06c0.21-0.06,0.42-0.11,0.63-0.17c-0.03,0-0.06,0-0.09,0c0.36,0.21,0.72,0.41,1.08,0.62
				c-0.01-0.03-0.03-0.05-0.04-0.08c0.06,0.21,0.11,0.42,0.17,0.63c0.01-0.43,0.05-1.04,0.18-1.45c-0.19,0.25-0.38,0.5-0.57,0.75
				c0.03-0.02,0.06-0.03,0.1-0.05C142.28,140.08,141.02,137.92,139.59,138.66L139.59,138.66z"/>
		</g>
	</g>
	<g>
		<path d="M146.53,127.88c0.72-1.26,1.34-2.57,1.86-3.94"/>
		<g>
			<path d="M147.61,128.51c0.77-1.36,1.42-2.78,1.98-4.23c0.24-0.63-0.27-1.37-0.87-1.54c-0.71-0.19-1.29,0.24-1.54,0.87
				c-0.49,1.26-1.07,2.46-1.73,3.64C144.66,128.65,146.82,129.91,147.61,128.51L147.61,128.51z"/>
		</g>
	</g>
	<g>
		<path d="M147.17,123.73c-0.08,0.43-0.16,0.87-0.24,1.3c0.22,0.21,0.55-0.06,0.72-0.32c0.67-1,1.18-2.11,1.69-3.21
			c0.31-0.67,0.62-1.34,0.92-2c0.39-0.84,0.78-1.69,1.01-2.59c0.16-0.6,0.25-1.23,0.4-1.83c0.21-0.86,0.55-1.68,0.99-2.43"/>
		<g>
			<path d="M145.97,123.39c-0.08,0.43-0.16,0.87-0.24,1.3c-0.15,0.82,0.34,1.54,1.21,1.58c2.1,0.11,2.94-2.97,3.64-4.48
				c0.5-1.07,1.02-2.14,1.45-3.24c0.69-1.76,0.82-3.59,1.72-5.28c0.75-1.42-1.4-2.69-2.16-1.26c-1.04,1.97-1.27,4.12-2.1,6.15
				c-0.26,0.63-2.26,5.63-2.56,5.61c0.4,0.53,0.8,1.05,1.21,1.58c0.08-0.43,0.16-0.87,0.24-1.3
				C148.67,122.49,146.26,121.81,145.97,123.39L145.97,123.39z"/>
		</g>
	</g>
	<g>
		<path d="M150.93,112.59c-0.13,0.08-0.24,0.19-0.32,0.33c0.18-0.03,0.35-0.18,0.41-0.38"/>
		<g>
			<path d="M149.67,110.44c-0.52,0.37-0.86,0.7-1.22,1.23c-0.56,0.82-0.38,2.04,0.2,2.78c0.58,0.75,1.69,1.22,2.63,0.9
				c0.78-0.27,1.54-0.74,1.9-1.53c0.29-0.63,0.44-1.24,0.25-1.93c-0.16-0.58-0.61-1.21-1.15-1.49c-1.1-0.58-2.84-0.37-3.42,0.9
				c0.36-0.26,0.73-0.52,1.09-0.77c0.94,1.22,1.88,2.45,2.82,3.67c-0.19,0.19-0.38,0.38-0.58,0.57c0.54-0.39,0.97-0.83,1.15-1.49
				c0.16-0.6,0.09-1.4-0.25-1.93C152.41,110.28,150.81,109.63,149.67,110.44L149.67,110.44z"/>
		</g>
	</g>
	<g>
		<path d="M152.81,112.99c-0.06,0.18-0.11,0.37-0.17,0.55c0.94-2.21,1.54-4.57,2.14-6.91c0.57-2.22,1.14-4.44,1.71-6.66
			c0.35-1.34,0.69-2.69,1.04-4.03"/>
		<g>
			<path d="M152.2,112.82c-0.06,0.18-0.11,0.37-0.17,0.55c-0.24,0.78,0.92,1.06,1.21,0.33c2.23-5.63,3.39-11.75,4.89-17.61
				c0.2-0.78-1.01-1.11-1.21-0.33c-1.5,5.86-2.66,11.98-4.89,17.61c0.4,0.11,0.8,0.22,1.21,0.33c0.06-0.18,0.11-0.37,0.17-0.55
				C153.65,112.38,152.44,112.05,152.2,112.82L152.2,112.82z"/>
		</g>
	</g>
	<g>
		<path d="M152.23,113.18c-0.05,0.02-0.01,0.1,0.04,0.09c0.05-0.01,0.07-0.07,0.09-0.11c0.17-0.47,0.33-0.94,0.5-1.4
			c0.2,0.23,0.19,0.63-0.02,0.84c0.13-0.26,0.22-0.54,0.27-0.83c0.12,0.14,0.13,0.37,0.04,0.53c0.04-0.16,0.08-0.33,0.13-0.49
			c0.05,0.22,0.01,0.46-0.09,0.65c0.1-0.24,0.19-0.49,0.29-0.73c0.01,0.25-0.04,0.5-0.14,0.73c0.09-0.46,0.22-0.91,0.39-1.34
			c-0.04,0.71-0.3,1.41-0.75,1.94"/>
		<g>
			<path d="M151.62,113.01c0,0.02-0.01,0.04-0.01,0.06c-0.07,0.28,0.05,0.55,0.29,0.71c0.02,0.01,0.04,0.02,0.06,0.04
				c0.17,0.11,0.47,0.13,0.63,0c0.53-0.4,0.66-1.29,0.88-1.89c-0.38,0.05-0.76,0.1-1.14,0.15c0.01,0.04,0.04,0.07,0.08,0.09
				c0.33,0.25,0.65,0.5,0.98,0.76c0.15-0.32,0.26-0.63,0.33-0.98c-0.38,0.05-0.76,0.1-1.14,0.15c-0.01,0.02-0.02,0.03-0.03,0.05
				c0.4,0.11,0.8,0.22,1.21,0.33c0.04-0.16,0.08-0.33,0.13-0.49c-0.41-0.06-0.82-0.11-1.23-0.17c0.03,0.11,0.03,0.22-0.01,0.33
				c0.38,0.16,0.76,0.32,1.14,0.48c0.1-0.24,0.19-0.49,0.29-0.73c-0.41-0.06-0.82-0.11-1.23-0.17c0,0.21-0.04,0.37-0.12,0.56
				c0.4,0.11,0.8,0.22,1.21,0.33c0.09-0.46,0.22-0.9,0.39-1.34c-0.41-0.06-0.82-0.11-1.23-0.17c-0.04,0.54-0.23,1.07-0.56,1.5
				c-0.49,0.62,0.39,1.52,0.88,0.88c0.56-0.71,0.86-1.48,0.93-2.38c0.06-0.75-0.99-0.78-1.23-0.17c-0.17,0.44-0.3,0.88-0.39,1.34
				c-0.16,0.8,0.91,1.07,1.21,0.33c0.12-0.29,0.16-0.58,0.17-0.9c0.01-0.75-0.98-0.79-1.23-0.17c-0.1,0.24-0.19,0.49-0.29,0.73
				c-0.26,0.65,0.86,1.13,1.14,0.48c0.14-0.32,0.22-0.61,0.18-0.97c-0.08-0.65-1.04-0.91-1.23-0.17c-0.04,0.16-0.08,0.33-0.13,0.49
				c-0.2,0.8,0.91,1.06,1.21,0.33c0.14-0.35,0.09-0.69-0.1-1.01c-0.25-0.45-1.03-0.39-1.14,0.15c-0.05,0.24-0.11,0.46-0.21,0.68
				c-0.27,0.59,0.51,1.36,0.98,0.76c0.37-0.48,0.48-1.08,0.12-1.6c-0.32-0.45-0.96-0.37-1.14,0.15c-0.08,0.23-0.17,0.47-0.25,0.7
				c-0.04,0.12-0.35,0.67-0.05,0.44c0.21,0,0.42,0,0.63,0c-0.02-0.01-0.04-0.02-0.06-0.04c0.1,0.24,0.19,0.47,0.29,0.71
				c0-0.02,0.01-0.04,0.01-0.06C153.03,112.57,151.83,112.23,151.62,113.01L151.62,113.01z"/>
		</g>
	</g>
	<g>
		<path d="M141.94,138.91c-0.13,0.67-0.22,1.35-0.25,2.03c0.53-0.3,0.7-1.01,0.96-1.58c0.16-0.35,0.37-0.68,0.58-1
			c0.33-0.52,0.67-1.04,1-1.56"/>
		<g>
			<path d="M141.34,138.74c-0.14,0.73-0.23,1.46-0.28,2.2c-0.03,0.45,0.56,0.81,0.94,0.54c0.66-0.47,0.86-1.1,1.19-1.81
				c0.42-0.9,1.04-1.73,1.58-2.57c0.44-0.68-0.65-1.31-1.08-0.63c-0.44,0.68-0.91,1.35-1.31,2.05c-0.32,0.55-0.48,1.5-1.01,1.87
				c0.31,0.18,0.63,0.36,0.94,0.54c0.04-0.63,0.12-1.24,0.23-1.86C142.69,138.29,141.49,137.95,141.34,138.74L141.34,138.74z"/>
		</g>
	</g>
	<g>
		<path d="M143.74,137.16c0.42-0.24,0.75-0.66,0.9-1.14"/>
		<g>
			<path d="M144.05,137.7c0.58-0.36,0.96-0.87,1.19-1.52c0.26-0.76-0.94-1.09-1.21-0.33c-0.12,0.33-0.31,0.58-0.61,0.77
				C142.74,137.05,143.36,138.13,144.05,137.7L144.05,137.7z"/>
		</g>
	</g>
	<g>
		<path d="M147.7,127c0.33-0.22,0.48-0.64,0.62-1.03c0.24-0.67,0.47-1.35,0.71-2.02"/>
		<g>
			<path d="M148.14,127.44c0.41-0.34,0.6-0.82,0.78-1.31c0.24-0.67,0.47-1.35,0.71-2.02c0.27-0.76-0.94-1.09-1.21-0.33
				c-0.18,0.52-0.37,1.05-0.55,1.57c-0.15,0.43-0.25,0.9-0.61,1.2C146.63,127.07,147.52,127.95,148.14,127.44L148.14,127.44z"/>
		</g>
	</g>
	<g>
		<path d="M153.27,111.79c-0.1,0.14-0.2,0.28-0.29,0.42c0.63-0.83,1.02-1.84,1.4-2.83c0.67-1.78,1.33-3.57,1.98-5.37
			c0.04-0.11,0.08-0.22,0.06-0.33c-0.05-0.28-0.43-0.44-0.38-0.71"/>
		<g>
			<path d="M152.73,111.47c-0.1,0.14-0.2,0.28-0.29,0.42c0.36,0.21,0.72,0.42,1.08,0.63c1.16-1.7,1.75-3.74,2.46-5.66
				c0.32-0.88,0.94-1.93,1.01-2.85c0.05-0.61-0.15-0.76-0.41-1.36c-0.32-0.74-1.4-0.1-1.08,0.63c0.48,1.1-0.56,2.8-0.97,3.92
				c-0.59,1.61-1.11,3.26-2.08,4.69c-0.45,0.67,0.62,1.29,1.08,0.63c0.1-0.14,0.2-0.28,0.29-0.42
				C154.27,111.44,153.19,110.81,152.73,111.47L152.73,111.47z"/>
		</g>
	</g>
	<g>
		<path d="M155.97,104.27c-0.08,0.08-0.15,0.17-0.23,0.25c0.59-0.57,0.88-1.4,1.14-2.19c0.8-2.41,1.56-4.84,2.27-7.28"/>
		<g>
			<path d="M155.53,103.83c-0.08,0.08-0.15,0.17-0.23,0.25c0.29,0.29,0.59,0.59,0.88,0.88c0.94-1.09,1.3-2.43,1.74-3.79
				c0.64-1.98,1.25-3.97,1.84-5.96c0.23-0.77-0.98-1.1-1.21-0.33c-0.46,1.55-0.92,3.1-1.42,4.64c-0.48,1.49-0.8,3.35-1.84,4.55
				c-0.52,0.6,0.34,1.48,0.88,0.88c0.08-0.08,0.15-0.17,0.23-0.25C156.95,104.12,156.07,103.23,155.53,103.83L155.53,103.83z"/>
		</g>
	</g>
	<g>
		<path d="M157.5,98.24c-0.15,0.08-0.3,0.16-0.45,0.24c1.56-2.12,2.43-4.76,2.78-7.43c0.34-2.68,0.18-5.4-0.19-8.08
			c-0.09-0.67-0.2-1.34-0.28-2.01c0.12,4.92-0.77,9.87-2.58,14.4c-0.08,0.21-0.17,0.43-0.16,0.66c0.02,0.23,0.17,0.47,0.39,0.47
			c0.28,0.01,0.43-0.33,0.52-0.61c0.42-1.35,0.85-2.7,1.27-4.05c0.35-1.11,0.69-2.35,0.26-3.42c0.59,2.03,0.53,4.28-0.18,6.26
			c0.19-0.22,0.33-0.49,0.4-0.79c0,0.41-0.14,0.82-0.37,1.15c0.25-0.37,0.43-0.8,0.52-1.25c-0.1,0.24-0.19,0.47-0.29,0.71
			c0.47-1.16,0.72-2.43,0.72-3.69"/>
		<g>
			<path d="M157.19,97.7c-0.15,0.08-0.3,0.16-0.45,0.24c0.29,0.29,0.57,0.57,0.86,0.86c3.62-5.43,3.22-11.63,2.39-17.83
				c-0.1-0.77-1.26-0.83-1.25,0c0.03,4.27-0.54,8.47-1.92,12.51c-0.37,1.1-1.48,2.78-0.12,3.56c0.19,0.11,0.44,0.11,0.63,0
				c1.01-0.6,1.12-1.97,1.45-3.01c0.62-1.98,1.28-3.69,0.89-5.78c-0.4,0.11-0.8,0.22-1.21,0.33c0.49,2.09,0.43,3.87-0.18,5.93
				c-0.2,0.67,0.82,1.12,1.14,0.48c0.13-0.26,0.27-0.52,0.4-0.79c-0.38-0.16-0.76-0.32-1.14-0.48c-0.1,0.33-0.2,0.67-0.31,1
				c-0.36,0.71,0.7,1.35,1.08,0.63c0.34-0.64,0.37-0.7,0.58-1.39c0.24-0.79-0.91-1.06-1.21-0.33c-0.1,0.24-0.19,0.47-0.29,0.71
				c0.4,0.11,0.8,0.22,1.21,0.33c0.44-1.33,0.65-2.48,0.75-3.86c0.05-0.8-1.2-0.8-1.25,0c-0.01,1.23-0.24,2.4-0.7,3.53
				c-0.26,0.78,0.91,1.06,1.21,0.33c0.1-0.24,0.19-0.47,0.29-0.71c-0.4-0.11-0.8-0.22-1.21-0.33c-0.15,0.37-0.3,0.73-0.46,1.1
				c0.36,0.21,0.72,0.42,1.08,0.63c0.32-0.64,0.32-0.59,0.43-1.3c0.11-0.64-0.79-1.16-1.14-0.48c-0.13,0.26-0.27,0.52-0.4,0.79
				c0.38,0.16,0.76,0.32,1.14,0.48c0.67-2.24,0.72-4.32,0.18-6.59c-0.19-0.79-1.35-0.45-1.21,0.33c0.41,2.25-1.53,4.51-1.14,6.53
				c0.19,0.98,0.58-0.95,0.7-1.31c0.33-0.97,0.62-1.94,0.87-2.93c0.81-3.25,1.12-6.57,1.1-9.91c-0.42,0-0.83,0-1.25,0
				c0.79,5.99,1.29,11.93-2.22,17.2c-0.36,0.55,0.34,1.14,0.86,0.86c0.15-0.08,0.3-0.16,0.45-0.24
				C158.53,98.4,157.9,97.32,157.19,97.7L157.19,97.7z"/>
		</g>
	</g>
	<g>
		<path d="M159.53,81.47c0.01-1.13-0.03-2.27-0.13-3.4c-0.08-0.9-0.2-1.8-0.31-2.7c-0.09-0.71-0.18-1.41-0.3-2.12
			c-0.27-1.57-0.69-3.11-1.25-4.59c0.91,1.14,1.24,2.69,1.37,4.19c0.13,1.5,0.08,3.02,0.36,4.49c0.13,0.71,0.34,1.41,0.38,2.13
			c0.07,1.24-0.37,2.47-0.29,3.71c0.04,0.74,0.26,1.46,0.28,2.2c0.01,0.68-0.15,1.34-0.31,1.99c-0.18,0.74-0.36,1.47-0.54,2.21"/>
		<g>
			<path d="M160.16,81.47c-0.03-4.39-0.59-8.81-2.02-12.97c-0.38,0.16-0.76,0.32-1.14,0.48c1.8,2.89,1.86,7.78,1.85,11.19
				c-0.01,3.17,0.09,6.14-0.67,9.25c-0.19,0.78,1.01,1.11,1.21,0.33c0.83-3.4,1.13-6.85,0.88-10.37c-0.25-3.47-0.27-7.97-2.18-11.04
				c-0.36-0.58-1.38-0.21-1.14,0.48c1.39,4.06,1.95,8.35,1.98,12.64C158.91,82.27,160.16,82.27,160.16,81.47L160.16,81.47z"/>
		</g>
	</g>
	<g>
		<path d="M159.61,91.63c-0.56,0.95-0.89,2.06-0.95,3.19c-0.01,0.1,0,0.22,0.07,0.29c0.09,0.08,0.24,0.01,0.29-0.1
			s0.05-0.24,0.05-0.37c-0.08,0.16,0.01,0.39,0.17,0.45c-0.06-0.94,0.05-1.9,0.32-2.79c0.09-0.28,0.19-0.56,0.18-0.85
			c-0.01-0.5-0.33-0.99-0.18-1.46c0.08,0.25,0.16,0.5,0.24,0.74c0.05-0.2,0.06-0.42,0.01-0.62c-0.08,0.41-0.08,0.83,0,1.24"/>
		<g>
			<path d="M159.07,91.32c-0.41,0.73-0.72,1.51-0.89,2.33c-0.1,0.5-0.28,1.17-0.06,1.65c0.49,1.01,1.57,0.2,1.57-0.65
				c0-0.68-1.12-0.88-1.23-0.17c-0.07,0.43-0.03,0.77,0.33,1.06c0.39,0.31,1.09,0.15,1.07-0.44c-0.04-1.03,0.15-1.92,0.39-2.91
				c0.19-0.79-0.16-1.44-0.06-2.2c-0.41,0.06-0.82,0.11-1.23,0.17c0.08,0.25,0.16,0.5,0.24,0.74c0.23,0.71,1.14,0.51,1.23-0.17
				c0.05-0.21,0.06-0.41,0.01-0.62c-0.06-0.64-1.12-0.92-1.23-0.17c-0.08,0.54-0.08,1.03,0,1.57c0.11,0.79,1.31,0.46,1.21-0.33
				c-0.05-0.3-0.05-0.6,0-0.91c-0.41-0.06-0.82-0.11-1.23-0.17c0.04,0.21,0.04,0.42-0.01,0.62c0.41-0.06,0.82-0.11,1.23-0.17
				c-0.08-0.25-0.16-0.5-0.24-0.74c-0.23-0.71-1.14-0.51-1.23,0.17c-0.05,0.38,0.02,0.67,0.1,1.03c0.12,0.56-0.03,0.92-0.17,1.45
				c-0.22,0.86-0.29,1.74-0.25,2.62c0.36-0.15,0.71-0.29,1.07-0.44c0,0.05-0.01,0.1-0.01,0.16c-0.41-0.06-0.82-0.11-1.23-0.17
				c0.09-0.05,0.19-0.11,0.28-0.16c0.18,0.1,0.36,0.21,0.54,0.31c-0.09-0.17,0.16-1.04,0.23-1.3c0.15-0.54,0.37-1.05,0.64-1.54
				C160.54,91.24,159.46,90.61,159.07,91.32L159.07,91.32z"/>
		</g>
	</g>
	<g>
		<path d="M157.53,69.46c-0.03-0.24-0.06-0.48-0.1-0.72c-0.01,0.14,0.02,0.28,0.08,0.4c-0.07-0.17-0.14-0.35-0.2-0.52
			c-0.01,0.11,0.01,0.22,0.05,0.32c-0.01-0.25-0.06-0.51-0.14-0.74c0,0.24,0.05,0.48,0.15,0.7c-0.04-0.31-0.13-0.6-0.27-0.87
			c0.07,0.27,0.13,0.55,0.2,0.82c-0.03-0.39-0.15-0.76-0.35-1.09c0.09,0.26,0.19,0.52,0.28,0.77c-0.02-0.4-0.09-0.8-0.21-1.19
			c-0.01,0.32,0.04,0.63,0.15,0.93c-0.08-0.35-0.17-0.69-0.29-1.02c0.06,0.21,0.12,0.42,0.18,0.63c0.02-0.3-0.04-0.59-0.16-0.86
			c0.05,0.39,0.13,0.78,0.25,1.16c0-0.27-0.07-0.55-0.2-0.78c0.18,0.63,0.35,1.27,0.53,1.9c0.28-0.8-0.07-1.67-0.41-2.43
			c-0.17-0.39-0.34-0.77-0.52-1.16c0.38,1.23,0.75,2.46,1.13,3.68c0.02-0.27,0.03-0.53,0.05-0.8c-0.03,0.15-0.01,0.31,0.05,0.46
			c-0.08-0.71-0.27-1.41-0.57-2.05c-0.02-0.05-0.06-0.11-0.11-0.11s-0.07,0.11-0.02,0.11c-0.02-0.09,0.02-0.17,0.03-0.26
			c0.01-0.09-0.02-0.2-0.1-0.21c-0.08-0.02-0.13,0.15-0.05,0.15c-0.06-0.24-0.16-0.47-0.29-0.67c-0.05,0.1-0.05,0.24,0,0.34
			c0-0.24-0.06-0.48-0.18-0.69c-0.02,0.09,0,0.19,0.05,0.26c-0.04-0.14-0.08-0.28-0.12-0.41c-0.05,0.05-0.04,0.15,0,0.2
			c0.05-0.22-0.04-0.46-0.2-0.59c0.08,0.32,0.19,0.64,0.3,0.95c0.34,0.98,0.68,1.97,1.02,2.95c-0.02-0.14-0.03-0.28-0.05-0.42
			c0,0.14,0,0.28,0.01,0.42c0-0.11,0-0.22,0-0.32c-0.02,0.13,0.01,0.27,0.07,0.39c0.02,0.04,0.07-0.02,0.04,0
			c0.05,0.1,0.11,0.2,0.16,0.3c0.04-0.12,0.02-0.25-0.05-0.35"/>
		<g>
			<path d="M158.16,69.46c-0.03-0.24-0.06-0.48-0.1-0.72c-0.1-0.77-1.29-0.83-1.25,0c0.01,0.22,0.03,0.36,0.1,0.57
				c0.4-0.11,0.8-0.22,1.21-0.33c-0.07-0.17-0.14-0.35-0.2-0.52c-0.24-0.62-1.25-0.59-1.23,0.17c0,0.18,0.02,0.31,0.08,0.49
				c0.21,0.64,1.29,0.57,1.23-0.17c-0.03-0.31-0.07-0.6-0.17-0.91c-0.2-0.65-1.28-0.56-1.23,0.17c0.02,0.31,0.06,0.58,0.17,0.87
				c0.28,0.76,1.35,0.46,1.21-0.33c-0.07-0.37-0.18-0.68-0.33-1.02c-0.3-0.67-1.3-0.18-1.14,0.48c0.07,0.27,0.13,0.55,0.2,0.82
				c0.19,0.8,1.32,0.44,1.21-0.33c-0.06-0.45-0.2-0.84-0.41-1.24c-0.32-0.62-1.39-0.19-1.14,0.48c0.09,0.26,0.19,0.52,0.28,0.77
				c0.22,0.61,1.29,0.59,1.23-0.17c-0.04-0.46-0.11-0.9-0.23-1.35c-0.18-0.67-1.25-0.55-1.23,0.17c0.01,0.38,0.06,0.72,0.17,1.09
				c0.22,0.77,1.39,0.45,1.21-0.33c-0.08-0.35-0.18-0.68-0.29-1.02c-0.25-0.76-1.42-0.45-1.21,0.33c0.06,0.21,0.12,0.42,0.18,0.63
				c0.19,0.67,1.25,0.55,1.23-0.17c-0.01-0.37-0.06-0.68-0.18-1.03c-0.27-0.78-1.32-0.45-1.21,0.33c0.06,0.4,0.14,0.78,0.25,1.16
				c0.19,0.65,1.29,0.56,1.23-0.17c-0.03-0.41-0.12-0.73-0.28-1.1c-0.29-0.66-1.33-0.19-1.14,0.48c0.18,0.63,0.35,1.27,0.53,1.9
				c0.16,0.59,1.05,0.6,1.21,0c0.38-1.45-0.42-2.79-0.99-4.07c-0.29-0.65-1.35-0.19-1.14,0.48c0.38,1.23,0.75,2.46,1.13,3.68
				c0.21,0.69,1.18,0.53,1.23-0.17c0.02-0.27,0.03-0.53,0.05-0.8c-0.42,0-0.83,0-1.25,0c-0.01,0.24,0.01,0.39,0.07,0.62
				c0.16,0.67,1.32,0.54,1.23-0.17c-0.1-0.76-0.22-2.28-0.99-2.7c-0.24-0.13-0.57-0.11-0.76,0.1c-0.02,0.02-0.03,0.04-0.05,0.05
				c-0.19,0.2-0.24,0.51-0.1,0.76c0.01,0.02,0.02,0.03,0.03,0.05c0.34,0.58,1.1,0.27,1.16-0.32c0.04-0.37,0.02-0.65-0.25-0.92
				c-0.26-0.25-0.62-0.21-0.88,0c-0.03,0.02-0.06,0.04-0.08,0.07c-0.23,0.19-0.2,0.52-0.1,0.76c0.01,0.03,0.03,0.06,0.04,0.08
				c0.29,0.65,1.35,0.19,1.14-0.48c-0.09-0.29-0.2-0.56-0.36-0.82c-0.26-0.45-1.02-0.38-1.14,0.15c-0.06,0.25-0.06,0.42,0,0.67
				c0.17,0.66,1.28,0.55,1.23-0.17c-0.03-0.37-0.11-0.66-0.26-1c-0.31-0.68-1.28-0.17-1.14,0.48c0.02,0.09,0.04,0.17,0.05,0.26
				c0.4-0.11,0.8-0.22,1.21-0.33c-0.04-0.14-0.08-0.28-0.12-0.41c-0.17-0.61-1.02-0.57-1.21,0c-0.06,0.19-0.07,0.34,0,0.53
				c0.25,0.63,1.21,0.58,1.23-0.17c0.01-0.43-0.11-0.71-0.39-1.04c-0.41-0.49-1.21,0.04-1.04,0.61c0.38,1.32,0.87,2.61,1.32,3.9
				c0.21,0.62,1.32,0.58,1.23-0.17c-0.02-0.14-0.03-0.28-0.05-0.42c-0.1-0.77-1.26-0.83-1.25,0c0,0.14,0,0.28,0.01,0.42
				c0.01,0.8,1.25,0.81,1.25,0c0-0.11,0-0.22,0-0.32c-0.42,0-0.83,0-1.25,0c0.01,0.21,0.02,0.35,0.09,0.56
				c0.06,0.19,0.22,0.41,0.44,0.44c0.01,0,0.03,0,0.04,0.01c0.43,0.06,0.75-0.16,0.79-0.6c0,0,0,0,0-0.01
				c-0.39,0.11-0.78,0.21-1.16,0.32c0.05,0.1,0.11,0.2,0.16,0.3c0.31,0.59,1.12,0.26,1.16-0.32c0.02-0.21,0-0.32-0.07-0.52
				c-0.29-0.74-1.5-0.42-1.21,0.33c0.01,0.06,0.02,0.12,0.03,0.19c0.39-0.11,0.78-0.21,1.16-0.32c-0.05-0.1-0.11-0.2-0.16-0.3
				c-0.31-0.59-1.11-0.26-1.16,0.32c0,0,0,0,0,0.01c0.26-0.2,0.53-0.4,0.79-0.6c-0.01,0-0.03,0-0.04-0.01
				c0.15,0.15,0.29,0.29,0.44,0.44c-0.02-0.07-0.03-0.15-0.05-0.22c-0.02-0.8-1.25-0.81-1.25,0c0,0.11,0,0.22,0,0.32
				c0.42,0,0.83,0,1.25,0c0-0.14,0-0.28-0.01-0.42c-0.42,0-0.83,0-1.25,0c0.02,0.14,0.03,0.28,0.05,0.42
				c0.41-0.06,0.82-0.11,1.23-0.17c-0.45-1.29-0.95-2.58-1.32-3.9c-0.35,0.2-0.7,0.41-1.04,0.61c0.01,0.05,0.01,0.1,0.02,0.15
				c0.41-0.06,0.82-0.11,1.23-0.17c0,0.05,0,0.09,0,0.14c-0.4,0-0.8,0-1.21,0c0.04,0.14,0.08,0.28,0.12,0.41
				c0.22,0.78,1.37,0.45,1.21-0.33c-0.02-0.09-0.04-0.17-0.05-0.26c-0.38,0.16-0.76,0.32-1.14,0.48c0.03,0.12,0.06,0.25,0.09,0.37
				c0.41-0.06,0.82-0.11,1.23-0.17c0,0,0-0.01,0-0.01c-0.38,0.05-0.76,0.1-1.14,0.15c0.11,0.16,0.19,0.34,0.23,0.53
				c0.38-0.16,0.76-0.32,1.14-0.48c-0.01-0.03-0.03-0.06-0.04-0.08c-0.03,0.25-0.07,0.5-0.1,0.76c0.03-0.02,0.06-0.04,0.08-0.07
				c-0.29,0-0.59,0-0.88,0c0.03,0.03,0.06,0.05,0.08,0.08c-0.06-0.15-0.12-0.29-0.18-0.44c0.02,0.13,0.02,0.26-0.01,0.39
				c0.39-0.11,0.78-0.21,1.16-0.32c-0.01-0.02-0.02-0.03-0.03-0.05c-0.03,0.25-0.07,0.5-0.1,0.76c0.02-0.02,0.03-0.04,0.05-0.05
				c-0.25,0.03-0.5,0.07-0.76,0.1c-0.15-0.18-0.15-0.14-0.03,0.09c0.07,0.16,0.13,0.33,0.18,0.5c0.1,0.34,0.18,0.68,0.22,1.03
				c0.41-0.06,0.82-0.11,1.23-0.17c-0.01-0.1-0.02-0.19-0.02-0.29c0.03-0.81-1.2-0.8-1.25,0c-0.02,0.27-0.03,0.53-0.05,0.8
				c0.41-0.06,0.82-0.11,1.23-0.17c-0.38-1.23-0.75-2.46-1.13-3.68c-0.38,0.16-0.76,0.32-1.14,0.48c0.42,0.93,1.14,2.05,0.87,3.11
				c0.4,0,0.8,0,1.21,0c-0.18-0.63-0.35-1.27-0.53-1.9c-0.38,0.16-0.76,0.32-1.14,0.48c0.04,0.16,0.07,0.31,0.11,0.47
				c0.41-0.06,0.82-0.11,1.23-0.17c-0.11-0.38-0.19-0.77-0.25-1.16c-0.4,0.11-0.8,0.22-1.21,0.33c0.1,0.22,0.15,0.45,0.13,0.7
				c0.41-0.06,0.82-0.11,1.23-0.17c-0.06-0.21-0.12-0.42-0.18-0.63c-0.4,0.11-0.8,0.22-1.21,0.33c0.11,0.34,0.21,0.67,0.29,1.02
				c0.4-0.11,0.8-0.22,1.21-0.33c-0.09-0.24-0.13-0.5-0.12-0.76c-0.41,0.06-0.82,0.11-1.23,0.17c0.09,0.35,0.15,0.66,0.19,1.02
				c0.41-0.06,0.82-0.11,1.23-0.17c-0.09-0.26-0.19-0.52-0.28-0.77c-0.38,0.16-0.76,0.32-1.14,0.48c0.17,0.33,0.23,0.59,0.28,0.94
				c0.4-0.11,0.8-0.22,1.21-0.33c-0.07-0.27-0.13-0.55-0.2-0.82c-0.38,0.16-0.76,0.32-1.14,0.48c0.11,0.23,0.18,0.47,0.21,0.73
				c0.4-0.11,0.8-0.22,1.21-0.33c-0.08-0.17-0.12-0.35-0.13-0.54c-0.41,0.06-0.82,0.11-1.23,0.17c0.07,0.19,0.11,0.38,0.12,0.58
				c0.41-0.06,0.82-0.11,1.23-0.17c-0.01-0.05-0.02-0.1-0.03-0.15c-0.41,0.06-0.82,0.11-1.23,0.17c0.07,0.17,0.14,0.35,0.2,0.52
				c0.29,0.74,1.47,0.44,1.21-0.33c-0.02-0.08-0.04-0.16-0.06-0.23c-0.42,0-0.83,0-1.25,0c0.03,0.24,0.06,0.48,0.1,0.72
				C157.01,70.24,158.26,70.25,158.16,69.46L158.16,69.46z"/>
		</g>
	</g>
	<g>
		<path d="M156.96,67.64c0.01-0.69-0.15-1.38-0.48-1.98c0.26,0.53,0.47,1.08,0.62,1.65c-0.17-0.71-0.36-1.41-0.6-2.1
			c0.07,0.61,0.24,1.2,0.5,1.74c-0.29-1.16-0.7-2.28-1.1-3.39c0.4,0.46,0.48,1.12,0.62,1.73c0.09,0.4,0.22,0.79,0.34,1.18
			c0.37,1.15,0.73,2.3,1.1,3.45c0.09-0.44-0.01-0.92-0.27-1.27"/>
		<g>
			<path d="M157.59,67.64c-0.03-0.83-0.2-1.54-0.56-2.29c-0.35-0.73-1.41-0.09-1.08,0.63c0.23,0.5,0.4,0.98,0.56,1.5
				c0.23,0.77,1.4,0.45,1.21-0.33c-0.17-0.71-0.37-1.41-0.6-2.1c-0.25-0.78-1.33-0.45-1.21,0.33c0.1,0.67,0.29,1.27,0.56,1.89
				c0.29,0.66,1.32,0.18,1.14-0.48c-0.31-1.15-0.7-2.27-1.1-3.39c-0.38,0.16-0.76,0.32-1.14,0.48c0.57,0.83,0.67,2.02,0.97,2.98
				c0.34,1.08,0.69,2.16,1.03,3.23c0.22,0.7,1.16,0.52,1.23-0.17c0.06-0.6-0.06-1.07-0.35-1.59c-0.4-0.7-1.48-0.07-1.08,0.63
				c0.2,0.3,0.27,0.62,0.18,0.96c0.41-0.06,0.82-0.11,1.23-0.17c-0.39-1.21-0.79-2.43-1.16-3.64c-0.3-0.96-0.39-2.02-0.97-2.86
				c-0.37-0.55-1.4-0.23-1.14,0.48c0.41,1.12,0.8,2.24,1.1,3.39c0.38-0.16,0.76-0.32,1.14-0.48c-0.23-0.54-0.35-1.02-0.44-1.59
				c-0.4,0.11-0.8,0.22-1.21,0.33c0.22,0.7,0.42,1.39,0.6,2.1c0.4-0.11,0.8-0.22,1.21-0.33c-0.18-0.62-0.41-1.21-0.68-1.8
				c-0.36,0.21-0.72,0.42-1.08,0.63c0.28,0.58,0.37,1.02,0.39,1.66C156.36,68.44,157.61,68.44,157.59,67.64L157.59,67.64z"/>
		</g>
	</g>
	<g>
		<path d="M158.34,70.29c0.15-0.59-0.37-1.11-0.58-1.67c-0.09-0.24-0.13-0.51-0.18-0.76c-0.32-1.9-0.92-3.75-1.78-5.45"/>
		<g>
			<path d="M158.96,70.29c0-0.53-0.14-0.88-0.35-1.37c-0.34-0.79-0.46-1.53-0.65-2.37c-0.36-1.55-0.92-3.03-1.62-4.46
				c-0.35-0.72-1.43-0.09-1.08,0.63c0.65,1.34,1.16,2.72,1.49,4.16c0.11,0.5,0.16,1.03,0.29,1.52c0.16,0.61,0.67,1.26,0.67,1.88
				C157.71,71.09,158.96,71.09,158.96,70.29L158.96,70.29z"/>
		</g>
	</g>
	<g>
		<path d="M154.89,61.41c0.26,0.32,0.41,0.73,0.43,1.15c-0.17-0.14-0.27-0.38-0.26-0.62c0.18,0.08,0.31,0.27,0.33,0.48
			c-0.14-0.08-0.23-0.24-0.24-0.41c0.16,0.19,0.28,0.41,0.37,0.65c-0.1-0.13-0.15-0.32-0.12-0.49c0.11,0.11,0.19,0.26,0.24,0.41
			c-0.06-0.12-0.12-0.24-0.18-0.37c0.04,0.09,0.08,0.18,0.12,0.27c-0.1-0.2-0.17-0.43-0.2-0.65c0.08,0.09,0.13,0.21,0.13,0.33
			c-0.04-0.11-0.08-0.22-0.12-0.33c0.04,0.14,0.07,0.28,0.11,0.42c-0.07-0.22-0.14-0.44-0.21-0.66c0.06,0.26,0.15,0.51,0.27,0.74
			c-0.08-0.26-0.16-0.52-0.25-0.78c-0.06,0.18,0,0.39,0.14,0.51c0.01-0.21-0.06-0.42-0.18-0.59c0.01,0.33,0.07,0.67,0.17,0.98
			c-0.07-0.18-0.14-0.35-0.2-0.53c0.09,0.1,0.17,0.21,0.22,0.34c-0.05-0.32-0.14-0.63-0.26-0.93c-0.08,0.06-0.07,0.22,0.01,0.27
			c-0.01-0.25-0.09-0.5-0.24-0.69c-0.06,0.11-0.03,0.27,0.07,0.35c0.01-0.17-0.06-0.35-0.2-0.45c-0.02,0.12,0.04,0.24,0.13,0.3
			c0-0.22-0.05-0.43-0.15-0.62c-0.09,0.08-0.1,0.25-0.01,0.34c0.05-0.18-0.02-0.39-0.17-0.48c-0.14-0.49-0.37-0.95-0.67-1.36
			c0,0.08,0,0.16,0.01,0.25c-0.04-0.3-0.18-0.58-0.37-0.79"/>
		<g>
			<path d="M154.35,61.73c0.19,0.26,0.31,0.5,0.35,0.83c0.36-0.15,0.71-0.29,1.07-0.44c-0.03-0.06-0.05-0.12-0.08-0.18
				c-0.31,0.18-0.63,0.36-0.94,0.54c0.02,0.04,0.03,0.07,0.05,0.11c0.35-0.2,0.7-0.41,1.04-0.61c-0.02-0.04-0.05-0.09-0.07-0.13
				c-0.38,0.16-0.76,0.32-1.14,0.48c0.16,0.21,0.26,0.4,0.37,0.65c0.36-0.21,0.72-0.42,1.08-0.63c-0.01-0.06-0.02-0.11-0.03-0.17
				c-0.39,0.11-0.78,0.21-1.16,0.32c0.11,0.12,0.19,0.26,0.24,0.41c0.36-0.21,0.72-0.42,1.08-0.63c-0.06-0.12-0.12-0.24-0.18-0.37
				c-0.36-0.73-1.4-0.09-1.08,0.63c0.04,0.09,0.08,0.18,0.12,0.27c0.33,0.74,1.39,0.1,1.08-0.63c-0.07-0.16-0.11-0.33-0.14-0.5
				c-0.38,0.16-0.76,0.32-1.14,0.48c0.02,0.06,0.05,0.12,0.07,0.18c0.4-0.11,0.8-0.22,1.21-0.33c-0.04-0.11-0.08-0.22-0.12-0.33
				c-0.28-0.74-1.41-0.46-1.21,0.33c0.04,0.14,0.07,0.28,0.11,0.42c0.4-0.11,0.8-0.22,1.21-0.33c-0.07-0.22-0.14-0.44-0.21-0.66
				c-0.24-0.76-1.41-0.45-1.21,0.33c0.08,0.31,0.19,0.59,0.33,0.89c0.3,0.64,1.35,0.19,1.14-0.48c-0.08-0.26-0.16-0.52-0.25-0.78
				c-0.22-0.71-1.15-0.51-1.23,0.17c-0.05,0.39,0.09,0.65,0.32,0.95c0.33,0.42,1.11,0.07,1.07-0.44c-0.03-0.34-0.09-0.61-0.26-0.9
				c-0.29-0.52-1.21-0.32-1.16,0.32c0.03,0.39,0.09,0.77,0.19,1.15c0.4-0.11,0.8-0.22,1.21-0.33c-0.07-0.18-0.14-0.35-0.2-0.53
				c-0.35,0.2-0.7,0.41-1.04,0.61c0.04,0.07,0.08,0.14,0.12,0.21c0.35,0.66,1.26,0.18,1.14-0.48c-0.06-0.32-0.14-0.62-0.26-0.93
				c-0.23-0.59-0.97-0.59-1.21,0c-0.12,0.29-0.06,0.49,0.08,0.75c0.28,0.51,1.25,0.31,1.16-0.32c-0.05-0.38-0.13-0.67-0.33-1
				c-0.36-0.57-1.09-0.27-1.16,0.32c-0.04,0.28,0.02,0.43,0.15,0.67c0.36,0.66,1.26,0.18,1.14-0.48c-0.06-0.33-0.15-0.46-0.36-0.72
				c-0.44-0.56-1.12,0.08-1.04,0.61c0.04,0.25,0.13,0.38,0.29,0.58c0.34,0.41,1.11,0.08,1.07-0.44c-0.02-0.28-0.06-0.52-0.17-0.79
				c-0.18-0.42-0.9-0.71-1.14-0.15c-0.13,0.31-0.19,0.49-0.07,0.82c0.25,0.66,1.18,0.56,1.23-0.17c0.04-0.67-0.56-1.62-0.92-2.15
				c-0.33-0.48-1.18-0.34-1.16,0.32c0,0.08,0,0.16,0.01,0.25c0.41-0.06,0.82-0.11,1.23-0.17c-0.1-0.42-0.27-0.73-0.54-1.07
				c-0.5-0.63-1.38,0.26-0.88,0.88c0.12,0.15,0.19,0.33,0.21,0.52c0.16,0.69,1.25,0.54,1.23-0.17c0-0.08,0-0.16-0.01-0.25
				c-0.39,0.11-0.78,0.21-1.16,0.32c0.21,0.31,0.39,0.61,0.52,0.96c0.03,0.08,0.23,0.48,0.23,0.55c0.41-0.06,0.82-0.11,1.23-0.17
				c-0.02-0.06-0.04-0.11-0.06-0.17c-0.02,0.16-0.04,0.32-0.06,0.48c0.02-0.06,0.05-0.11,0.07-0.17c-0.38-0.05-0.76-0.1-1.14-0.15
				c0.08,0.14,0.12,0.29,0.13,0.45c0.36-0.15,0.71-0.29,1.07-0.44c0.01-0.01,0.02-0.02,0.03-0.03c-0.35,0.2-0.7,0.41-1.04,0.61
				c0.01,0.06,0.02,0.11,0.04,0.17c0.38-0.16,0.76-0.32,1.14-0.48c0.01-0.01,0.01-0.03,0.02-0.04c-0.39,0.11-0.78,0.21-1.16,0.32
				c0.05,0.12,0.11,0.25,0.16,0.37c0.39-0.11,0.78-0.21,1.16-0.32c-0.02-0.04-0.05-0.09-0.07-0.13c0.02,0.16,0.04,0.32,0.06,0.48
				c0.02-0.05,0.04-0.09,0.06-0.14c-0.4,0-0.8,0-1.21,0c0.12,0.31,0.21,0.61,0.26,0.93c0.38-0.16,0.76-0.32,1.14-0.48
				c-0.1-0.18-0.2-0.31-0.32-0.47c-0.38-0.49-1.26,0.04-1.04,0.61c0.07,0.18,0.14,0.35,0.2,0.53c0.28,0.73,1.43,0.46,1.21-0.33
				c-0.08-0.28-0.13-0.53-0.15-0.82c-0.39,0.11-0.78,0.21-1.16,0.32c0.03,0.09,0.06,0.18,0.09,0.27c0.36-0.15,0.71-0.29,1.07-0.44
				c0.01-0.02,0.03-0.04,0.04-0.07c-0.41,0.06-0.82,0.11-1.23,0.17c0.08,0.26,0.16,0.52,0.25,0.78c0.38-0.16,0.76-0.32,1.14-0.48
				c-0.09-0.19-0.16-0.38-0.2-0.59c-0.4,0.11-0.8,0.22-1.21,0.33c0.07,0.22,0.14,0.44,0.21,0.66c0.24,0.76,1.4,0.45,1.21-0.33
				c-0.04-0.14-0.07-0.28-0.11-0.42c-0.4,0.11-0.8,0.22-1.21,0.33c0.04,0.11,0.08,0.22,0.12,0.33c0.28,0.74,1.39,0.46,1.21-0.33
				c-0.04-0.19-0.09-0.31-0.2-0.48c-0.38-0.62-1.28-0.2-1.14,0.48c0.06,0.29,0.15,0.53,0.26,0.8c0.36-0.21,0.72-0.42,1.08-0.63
				c-0.04-0.09-0.08-0.18-0.12-0.27c-0.36,0.21-0.72,0.42-1.08,0.63c0.06,0.12,0.12,0.24,0.18,0.37c0.36,0.74,1.38,0.09,1.08-0.63
				c-0.05-0.16-0.12-0.3-0.24-0.41c-0.34-0.45-1.19-0.37-1.16,0.32c0.01,0.33,0.06,0.51,0.2,0.8c0.35,0.74,1.39,0.09,1.08-0.63
				c-0.1-0.24-0.21-0.43-0.37-0.65c-0.39-0.54-1.35-0.25-1.14,0.48c0.09,0.31,0.17,0.45,0.4,0.69c0.44,0.45,1.21-0.01,1.04-0.61
				c-0.11-0.39-0.29-0.62-0.62-0.85c-0.37-0.26-0.98,0.08-0.94,0.54c0.04,0.44,0.15,0.73,0.44,1.06c0.34,0.39,1.13,0.09,1.07-0.44
				c-0.06-0.55-0.19-1.01-0.52-1.46C154.97,60.44,153.89,61.07,154.35,61.73L154.35,61.73z"/>
		</g>
	</g>
	<g>
		<path d="M155.67,62.39c-0.04-0.12-0.08-0.24-0.12-0.36c0.02,0.09,0.04,0.18,0.06,0.27c-0.1-0.25-0.2-0.5-0.31-0.75"/>
		<g>
			<path d="M156.27,62.22c-0.04-0.12-0.08-0.24-0.12-0.36c-0.26-0.76-1.39-0.46-1.21,0.33c0.02,0.09,0.04,0.18,0.06,0.27
				c0.4-0.11,0.8-0.22,1.21-0.33c-0.1-0.25-0.2-0.5-0.31-0.75c-0.13-0.31-0.41-0.53-0.77-0.44c-0.3,0.08-0.56,0.46-0.44,0.77
				c0.1,0.25,0.2,0.5,0.31,0.75c0.3,0.73,1.39,0.47,1.21-0.33c-0.02-0.09-0.04-0.18-0.06-0.27c-0.4,0.11-0.8,0.22-1.21,0.33
				c0.04,0.12,0.08,0.24,0.12,0.36C155.32,63.31,156.53,62.99,156.27,62.22L156.27,62.22z"/>
		</g>
	</g>
	<g>
		<path d="M153.58,58.66c-0.04-0.11-0.11-0.21-0.2-0.28c0.01,0.03,0.03,0.05,0.06,0.04c-0.26-0.34-0.52-0.68-0.79-1.01
			c0.24,0.35,0.5,0.68,0.78,0.99"/>
		<g>
			<path d="M154.12,58.34c-0.07-0.16-0.17-0.29-0.29-0.41c-0.25,0.33-0.5,0.65-0.76,0.98c0.02,0.01,0.04,0.03,0.06,0.04
				c0.5,0.35,1.23-0.36,0.86-0.86c-0.29-0.39-0.58-0.77-0.89-1.14c-0.44-0.55-1.38,0.17-0.98,0.76c0.27,0.39,0.56,0.76,0.88,1.12
				c0.54,0.6,1.42-0.29,0.88-0.88c-0.25-0.28-0.47-0.56-0.68-0.87c-0.33,0.25-0.65,0.5-0.98,0.76c0.24,0.29,0.47,0.59,0.69,0.89
				c0.29-0.29,0.57-0.57,0.86-0.86c-0.02-0.01-0.04-0.03-0.06-0.04c-0.59-0.41-1.26,0.5-0.76,0.98c0.05,0.04,0.09,0.09,0.1,0.15
				C153.37,59.71,154.45,59.07,154.12,58.34L154.12,58.34z"/>
		</g>
	</g>
	<g>
		<path d="M152.22,57.17c0.07,0.09,0.16,0.17,0.25,0.23c-0.07-0.1-0.14-0.21-0.21-0.31c0.1,0.05,0.18,0.13,0.24,0.23
			c-0.07-0.07-0.13-0.14-0.2-0.21c-0.01-0.01-0.02-0.02-0.03-0.01c-0.01,0.01,0,0.02,0.01,0.01"/>
		<g>
			<path d="M151.78,57.61c0.07,0.09,0.15,0.17,0.25,0.23c0.51,0.4,1.42-0.12,0.98-0.76c-0.07-0.1-0.14-0.21-0.21-0.31
				c-0.29,0.29-0.57,0.57-0.86,0.86c0,0,0.01,0.01,0.01,0.01c0.33-0.25,0.65-0.5,0.98-0.76c-0.16-0.17-0.29-0.3-0.5-0.39
				c-0.41-0.17-0.76,0.25-0.79,0.6c0,0,0,0.01,0,0.01c-0.03,0.25,0.21,0.56,0.46,0.6c0,0,0.01,0,0.01,0
				c0.79,0.14,1.12-1.06,0.33-1.21c0,0-0.01,0-0.01,0c0.15,0.2,0.31,0.4,0.46,0.6c0,0,0-0.01,0-0.01c-0.26,0.2-0.53,0.4-0.79,0.6
				c-0.18-0.08-0.2-0.06-0.05,0.06c0.48,0.52,1.38-0.16,0.98-0.76c-0.13-0.2-0.26-0.33-0.46-0.46c-0.51-0.33-1.21,0.34-0.86,0.86
				c0.07,0.1,0.14,0.21,0.21,0.31c0.33-0.25,0.65-0.5,0.98-0.76c-0.1-0.06-0.18-0.14-0.25-0.23
				C152.12,56.13,151.24,57.02,151.78,57.61L151.78,57.61z"/>
		</g>
	</g>
	<g>
		<path d="M85.94,50.25c-0.06-0.14-0.15-0.28-0.25-0.39c0.14,0.05,0.27,0.14,0.38,0.25c-0.05-0.15-0.13-0.28-0.23-0.38
			c0.05,0.05,0.12,0.08,0.19,0.08c-0.05-0.05-0.1-0.11-0.15-0.16c0.03,0.05,0.09,0.08,0.15,0.06c-0.06-0.09-0.12-0.18-0.18-0.27
			c0.07,0.06,0.15,0.13,0.22,0.19c-0.03,0.03-0.07,0-0.1-0.03c-0.03-0.03-0.07-0.06-0.1-0.04c-0.03,0.02,0.03,0.08,0.03,0.04
			c-0.1-0.09-0.19-0.18-0.29-0.27c0.11,0.17,0.22,0.34,0.33,0.51"/>
		<g>
			<path d="M86.48,49.94c-0.1-0.19-0.22-0.35-0.35-0.52c-0.25,0.33-0.5,0.65-0.76,0.98c0.09,0.03,0.18,0.08,0.25,0.15
				c0.42,0.37,1.3,0.02,1.04-0.61c-0.1-0.26-0.21-0.45-0.39-0.66c-0.25,0.33-0.5,0.65-0.76,0.98c0.11,0.07,0.21,0.12,0.34,0.14
				c0.6,0.12,1.05-0.57,0.61-1.04c-0.05-0.05-0.1-0.11-0.15-0.16c-0.29,0.29-0.59,0.59-0.88,0.88c0.18,0.17,0.34,0.23,0.59,0.25
				c0.46,0.03,0.79-0.56,0.54-0.94c-0.06-0.09-0.12-0.18-0.18-0.27c-0.33,0.25-0.65,0.5-0.98,0.76c0.07,0.06,0.15,0.13,0.22,0.19
				c0.15-0.36,0.29-0.71,0.44-1.07c0.1,0.04,0.19,0.07,0.29,0.11c-0.06-0.06-0.12-0.1-0.2-0.13c-0.09-0.04-0.19-0.05-0.29-0.06
				c-0.26-0.01-0.55,0.2-0.6,0.46c-0.06,0.25,0,0.47,0.18,0.66c0.24,0.25,0.64,0.22,0.88,0c0,0,0.01-0.01,0.01-0.01
				c0.24-0.22,0.24-0.66,0-0.88c-0.1-0.09-0.19-0.18-0.29-0.27c-0.5-0.46-1.39,0.14-0.98,0.76c0.11,0.17,0.22,0.34,0.33,0.51
				c0.44,0.67,1.52,0.05,1.08-0.63c-0.11-0.17-0.22-0.34-0.33-0.51c-0.33,0.25-0.65,0.5-0.98,0.76c0.1,0.09,0.19,0.18,0.29,0.27
				c0-0.29,0-0.59,0-0.88c0,0-0.01,0.01-0.01,0.01c0.29,0,0.59,0,0.88,0c-0.01-0.01-0.02-0.02-0.02-0.02
				c0.05,0.2,0.11,0.41,0.16,0.61c0-0.01,0-0.02,0.01-0.03c-0.2,0.15-0.4,0.31-0.6,0.46c0.02,0,0.04,0,0.05,0
				c-0.15-0.06-0.29-0.12-0.44-0.18c0.17,0.15,0.35,0.29,0.59,0.26c0.47-0.06,0.91-0.67,0.44-1.07c-0.07-0.06-0.15-0.13-0.22-0.19
				c-0.51-0.43-1.4,0.12-0.98,0.76c0.06,0.09,0.12,0.18,0.18,0.27c0.18-0.31,0.36-0.63,0.54-0.94c-0.03,0-0.06,0-0.08-0.01
				c0.15,0.06,0.29,0.12,0.44,0.18c-0.02-0.02-0.04-0.04-0.06-0.06c-0.59-0.55-1.43,0.29-0.88,0.88c0.05,0.05,0.1,0.11,0.15,0.16
				c0.2-0.35,0.41-0.7,0.61-1.04c-0.01-0.01-0.03-0.01-0.04-0.02c-0.62-0.42-1.19,0.47-0.76,0.98c0.02,0.04,0.05,0.07,0.07,0.11
				c0.35-0.2,0.7-0.41,1.04-0.61c-0.16-0.14-0.31-0.26-0.5-0.34c-0.66-0.31-1.2,0.42-0.76,0.98c0.06,0.08,0.11,0.17,0.15,0.27
				C85.76,51.29,86.84,50.65,86.48,49.94L86.48,49.94z"/>
		</g>
	</g>
	<g>
		<path d="M86.08,49.78c-0.15-0.16-0.3-0.32-0.46-0.47c0.17,0.15,0.34,0.3,0.51,0.44c-0.12-0.07-0.22-0.17-0.31-0.29
			c0.08,0.04,0.15,0.1,0.21,0.17c-0.07-0.07-0.15-0.15-0.22-0.22c0.13,0.14,0.28,0.26,0.45,0.35c-0.13-0.13-0.27-0.27-0.4-0.4
			c0.2,0.18,0.39,0.36,0.59,0.54c-0.27-0.15-0.52-0.37-0.71-0.63c0.33,0.35,0.68,0.68,1.04,1c-0.72-0.47-1.16-1.36-1.93-1.72
			c0.36,0.29,0.72,0.58,1.08,0.88c0.38,0.31,0.78,0.64,0.99,1.11"/>
		<g>
			<path d="M86.52,49.34c-0.15-0.16-0.3-0.32-0.46-0.47c-0.29,0.29-0.59,0.59-0.88,0.88c0.17,0.15,0.34,0.3,0.51,0.44
				c0.25-0.33,0.5-0.65,0.76-0.98c-0.07-0.05-0.13-0.12-0.18-0.19c-0.25,0.33-0.5,0.65-0.76,0.98c0.03,0.03,0.06,0.05,0.08,0.08
				c0.57,0.57,1.45-0.31,0.88-0.88c-0.07-0.07-0.15-0.15-0.22-0.22c-0.57-0.57-1.45,0.31-0.88,0.88c0.17,0.18,0.36,0.32,0.57,0.44
				c0.61,0.35,1.26-0.47,0.76-0.98c-0.13-0.13-0.27-0.27-0.4-0.4c-0.29,0.29-0.59,0.59-0.88,0.88c0.2,0.18,0.39,0.36,0.59,0.54
				c0.25-0.33,0.5-0.65,0.76-0.98c-0.24-0.14-0.41-0.32-0.58-0.53c-0.29,0.29-0.59,0.59-0.88,0.88c0.34,0.35,0.68,0.68,1.04,1
				c0.25-0.33,0.5-0.65,0.76-0.98c-0.72-0.5-1.13-1.31-1.93-1.72c-0.59-0.31-1.34,0.51-0.76,0.98c0.66,0.54,1.57,1.07,1.97,1.86
				c0.36,0.72,1.44,0.09,1.08-0.63c-0.45-0.9-1.4-1.49-2.16-2.11c-0.25,0.33-0.5,0.65-0.76,0.98c0.77,0.4,1.22,1.22,1.93,1.72
				c0.58,0.41,1.29-0.51,0.76-0.98c-0.36-0.32-0.71-0.66-1.04-1c-0.57-0.59-1.37,0.27-0.88,0.88c0.23,0.3,0.51,0.53,0.83,0.73
				c0.6,0.37,1.29-0.5,0.76-0.98c-0.2-0.18-0.39-0.36-0.59-0.54c-0.59-0.54-1.45,0.31-0.88,0.88c0.13,0.13,0.27,0.27,0.4,0.4
				c0.25-0.33,0.5-0.65,0.76-0.98c-0.13-0.07-0.21-0.14-0.32-0.25c-0.29,0.29-0.59,0.59-0.88,0.88c0.07,0.07,0.15,0.15,0.22,0.22
				c0.29-0.29,0.59-0.59,0.88-0.88c-0.11-0.11-0.21-0.19-0.34-0.27c-0.62-0.42-1.19,0.47-0.76,0.98c0.13,0.15,0.27,0.27,0.43,0.38
				c0.57,0.42,1.29-0.52,0.76-0.98c-0.17-0.15-0.34-0.3-0.51-0.44c-0.6-0.53-1.45,0.3-0.88,0.88c0.15,0.16,0.3,0.32,0.46,0.47
				C86.2,50.8,87.08,49.91,86.52,49.34L86.52,49.34z"/>
		</g>
	</g>
	<g>
		<path d="M86.95,50.36c-0.36-0.26-0.68-0.6-0.92-1c0.4,0.16,0.73,0.49,0.91,0.9"/>
		<g>
			<path d="M87.27,49.82c-0.28-0.21-0.5-0.48-0.69-0.77c-0.29,0.29-0.57,0.57-0.86,0.86c0.33,0.15,0.52,0.34,0.68,0.67
				c0.35,0.72,1.43,0.09,1.08-0.63c-0.24-0.49-0.63-0.89-1.13-1.12c-0.53-0.24-1.22,0.28-0.86,0.86c0.31,0.49,0.68,0.88,1.14,1.22
				C87.28,51.38,87.91,50.3,87.27,49.82L87.27,49.82z"/>
		</g>
	</g>
	<g>
		<path d="M87.27,50.5c-0.39-0.49-0.82-0.94-1.3-1.33c-0.11-0.09-0.22-0.18-0.34-0.26c-0.33-0.22-0.71-0.36-1.08-0.5
			c0.74,0.46,1.47,0.91,2.21,1.37c0.23,0.14,0.46,0.29,0.72,0.37c-0.57-0.39-1.14-0.78-1.7-1.17c-0.05-0.03-0.14-0.05-0.15,0.01"/>
		<g>
			<path d="M87.71,50.06c-0.83-1.03-1.75-1.79-3-2.24c-0.68-0.25-1.06,0.78-0.48,1.14c0.99,0.61,1.98,1.38,3.08,1.8
				c0.7,0.27,1.03-0.77,0.48-1.14c-0.47-0.32-0.95-0.65-1.42-0.97c-0.33-0.23-0.68-0.45-1.06-0.18c-0.66,0.45-0.03,1.54,0.63,1.08
				c0.02-0.01,0.04-0.03,0.06-0.04c-0.16,0.02-0.32,0.04-0.48,0.06c0.26,0.09,0.57,0.4,0.79,0.55c0.28,0.19,0.57,0.39,0.85,0.58
				c0.16-0.38,0.32-0.76,0.48-1.14c-0.5-0.19-0.95-0.54-1.4-0.82c-0.46-0.28-0.92-0.57-1.38-0.85c-0.16,0.38-0.32,0.76-0.48,1.14
				c1.03,0.38,1.76,1.08,2.44,1.92C87.33,51.57,88.21,50.68,87.71,50.06L87.71,50.06z"/>
		</g>
	</g>
	<path class="st1" d="M135.28,163.73"/>
</g>
<g>
	<g>
		<path d="M81.38,165.51c-0.35-0.76-0.7-1.52-1.05-2.27c-0.55-1.19-2.36-1.58-3.42-0.9c-1.23,0.79-1.48,2.15-0.9,3.42
			c0.35,0.76,0.7,1.52,1.05,2.27c0.55,1.19,2.36,1.58,3.42,0.9C81.72,168.14,81.97,166.79,81.38,165.51L81.38,165.51z"/>
	</g>
</g>
<g>
	<g>
		<path d="M80.6,165.27c0.33,0.05,1.04,1.49,0.77,0.46c-0.05-0.18-0.1-0.35-0.16-0.52c-0.23-0.63-0.5-1.11-0.9-1.63
			c-0.28-0.36-0.58-0.7-0.87-1.05c-0.24-0.29-0.15-0.1-0.24-0.44c-0.81-3.11-5.64-1.79-4.82,1.33c0.23,0.87,0.65,1.55,1.2,2.24
			c0.16,0.2,0.33,0.4,0.5,0.6c0.12,0.13,0.23,0.26,0.34,0.4c-0.1-0.13-0.1-0.12-0.01,0.02c0.08,0.15,0.09,0.15,0.03-0.02
			c0.06,0.18,0.1,0.36,0.14,0.54c0.11,0.39,0.22,0.76,0.41,1.13c0.46,0.87,1.29,1.61,2.28,1.77c1.33,0.22,2.69-0.35,3.08-1.75
			C82.67,167.15,81.94,165.49,80.6,165.27L80.6,165.27z"/>
	</g>
</g>
<g>
	<g>
		<path d="M81.14,165.77c-0.95-1.85-1.95-3.67-3.02-5.46c-0.86-1.44-2.31-3-2.47-4.73c-0.28-3.18-5.29-3.21-5,0
			c0.21,2.3,1.08,3.91,2.28,5.84c1.4,2.23,2.68,4.53,3.88,6.87C78.3,171.16,82.61,168.63,81.14,165.77L81.14,165.77z"/>
	</g>
</g>
<g>
	<g>
		<path d="M56.83,124.16c-0.41-0.74-0.82-1.49-1.24-2.23c-1.34-2.41-5.64-0.76-4.57,1.93c1.58,3.98,3.8,7.51,5.96,11.19
			c2.22,3.78,3.37,8.1,5.78,11.73c1.77,2.67,6.1,0.17,4.32-2.52c-2.13-3.21-3.14-7.06-5.03-10.43c-2.1-3.77-4.61-7.27-6.22-11.3
			c-1.52,0.64-3.05,1.28-4.57,1.93c0.41,0.74,0.82,1.49,1.24,2.23C54.07,129.5,58.39,126.98,56.83,124.16L56.83,124.16z"/>
	</g>
</g>
<g>
	<g>
		<path d="M65.86,145.19c-0.13,0.09-0.25,0.18-0.38,0.27c-0.54,0.39-0.97,0.83-1.15,1.49c-0.16,0.6-0.09,1.4,0.25,1.93
			c0.68,1.05,2.28,1.71,3.42,0.9c0.13-0.09,0.25-0.18,0.38-0.27c0.54-0.39,0.97-0.83,1.15-1.49c0.16-0.6,0.09-1.4-0.25-1.93
			C68.6,145.04,67,144.37,65.86,145.19L65.86,145.19z"/>
	</g>
</g>
<g>
	<g>
		<path d="M69.06,146.29c-0.59-0.79-1.17-1.57-1.76-2.36c-1.59-2.13-5.4-1-4.57,1.93c1.8,6.35,6.15,10.5,9.02,16.23
			c2.25,4.48,4.92,8.65,10.41,8.76c-0.22-1.64-0.44-3.27-0.66-4.91c-0.4-0.01-0.79-0.02-1.19-0.03c-3.13-0.73-4.47,4.09-1.33,4.82
			c1.57,0.37,2.27,0.36,3.85,0.03c2.82-0.6,2.09-4.86-0.66-4.91c-4.72-0.09-6.27-7.33-8.47-10.44c-2.57-3.62-4.9-6.5-6.14-10.89
			c-1.52,0.64-3.05,1.28-4.57,1.93c0.59,0.79,1.17,1.57,1.76,2.36C66.65,151.36,70.99,148.87,69.06,146.29L69.06,146.29z"/>
	</g>
</g>
<g>
	<g>
		<path d="M43.16,105.9c0-0.01-0.01-0.02-0.01-0.03c0.36,0,0.72,0,1.08,0c-0.77-1.75-0.81-4.06-1.07-5.93
			c-0.11-0.79-1.31-0.46-1.21,0.33c0.28,2.03,0.37,4.34,1.2,6.23c0.2,0.47,0.84,0.34,1.08,0c0.14-0.2,0.17-0.36,0.18-0.6
			C44.45,105.1,43.2,105.1,43.16,105.9L43.16,105.9z"/>
	</g>
</g>
<g>
	<g>
		<path d="M99.21,47.68c-0.01-0.32-0.06-0.61-0.14-0.91c-0.18-0.65-1.3-0.56-1.23,0.17C98,48.4,98.2,50.2,99.8,50.83
			c1.16,0.46,3.22,0.32,3.29-1.25c0.04-0.8-1.21-0.8-1.25,0c-0.01,0.22-0.86,0.21-1,0.2c-0.44-0.02-0.76-0.14-1.05-0.49
			c-0.59-0.7-0.6-1.48-0.69-2.35c-0.41,0.06-0.82,0.11-1.23,0.17c0.07,0.19,0.1,0.38,0.1,0.58C97.99,48.49,99.24,48.49,99.21,47.68
			L99.21,47.68z"/>
	</g>
</g>
</svg>
